<svg width="1440" height="48" viewBox="0 0 1440 48" fill="none" xmlns="http://www.w3.org/2000/svg">
<path d="M0 0H1440V48H0V0Z" fill="#1A184B"/>
<path d="M429.426 22H428.193C428.12 21.6454 427.993 21.3338 427.81 21.0653C427.631 20.7969 427.413 20.5715 427.154 20.3892C426.899 20.2036 426.616 20.0644 426.304 19.9716C425.992 19.8788 425.668 19.8324 425.33 19.8324C424.713 19.8324 424.155 19.9882 423.654 20.2997C423.157 20.6113 422.761 21.0703 422.466 21.6768C422.174 22.2834 422.028 23.0275 422.028 23.9091C422.028 24.7907 422.174 25.5348 422.466 26.1413C422.761 26.7479 423.157 27.2069 423.654 27.5185C424.155 27.83 424.713 27.9858 425.33 27.9858C425.668 27.9858 425.992 27.9394 426.304 27.8466C426.616 27.7538 426.899 27.6162 427.154 27.4339C427.413 27.2483 427.631 27.0213 427.81 26.7528C427.993 26.4811 428.12 26.1695 428.193 25.8182H429.426C429.333 26.3385 429.164 26.8042 428.919 27.2152C428.674 27.6262 428.369 27.9759 428.004 28.2642C427.64 28.5492 427.23 28.7663 426.776 28.9155C426.326 29.0646 425.843 29.1392 425.33 29.1392C424.461 29.1392 423.689 28.9271 423.013 28.5028C422.337 28.0786 421.805 27.4754 421.417 26.6932C421.029 25.911 420.835 24.983 420.835 23.9091C420.835 22.8352 421.029 21.9072 421.417 21.125C421.805 20.3428 422.337 19.7396 423.013 19.3153C423.689 18.8911 424.461 18.679 425.33 18.679C425.843 18.679 426.326 18.7536 426.776 18.9027C427.23 19.0518 427.64 19.2706 428.004 19.5589C428.369 19.844 428.674 20.192 428.919 20.603C429.164 21.0107 429.333 21.4763 429.426 22ZM434.362 29.1591C433.672 29.1591 433.067 28.995 432.547 28.6669C432.03 28.3388 431.626 27.8797 431.334 27.2898C431.046 26.6998 430.901 26.0104 430.901 25.2216C430.901 24.4261 431.046 23.7318 431.334 23.1385C431.626 22.5452 432.03 22.0845 432.547 21.7564C433.067 21.4283 433.672 21.2642 434.362 21.2642C435.051 21.2642 435.654 21.4283 436.171 21.7564C436.692 22.0845 437.096 22.5452 437.384 23.1385C437.676 23.7318 437.822 24.4261 437.822 25.2216C437.822 26.0104 437.676 26.6998 437.384 27.2898C437.096 27.8797 436.692 28.3388 436.171 28.6669C435.654 28.995 435.051 29.1591 434.362 29.1591ZM434.362 28.1051C434.885 28.1051 435.316 27.9709 435.654 27.7024C435.992 27.4339 436.243 27.081 436.405 26.6435C436.567 26.206 436.649 25.732 436.649 25.2216C436.649 24.7112 436.567 24.2356 436.405 23.7947C436.243 23.3539 435.992 22.9976 435.654 22.7259C435.316 22.4541 434.885 22.3182 434.362 22.3182C433.838 22.3182 433.407 22.4541 433.069 22.7259C432.731 22.9976 432.481 23.3539 432.318 23.7947C432.156 24.2356 432.075 24.7112 432.075 25.2216C432.075 25.732 432.156 26.206 432.318 26.6435C432.481 27.081 432.731 27.4339 433.069 27.7024C433.407 27.9709 433.838 28.1051 434.362 28.1051ZM439.613 31.8636V21.3636H440.746V22.5767H440.886C440.972 22.4441 441.091 22.2751 441.244 22.0696C441.399 21.8608 441.621 21.6752 441.91 21.5128C442.201 21.3471 442.596 21.2642 443.093 21.2642C443.736 21.2642 444.303 21.425 444.793 21.7464C445.284 22.0679 445.667 22.5237 445.942 23.1136C446.217 23.7036 446.354 24.3996 446.354 25.2017C446.354 26.0104 446.217 26.7114 445.942 27.3047C445.667 27.8946 445.286 28.352 444.798 28.6768C444.311 28.9983 443.749 29.1591 443.113 29.1591C442.622 29.1591 442.23 29.0779 441.935 28.9155C441.64 28.7498 441.413 28.5625 441.254 28.3537C441.094 28.1416 440.972 27.9659 440.886 27.8267H440.786V31.8636H439.613ZM440.766 25.1818C440.766 25.7585 440.851 26.2673 441.02 26.7081C441.189 27.1456 441.436 27.4886 441.761 27.7372C442.085 27.9825 442.483 28.1051 442.954 28.1051C443.444 28.1051 443.854 27.9759 444.182 27.7173C444.513 27.4555 444.762 27.1042 444.928 26.6634C445.097 26.2192 445.181 25.7254 445.181 25.1818C445.181 24.6449 445.098 24.161 444.933 23.7301C444.77 23.2959 444.523 22.9529 444.192 22.701C443.864 22.4458 443.451 22.3182 442.954 22.3182C442.477 22.3182 442.076 22.4392 441.751 22.6811C441.426 22.9197 441.181 23.2545 441.015 23.6854C440.849 24.1129 440.766 24.6117 440.766 25.1818ZM448.626 31.8636C448.428 31.8636 448.25 31.8471 448.094 31.8139C447.939 31.7841 447.831 31.7543 447.771 31.7244L448.07 30.6903C448.355 30.7633 448.607 30.7898 448.825 30.7699C449.044 30.75 449.238 30.6522 449.407 30.4766C449.579 30.3042 449.737 30.0241 449.879 29.6364L450.098 29.0398L447.274 21.3636H448.547L450.655 27.4489H450.734L452.842 21.3636H454.115L450.874 30.1136C450.728 30.508 450.547 30.8345 450.332 31.093C450.116 31.3549 449.866 31.5488 449.581 31.6747C449.299 31.8007 448.981 31.8636 448.626 31.8636ZM455.664 29V21.3636H456.797V22.517H456.877C457.016 22.1392 457.268 21.8326 457.632 21.5973C457.997 21.362 458.408 21.2443 458.865 21.2443C458.952 21.2443 459.059 21.246 459.189 21.2493C459.318 21.2526 459.416 21.2576 459.482 21.2642V22.4574C459.442 22.4474 459.351 22.4325 459.208 22.4126C459.069 22.3894 458.922 22.3778 458.766 22.3778C458.395 22.3778 458.063 22.4557 457.772 22.6115C457.483 22.764 457.255 22.9761 457.086 23.2479C456.92 23.5163 456.837 23.8229 456.837 24.1676V29H455.664ZM460.873 29V21.3636H462.046V29H460.873ZM461.469 20.0909C461.241 20.0909 461.043 20.013 460.878 19.8572C460.715 19.7015 460.634 19.5142 460.634 19.2955C460.634 19.0767 460.715 18.8894 460.878 18.7337C461.043 18.5779 461.241 18.5 461.469 18.5C461.698 18.5 461.894 18.5779 462.056 18.7337C462.222 18.8894 462.305 19.0767 462.305 19.2955C462.305 19.5142 462.222 19.7015 462.056 19.8572C461.894 20.013 461.698 20.0909 461.469 20.0909ZM467.277 32.0227C466.711 32.0227 466.223 31.9498 465.816 31.804C465.408 31.6615 465.068 31.4725 464.797 31.2372C464.528 31.0052 464.314 30.7566 464.155 30.4915L465.09 29.8352C465.196 29.9744 465.33 30.1335 465.493 30.3125C465.655 30.4948 465.877 30.6522 466.159 30.7848C466.444 30.9207 466.817 30.9886 467.277 30.9886C467.894 30.9886 468.403 30.8395 468.804 30.5412C469.205 30.2429 469.405 29.7756 469.405 29.1392V27.5881H469.306C469.22 27.7273 469.097 27.8996 468.938 28.1051C468.782 28.3073 468.557 28.4879 468.262 28.647C467.97 28.8028 467.576 28.8807 467.078 28.8807C466.462 28.8807 465.908 28.7348 465.418 28.4432C464.931 28.1515 464.545 27.7273 464.26 27.1705C463.978 26.6136 463.837 25.9375 463.837 25.142C463.837 24.3598 463.975 23.6787 464.25 23.0987C464.525 22.5154 464.908 22.0646 465.398 21.7464C465.889 21.425 466.455 21.2642 467.098 21.2642C467.596 21.2642 467.99 21.3471 468.282 21.5128C468.577 21.6752 468.802 21.8608 468.958 22.0696C469.117 22.2751 469.239 22.4441 469.326 22.5767H469.445V21.3636H470.578V29.2188C470.578 29.875 470.429 30.4086 470.131 30.8196C469.836 31.2339 469.438 31.5372 468.938 31.7294C468.441 31.925 467.887 32.0227 467.277 32.0227ZM467.238 27.8267C467.708 27.8267 468.106 27.719 468.431 27.5036C468.756 27.2881 469.002 26.9782 469.172 26.5739C469.341 26.1695 469.425 25.6856 469.425 25.1222C469.425 24.572 469.342 24.0864 469.176 23.6655C469.011 23.2446 468.766 22.9148 468.441 22.6761C468.116 22.4375 467.715 22.3182 467.238 22.3182C466.74 22.3182 466.326 22.4441 465.995 22.696C465.667 22.9479 465.42 23.286 465.254 23.7102C465.092 24.1345 465.01 24.6051 465.01 25.1222C465.01 25.6525 465.093 26.1214 465.259 26.5291C465.428 26.9335 465.676 27.2517 466.005 27.4837C466.336 27.7124 466.747 27.8267 467.238 27.8267ZM473.9 24.4062V29H472.726V18.8182H473.9V22.5568H473.999C474.178 22.1624 474.446 21.8492 474.804 21.6172C475.166 21.3819 475.646 21.2642 476.246 21.2642C476.766 21.2642 477.222 21.3686 477.613 21.5774C478.004 21.7829 478.308 22.0994 478.523 22.527C478.742 22.9512 478.851 23.4915 478.851 24.1477V29H477.678V24.2273C477.678 23.6207 477.52 23.1518 477.206 22.8203C476.894 22.4856 476.462 22.3182 475.908 22.3182C475.524 22.3182 475.179 22.3994 474.874 22.5618C474.572 22.7242 474.334 22.9612 474.158 23.2727C473.986 23.5843 473.9 23.9621 473.9 24.4062ZM484.319 21.3636V22.358H480.361V21.3636H484.319ZM481.515 19.5341H482.688V26.8125C482.688 27.1439 482.736 27.3925 482.832 27.5582C482.932 27.7206 483.058 27.83 483.21 27.8864C483.366 27.9394 483.53 27.9659 483.702 27.9659C483.831 27.9659 483.938 27.9593 484.02 27.946C484.103 27.9295 484.17 27.9162 484.219 27.9062L484.458 28.9602C484.378 28.9901 484.267 29.0199 484.125 29.0497C483.982 29.0829 483.802 29.0994 483.583 29.0994C483.251 29.0994 482.927 29.0282 482.608 28.8857C482.294 28.7431 482.032 28.526 481.823 28.2344C481.617 27.9427 481.515 27.5748 481.515 27.1307V19.5341ZM492.447 23.9091C492.447 23.3655 492.58 22.87 492.845 22.4226C493.11 21.9751 493.466 21.6188 493.914 21.3537C494.361 21.0885 494.857 20.956 495.4 20.956C495.871 20.956 496.305 21.0571 496.703 21.2592C497.104 21.4614 497.435 21.7382 497.697 22.0895C497.959 22.4375 498.122 22.8319 498.184 23.2727H496.981C496.915 22.9313 496.731 22.6529 496.43 22.4375C496.128 22.2188 495.785 22.1094 495.4 22.1094C495.069 22.1094 494.767 22.1906 494.496 22.353C494.224 22.5154 494.007 22.7325 493.844 23.0043C493.682 23.276 493.601 23.5777 493.601 23.9091C493.601 24.2405 493.682 24.5421 493.844 24.8139C494.007 25.0857 494.224 25.3028 494.496 25.4652C494.767 25.6276 495.069 25.7088 495.4 25.7088C495.785 25.7088 496.11 25.6011 496.375 25.3857C496.643 25.1669 496.812 24.8868 496.882 24.5455H498.085C498.022 24.9863 497.868 25.3823 497.623 25.7337C497.377 26.0817 497.063 26.3568 496.678 26.5589C496.297 26.7611 495.871 26.8622 495.4 26.8622C494.857 26.8622 494.361 26.7296 493.914 26.4645C493.466 26.1993 493.11 25.843 492.845 25.3956C492.58 24.9482 492.447 24.4527 492.447 23.9091ZM495.351 29.1591C494.628 29.1591 493.949 29.0232 493.312 28.7514C492.679 28.4796 492.121 28.1035 491.637 27.6229C491.156 27.139 490.778 26.5805 490.503 25.9474C490.232 25.3144 490.097 24.6349 490.101 23.9091C490.104 23.1832 490.242 22.5038 490.513 21.8707C490.788 21.2377 491.166 20.6809 491.647 20.2003C492.127 19.7164 492.684 19.3385 493.317 19.0668C493.95 18.795 494.628 18.6591 495.351 18.6591C496.077 18.6591 496.756 18.795 497.389 19.0668C498.025 19.3385 498.582 19.7164 499.059 20.2003C499.54 20.6809 499.916 21.2377 500.188 21.8707C500.46 22.5038 500.597 23.1832 500.601 23.9091C500.604 24.6349 500.47 25.3144 500.198 25.9474C499.926 26.5805 499.55 27.139 499.069 27.6229C498.589 28.1035 498.03 28.4796 497.394 28.7514C496.758 29.0232 496.077 29.1591 495.351 29.1591ZM495.351 28.0057C495.917 28.0057 496.449 27.8996 496.947 27.6875C497.444 27.4754 497.88 27.1821 498.254 26.8075C498.629 26.433 498.922 25.9988 499.134 25.505C499.346 25.0078 499.451 24.4775 499.447 23.9141C499.444 23.3473 499.336 22.8153 499.124 22.3182C498.912 21.821 498.619 21.3852 498.244 21.0107C497.87 20.6361 497.435 20.3428 496.942 20.1307C496.448 19.9186 495.917 19.8125 495.351 19.8125C494.787 19.8125 494.259 19.9186 493.765 20.1307C493.271 20.3428 492.837 20.6378 492.462 21.0156C492.088 21.3902 491.793 21.826 491.577 22.3232C491.365 22.817 491.257 23.3473 491.254 23.9141C491.251 24.4742 491.355 25.0028 491.567 25.5C491.779 25.9938 492.073 26.428 492.447 26.8026C492.825 27.1771 493.261 27.4721 493.755 27.6875C494.252 27.8996 494.784 28.0057 495.351 28.0057ZM506.749 29V28.1051L510.11 24.4261C510.504 23.9953 510.829 23.6207 511.085 23.3026C511.34 22.9811 511.529 22.6795 511.651 22.3977C511.777 22.1127 511.84 21.8144 511.84 21.5028C511.84 21.1449 511.754 20.835 511.582 20.5732C511.413 20.3113 511.181 20.1091 510.886 19.9666C510.591 19.8241 510.259 19.7528 509.891 19.7528C509.5 19.7528 509.159 19.834 508.867 19.9964C508.579 20.1555 508.355 20.3793 508.196 20.6676C508.04 20.956 507.962 21.294 507.962 21.6818H506.789C506.789 21.0852 506.927 20.5616 507.202 20.1108C507.477 19.66 507.851 19.3087 508.325 19.0568C508.803 18.8049 509.338 18.679 509.931 18.679C510.528 18.679 511.056 18.8049 511.517 19.0568C511.978 19.3087 512.339 19.6484 512.601 20.076C512.863 20.5036 512.994 20.9792 512.994 21.5028C512.994 21.8774 512.926 22.2436 512.79 22.6016C512.657 22.9562 512.425 23.3523 512.094 23.7898C511.766 24.224 511.31 24.7543 510.727 25.3807L508.44 27.8267V27.9062H513.173V29H506.749ZM518.547 29.1392C517.798 29.1392 517.16 28.9354 516.633 28.5277C516.106 28.1167 515.703 27.5218 515.425 26.7429C515.146 25.9607 515.007 25.0161 515.007 23.9091C515.007 22.8087 515.146 21.8691 515.425 21.0902C515.706 20.308 516.111 19.7114 516.638 19.3004C517.168 18.8861 517.804 18.679 518.547 18.679C519.289 18.679 519.924 18.8861 520.451 19.3004C520.981 19.7114 521.386 20.308 521.664 21.0902C521.946 21.8691 522.087 22.8087 522.087 23.9091C522.087 25.0161 521.947 25.9607 521.669 26.7429C521.391 27.5218 520.988 28.1167 520.461 28.5277C519.934 28.9354 519.296 29.1392 518.547 29.1392ZM518.547 28.0455C519.289 28.0455 519.866 27.6875 520.277 26.9716C520.688 26.2557 520.893 25.2348 520.893 23.9091C520.893 23.0275 520.799 22.2768 520.61 21.657C520.424 21.0372 520.156 20.5649 519.805 20.2401C519.457 19.9152 519.037 19.7528 518.547 19.7528C517.811 19.7528 517.236 20.1158 516.822 20.8416C516.407 21.5642 516.2 22.5866 516.2 23.9091C516.2 24.7907 516.293 25.5398 516.479 26.1562C516.664 26.7727 516.931 27.2417 517.279 27.5632C517.63 27.8847 518.053 28.0455 518.547 28.0455ZM523.976 29V28.1051L527.337 24.4261C527.731 23.9953 528.056 23.6207 528.311 23.3026C528.566 22.9811 528.755 22.6795 528.878 22.3977C529.004 22.1127 529.067 21.8144 529.067 21.5028C529.067 21.1449 528.981 20.835 528.808 20.5732C528.639 20.3113 528.407 20.1091 528.112 19.9666C527.817 19.8241 527.486 19.7528 527.118 19.7528C526.727 19.7528 526.385 19.834 526.094 19.9964C525.805 20.1555 525.582 20.3793 525.423 20.6676C525.267 20.956 525.189 21.294 525.189 21.6818H524.016C524.016 21.0852 524.153 20.5616 524.428 20.1108C524.703 19.66 525.078 19.3087 525.552 19.0568C526.029 18.8049 526.564 18.679 527.158 18.679C527.754 18.679 528.283 18.8049 528.744 19.0568C529.204 19.3087 529.566 19.6484 529.827 20.076C530.089 20.5036 530.22 20.9792 530.22 21.5028C530.22 21.8774 530.152 22.2436 530.016 22.6016C529.884 22.9562 529.652 23.3523 529.32 23.7898C528.992 24.224 528.536 24.7543 527.953 25.3807L525.666 27.8267V27.9062H530.399V29H523.976ZM531.995 26.9119V25.8977L536.469 18.8182H537.205V20.3892H536.708L533.327 25.7386V25.8182H539.353V26.9119H531.995ZM536.788 29V26.6037V26.1314V18.8182H537.961V29H536.788ZM545.333 29V18.8182H546.566V23.8693H546.685L551.259 18.8182H552.869L548.594 23.4119L552.869 29H551.378L547.838 24.267L546.566 25.6989V29H545.333ZM555.48 24.4062V29H554.306V18.8182H555.48V22.5568H555.579C555.758 22.1624 556.026 21.8492 556.384 21.6172C556.746 21.3819 557.226 21.2642 557.826 21.2642C558.347 21.2642 558.802 21.3686 559.193 21.5774C559.584 21.7829 559.888 22.0994 560.103 22.527C560.322 22.9512 560.431 23.4915 560.431 24.1477V29H559.258V24.2273C559.258 23.6207 559.101 23.1518 558.786 22.8203C558.474 22.4856 558.042 22.3182 557.488 22.3182C557.104 22.3182 556.759 22.3994 556.454 22.5618C556.152 22.7242 555.914 22.9612 555.738 23.2727C555.566 23.5843 555.48 23.9621 555.48 24.4062ZM565.779 29.1591C565.044 29.1591 564.409 28.9967 563.875 28.6719C563.345 28.3438 562.936 27.8864 562.647 27.2997C562.362 26.7098 562.22 26.0237 562.22 25.2415C562.22 24.4593 562.362 23.7699 562.647 23.1733C562.936 22.5734 563.337 22.1061 563.85 21.7713C564.368 21.4332 564.971 21.2642 565.66 21.2642C566.058 21.2642 566.451 21.3305 566.838 21.4631C567.226 21.5956 567.579 21.8111 567.897 22.1094C568.216 22.4044 568.469 22.7955 568.658 23.2827C568.847 23.7699 568.941 24.3698 568.941 25.0824V25.5795H563.055V24.5653H567.748C567.748 24.1345 567.662 23.75 567.49 23.4119C567.321 23.0739 567.079 22.8071 566.764 22.6115C566.452 22.416 566.084 22.3182 565.66 22.3182C565.193 22.3182 564.788 22.4342 564.447 22.6662C564.109 22.8949 563.849 23.1932 563.667 23.5611C563.484 23.929 563.393 24.3234 563.393 24.7443V25.4205C563.393 25.9972 563.493 26.486 563.691 26.8871C563.894 27.2848 564.174 27.5881 564.532 27.7969C564.89 28.0024 565.306 28.1051 565.779 28.1051C566.088 28.1051 566.366 28.062 566.615 27.9759C566.867 27.8864 567.084 27.7538 567.266 27.5781C567.448 27.3991 567.589 27.1771 567.689 26.9119L568.822 27.2301C568.703 27.6146 568.502 27.9527 568.221 28.2443C567.939 28.5327 567.591 28.758 567.176 28.9205C566.762 29.0795 566.297 29.1591 565.779 29.1591ZM571.9 18.8182V29H570.726V18.8182H571.9ZM577.151 29.1591C576.461 29.1591 575.856 28.995 575.336 28.6669C574.819 28.3388 574.415 27.8797 574.123 27.2898C573.835 26.6998 573.691 26.0104 573.691 25.2216C573.691 24.4261 573.835 23.7318 574.123 23.1385C574.415 22.5452 574.819 22.0845 575.336 21.7564C575.856 21.4283 576.461 21.2642 577.151 21.2642C577.84 21.2642 578.443 21.4283 578.96 21.7564C579.481 22.0845 579.885 22.5452 580.173 23.1385C580.465 23.7318 580.611 24.4261 580.611 25.2216C580.611 26.0104 580.465 26.6998 580.173 27.2898C579.885 27.8797 579.481 28.3388 578.96 28.6669C578.443 28.995 577.84 29.1591 577.151 29.1591ZM577.151 28.1051C577.674 28.1051 578.105 27.9709 578.443 27.7024C578.781 27.4339 579.032 27.081 579.194 26.6435C579.356 26.206 579.438 25.732 579.438 25.2216C579.438 24.7112 579.356 24.2356 579.194 23.7947C579.032 23.3539 578.781 22.9976 578.443 22.7259C578.105 22.4541 577.674 22.3182 577.151 22.3182C576.627 22.3182 576.196 22.4541 575.858 22.7259C575.52 22.9976 575.27 23.3539 575.107 23.7947C574.945 24.2356 574.864 24.7112 574.864 25.2216C574.864 25.732 574.945 26.206 575.107 26.6435C575.27 27.081 575.52 27.4339 575.858 27.7024C576.196 27.9709 576.627 28.1051 577.151 28.1051ZM585.942 19.9119V18.8182H593.578V19.9119H590.376V29H589.143V19.9119H585.942ZM597.416 29.1591C596.68 29.1591 596.046 28.9967 595.512 28.6719C594.982 28.3438 594.572 27.8864 594.284 27.2997C593.999 26.7098 593.857 26.0237 593.857 25.2415C593.857 24.4593 593.999 23.7699 594.284 23.1733C594.572 22.5734 594.973 22.1061 595.487 21.7713C596.004 21.4332 596.607 21.2642 597.297 21.2642C597.695 21.2642 598.087 21.3305 598.475 21.4631C598.863 21.5956 599.216 21.8111 599.534 22.1094C599.852 22.4044 600.106 22.7955 600.295 23.2827C600.484 23.7699 600.578 24.3698 600.578 25.0824V25.5795H594.692V24.5653H599.385C599.385 24.1345 599.299 23.75 599.126 23.4119C598.957 23.0739 598.715 22.8071 598.401 22.6115C598.089 22.416 597.721 22.3182 597.297 22.3182C596.83 22.3182 596.425 22.4342 596.084 22.6662C595.746 22.8949 595.486 23.1932 595.303 23.5611C595.121 23.929 595.03 24.3234 595.03 24.7443V25.4205C595.03 25.9972 595.129 26.486 595.328 26.8871C595.53 27.2848 595.81 27.5881 596.168 27.7969C596.526 28.0024 596.942 28.1051 597.416 28.1051C597.724 28.1051 598.003 28.062 598.251 27.9759C598.503 27.8864 598.72 27.7538 598.903 27.5781C599.085 27.3991 599.226 27.1771 599.325 26.9119L600.459 27.2301C600.339 27.6146 600.139 27.9527 599.857 28.2443C599.576 28.5327 599.228 28.758 598.813 28.9205C598.399 29.0795 597.933 29.1591 597.416 29.1591ZM605.465 29.1591C604.749 29.1591 604.133 28.9901 603.616 28.652C603.099 28.3139 602.701 27.8482 602.423 27.255C602.144 26.6617 602.005 25.9839 602.005 25.2216C602.005 24.446 602.147 23.7616 602.433 23.1683C602.721 22.5717 603.122 22.1061 603.636 21.7713C604.153 21.4332 604.756 21.2642 605.445 21.2642C605.982 21.2642 606.466 21.3636 606.897 21.5625C607.328 21.7614 607.681 22.0398 607.956 22.3977C608.231 22.7557 608.402 23.1733 608.468 23.6506H607.295C607.205 23.3026 607.006 22.9943 606.698 22.7259C606.393 22.4541 605.982 22.3182 605.465 22.3182C605.008 22.3182 604.607 22.4375 604.262 22.6761C603.921 22.9115 603.654 23.2446 603.462 23.6754C603.273 24.103 603.178 24.6051 603.178 25.1818C603.178 25.7718 603.271 26.2855 603.457 26.723C603.646 27.1605 603.911 27.5002 604.252 27.7422C604.597 27.9841 605.001 28.1051 605.465 28.1051C605.77 28.1051 606.047 28.0521 606.295 27.946C606.544 27.84 606.754 27.6875 606.927 27.4886C607.099 27.2898 607.222 27.0511 607.295 26.7727H608.468C608.402 27.2235 608.238 27.6295 607.976 27.9908C607.717 28.3487 607.374 28.6338 606.947 28.8459C606.522 29.0547 606.029 29.1591 605.465 29.1591ZM611.357 24.4062V29H610.183V18.8182H611.357V22.5568H611.456C611.635 22.1624 611.903 21.8492 612.261 21.6172C612.623 21.3819 613.103 21.2642 613.703 21.2642C614.223 21.2642 614.679 21.3686 615.07 21.5774C615.461 21.7829 615.765 22.0994 615.98 22.527C616.199 22.9512 616.308 23.4915 616.308 24.1477V29H615.135V24.2273C615.135 23.6207 614.978 23.1518 614.663 22.8203C614.351 22.4856 613.919 22.3182 613.365 22.3182C612.981 22.3182 612.636 22.3994 612.331 22.5618C612.029 22.7242 611.791 22.9612 611.615 23.2727C611.443 23.5843 611.357 23.9621 611.357 24.4062ZM624.639 29.179C624.155 29.179 623.716 29.0878 623.322 28.9055C622.927 28.7199 622.614 28.4531 622.382 28.1051C622.15 27.7538 622.034 27.3295 622.034 26.8324C622.034 26.3949 622.12 26.0402 622.293 25.7685C622.465 25.4934 622.695 25.2779 622.984 25.1222C623.272 24.9664 623.59 24.8504 623.938 24.7741C624.29 24.6946 624.643 24.6316 624.997 24.5852C625.461 24.5256 625.838 24.4808 626.126 24.451C626.418 24.4179 626.63 24.3632 626.762 24.2869C626.898 24.2107 626.966 24.0781 626.966 23.8892V23.8494C626.966 23.3589 626.832 22.9777 626.563 22.706C626.298 22.4342 625.896 22.2983 625.355 22.2983C624.795 22.2983 624.356 22.4209 624.038 22.6662C623.72 22.9115 623.496 23.1733 623.367 23.4517L622.253 23.054C622.452 22.59 622.717 22.2287 623.048 21.9702C623.383 21.7083 623.748 21.526 624.142 21.4233C624.54 21.3172 624.931 21.2642 625.316 21.2642C625.561 21.2642 625.843 21.294 626.161 21.3537C626.482 21.41 626.792 21.5277 627.09 21.7067C627.392 21.8857 627.642 22.1558 627.841 22.517C628.04 22.8783 628.139 23.3622 628.139 23.9688V29H626.966V27.9659H626.906C626.827 28.1316 626.694 28.3089 626.509 28.4979C626.323 28.6868 626.076 28.8475 625.768 28.9801C625.46 29.1127 625.084 29.179 624.639 29.179ZM624.818 28.125C625.282 28.125 625.673 28.0339 625.992 27.8516C626.313 27.6693 626.555 27.4339 626.718 27.1456C626.883 26.8572 626.966 26.554 626.966 26.2358V25.1619C626.916 25.2216 626.807 25.2763 626.638 25.326C626.472 25.3724 626.28 25.4138 626.061 25.4503C625.846 25.4834 625.635 25.5133 625.43 25.5398C625.228 25.563 625.064 25.5829 624.938 25.5994C624.633 25.6392 624.348 25.7038 624.083 25.7933C623.821 25.8795 623.609 26.0104 623.446 26.1861C623.287 26.3584 623.208 26.5937 623.208 26.892C623.208 27.2997 623.358 27.608 623.66 27.8168C623.965 28.0223 624.351 28.125 624.818 28.125ZM631.454 24.4062V29H630.281V21.3636H631.414V22.5568H631.514C631.693 22.169 631.965 21.8575 632.329 21.6222C632.694 21.3835 633.164 21.2642 633.741 21.2642C634.258 21.2642 634.711 21.3703 635.098 21.5824C635.486 21.7912 635.788 22.1094 636.003 22.5369C636.219 22.9612 636.326 23.4981 636.326 24.1477V29H635.153V24.2273C635.153 23.6274 634.997 23.16 634.686 22.8253C634.374 22.4872 633.947 22.3182 633.403 22.3182C633.029 22.3182 632.694 22.3994 632.399 22.5618C632.107 22.7242 631.877 22.9612 631.708 23.2727C631.539 23.5843 631.454 23.9621 631.454 24.4062ZM641.354 29.1591C640.718 29.1591 640.156 28.9983 639.669 28.6768C639.181 28.352 638.8 27.8946 638.525 27.3047C638.25 26.7114 638.112 26.0104 638.112 25.2017C638.112 24.3996 638.25 23.7036 638.525 23.1136C638.8 22.5237 639.183 22.0679 639.673 21.7464C640.164 21.425 640.731 21.2642 641.374 21.2642C641.871 21.2642 642.264 21.3471 642.552 21.5128C642.844 21.6752 643.066 21.8608 643.218 22.0696C643.374 22.2751 643.495 22.4441 643.581 22.5767H643.681V18.8182H644.854V29H643.72V27.8267H643.581C643.495 27.9659 643.372 28.1416 643.213 28.3537C643.054 28.5625 642.827 28.7498 642.532 28.9155C642.237 29.0779 641.844 29.1591 641.354 29.1591ZM641.513 28.1051C641.984 28.1051 642.381 27.9825 642.706 27.7372C643.031 27.4886 643.278 27.1456 643.447 26.7081C643.616 26.2673 643.7 25.7585 643.7 25.1818C643.7 24.6117 643.618 24.1129 643.452 23.6854C643.286 23.2545 643.041 22.9197 642.716 22.6811C642.391 22.4392 641.99 22.3182 641.513 22.3182C641.016 22.3182 640.602 22.4458 640.27 22.701C639.942 22.9529 639.695 23.2959 639.529 23.7301C639.367 24.161 639.286 24.6449 639.286 25.1818C639.286 25.7254 639.369 26.2192 639.534 26.6634C639.703 27.1042 639.952 27.4555 640.28 27.7173C640.611 27.9759 641.022 28.1051 641.513 28.1051ZM656.83 21.3636C656.771 20.8598 656.529 20.4688 656.105 20.1903C655.68 19.9119 655.16 19.7727 654.544 19.7727C654.093 19.7727 653.698 19.8456 653.36 19.9915C653.026 20.1373 652.764 20.3378 652.575 20.593C652.389 20.8482 652.296 21.1383 652.296 21.4631C652.296 21.7348 652.361 21.9685 652.49 22.1641C652.623 22.3563 652.792 22.517 652.997 22.6463C653.203 22.7723 653.418 22.8767 653.644 22.9595C653.869 23.0391 654.076 23.1037 654.265 23.1534L655.299 23.4318C655.564 23.5014 655.859 23.5975 656.184 23.7202C656.512 23.8428 656.825 24.0102 657.124 24.2223C657.425 24.4311 657.674 24.6996 657.869 25.0277C658.065 25.3558 658.163 25.7585 658.163 26.2358C658.163 26.786 658.019 27.2831 657.73 27.7273C657.445 28.1714 657.028 28.5244 656.477 28.7862C655.931 29.0481 655.266 29.179 654.484 29.179C653.755 29.179 653.123 29.0613 652.59 28.826C652.059 28.5907 651.642 28.2625 651.337 27.8416C651.035 27.4207 650.865 26.9318 650.825 26.375H652.097C652.131 26.7595 652.26 27.0777 652.485 27.3295C652.714 27.5781 653.002 27.7637 653.35 27.8864C653.702 28.0057 654.079 28.0653 654.484 28.0653C654.954 28.0653 655.377 27.9891 655.752 27.8366C656.126 27.6809 656.423 27.4654 656.642 27.1903C656.86 26.9119 656.97 26.5871 656.97 26.2159C656.97 25.8778 656.875 25.6027 656.686 25.3906C656.497 25.1785 656.249 25.0062 655.941 24.8736C655.632 24.741 655.299 24.625 654.941 24.5256L653.688 24.1676C652.893 23.9389 652.263 23.6125 651.799 23.1882C651.335 22.764 651.103 22.2088 651.103 21.5227C651.103 20.9527 651.257 20.4555 651.566 20.0312C651.877 19.6037 652.295 19.2723 652.818 19.0369C653.345 18.7983 653.934 18.679 654.583 18.679C655.24 18.679 655.823 18.7966 656.333 19.032C656.844 19.264 657.248 19.5821 657.546 19.9865C657.848 20.3909 658.007 20.8499 658.024 21.3636H656.83ZM663.352 21.3636V22.358H659.395V21.3636H663.352ZM660.548 19.5341H661.721V26.8125C661.721 27.1439 661.769 27.3925 661.865 27.5582C661.965 27.7206 662.091 27.83 662.243 27.8864C662.399 27.9394 662.563 27.9659 662.735 27.9659C662.865 27.9659 662.971 27.9593 663.054 27.946C663.136 27.9295 663.203 27.9162 663.252 27.9062L663.491 28.9602C663.412 28.9901 663.301 29.0199 663.158 29.0497C663.016 29.0829 662.835 29.0994 662.616 29.0994C662.285 29.0994 661.96 29.0282 661.642 28.8857C661.327 28.7431 661.065 28.526 660.856 28.2344C660.651 27.9427 660.548 27.5748 660.548 27.1307V19.5341ZM665.117 29V21.3636H666.25V22.517H666.33C666.469 22.1392 666.721 21.8326 667.086 21.5973C667.45 21.362 667.861 21.2443 668.319 21.2443C668.405 21.2443 668.512 21.246 668.642 21.2493C668.771 21.2526 668.869 21.2576 668.935 21.2642V22.4574C668.895 22.4474 668.804 22.4325 668.662 22.4126C668.522 22.3894 668.375 22.3778 668.219 22.3778C667.848 22.3778 667.516 22.4557 667.225 22.6115C666.936 22.764 666.708 22.9761 666.539 23.2479C666.373 23.5163 666.29 23.8229 666.29 24.1676V29H665.117ZM672.573 29.179C672.089 29.179 671.65 29.0878 671.256 28.9055C670.861 28.7199 670.548 28.4531 670.316 28.1051C670.084 27.7538 669.968 27.3295 669.968 26.8324C669.968 26.3949 670.054 26.0402 670.226 25.7685C670.399 25.4934 670.629 25.2779 670.917 25.1222C671.206 24.9664 671.524 24.8504 671.872 24.7741C672.223 24.6946 672.576 24.6316 672.931 24.5852C673.395 24.5256 673.771 24.4808 674.059 24.451C674.351 24.4179 674.563 24.3632 674.696 24.2869C674.832 24.2107 674.9 24.0781 674.9 23.8892V23.8494C674.9 23.3589 674.765 22.9777 674.497 22.706C674.232 22.4342 673.829 22.2983 673.289 22.2983C672.729 22.2983 672.29 22.4209 671.971 22.6662C671.653 22.9115 671.43 23.1733 671.3 23.4517L670.187 23.054C670.385 22.59 670.651 22.2287 670.982 21.9702C671.317 21.7083 671.681 21.526 672.076 21.4233C672.474 21.3172 672.865 21.2642 673.249 21.2642C673.494 21.2642 673.776 21.294 674.094 21.3537C674.416 21.41 674.726 21.5277 675.024 21.7067C675.326 21.8857 675.576 22.1558 675.775 22.517C675.974 22.8783 676.073 23.3622 676.073 23.9688V29H674.9V27.9659H674.84C674.76 28.1316 674.628 28.3089 674.442 28.4979C674.257 28.6868 674.01 28.8475 673.702 28.9801C673.393 29.1127 673.017 29.179 672.573 29.179ZM672.752 28.125C673.216 28.125 673.607 28.0339 673.925 27.8516C674.247 27.6693 674.489 27.4339 674.651 27.1456C674.817 26.8572 674.9 26.554 674.9 26.2358V25.1619C674.85 25.2216 674.741 25.2763 674.572 25.326C674.406 25.3724 674.214 25.4138 673.995 25.4503C673.779 25.4834 673.569 25.5133 673.363 25.5398C673.161 25.563 672.997 25.5829 672.871 25.5994C672.566 25.6392 672.281 25.7038 672.016 25.7933C671.754 25.8795 671.542 26.0104 671.38 26.1861C671.221 26.3584 671.141 26.5937 671.141 26.892C671.141 27.2997 671.292 27.608 671.594 27.8168C671.898 28.0223 672.285 28.125 672.752 28.125ZM681.536 21.3636V22.358H677.578V21.3636H681.536ZM678.732 19.5341H679.905V26.8125C679.905 27.1439 679.953 27.3925 680.049 27.5582C680.148 27.7206 680.274 27.83 680.427 27.8864C680.583 27.9394 680.747 27.9659 680.919 27.9659C681.048 27.9659 681.154 27.9593 681.237 27.946C681.32 27.9295 681.386 27.9162 681.436 27.9062L681.675 28.9602C681.595 28.9901 681.484 29.0199 681.342 29.0497C681.199 29.0829 681.018 29.0994 680.8 29.0994C680.468 29.0994 680.143 29.0282 679.825 28.8857C679.51 28.7431 679.249 28.526 679.04 28.2344C678.834 27.9427 678.732 27.5748 678.732 27.1307V19.5341ZM686.42 29.1591C685.684 29.1591 685.05 28.9967 684.516 28.6719C683.986 28.3438 683.576 27.8864 683.288 27.2997C683.003 26.7098 682.86 26.0237 682.86 25.2415C682.86 24.4593 683.003 23.7699 683.288 23.1733C683.576 22.5734 683.977 22.1061 684.491 21.7713C685.008 21.4332 685.611 21.2642 686.301 21.2642C686.699 21.2642 687.091 21.3305 687.479 21.4631C687.867 21.5956 688.22 21.8111 688.538 22.1094C688.856 22.4044 689.11 22.7955 689.299 23.2827C689.488 23.7699 689.582 24.3698 689.582 25.0824V25.5795H683.696V24.5653H688.389C688.389 24.1345 688.303 23.75 688.13 23.4119C687.961 23.0739 687.719 22.8071 687.404 22.6115C687.093 22.416 686.725 22.3182 686.301 22.3182C685.833 22.3182 685.429 22.4342 685.088 22.6662C684.75 22.8949 684.489 23.1932 684.307 23.5611C684.125 23.929 684.034 24.3234 684.034 24.7443V25.4205C684.034 25.9972 684.133 26.486 684.332 26.8871C684.534 27.2848 684.814 27.5881 685.172 27.7969C685.53 28.0024 685.946 28.1051 686.42 28.1051C686.728 28.1051 687.007 28.062 687.255 27.9759C687.507 27.8864 687.724 27.7538 687.907 27.5781C688.089 27.3991 688.23 27.1771 688.329 26.9119L689.463 27.2301C689.343 27.6146 689.143 27.9527 688.861 28.2443C688.579 28.5327 688.231 28.758 687.817 28.9205C687.403 29.0795 686.937 29.1591 686.42 29.1591ZM694.449 32.0227C693.882 32.0227 693.395 31.9498 692.988 31.804C692.58 31.6615 692.24 31.4725 691.968 31.2372C691.7 31.0052 691.486 30.7566 691.327 30.4915L692.262 29.8352C692.368 29.9744 692.502 30.1335 692.664 30.3125C692.827 30.4948 693.049 30.6522 693.331 30.7848C693.616 30.9207 693.989 30.9886 694.449 30.9886C695.066 30.9886 695.574 30.8395 695.975 30.5412C696.377 30.2429 696.577 29.7756 696.577 29.1392V27.5881H696.478C696.391 27.7273 696.269 27.8996 696.11 28.1051C695.954 28.3073 695.729 28.4879 695.434 28.647C695.142 28.8028 694.748 28.8807 694.25 28.8807C693.634 28.8807 693.08 28.7348 692.59 28.4432C692.103 28.1515 691.717 27.7273 691.431 27.1705C691.15 26.6136 691.009 25.9375 691.009 25.142C691.009 24.3598 691.146 23.6787 691.422 23.0987C691.697 22.5154 692.079 22.0646 692.57 21.7464C693.06 21.425 693.627 21.2642 694.27 21.2642C694.767 21.2642 695.162 21.3471 695.453 21.5128C695.748 21.6752 695.974 21.8608 696.13 22.0696C696.289 22.2751 696.411 22.4441 696.498 22.5767H696.617V21.3636H697.75V29.2188C697.75 29.875 697.601 30.4086 697.303 30.8196C697.008 31.2339 696.61 31.5372 696.11 31.7294C695.613 31.925 695.059 32.0227 694.449 32.0227ZM694.409 27.8267C694.88 27.8267 695.278 27.719 695.603 27.5036C695.927 27.2881 696.174 26.9782 696.343 26.5739C696.512 26.1695 696.597 25.6856 696.597 25.1222C696.597 24.572 696.514 24.0864 696.348 23.6655C696.183 23.2446 695.937 22.9148 695.613 22.6761C695.288 22.4375 694.887 22.3182 694.409 22.3182C693.912 22.3182 693.498 22.4441 693.167 22.696C692.838 22.9479 692.592 23.286 692.426 23.7102C692.263 24.1345 692.182 24.6051 692.182 25.1222C692.182 25.6525 692.265 26.1214 692.431 26.5291C692.6 26.9335 692.848 27.2517 693.176 27.4837C693.508 27.7124 693.919 27.8267 694.409 27.8267ZM700.654 31.8636C700.455 31.8636 700.278 31.8471 700.122 31.8139C699.966 31.7841 699.858 31.7543 699.799 31.7244L700.097 30.6903C700.382 30.7633 700.634 30.7898 700.853 30.7699C701.071 30.75 701.265 30.6522 701.434 30.4766C701.607 30.3042 701.764 30.0241 701.907 29.6364L702.125 29.0398L699.301 21.3636H700.574L702.682 27.4489H702.762L704.87 21.3636H706.142L702.901 30.1136C702.755 30.508 702.574 30.8345 702.359 31.093C702.144 31.3549 701.893 31.5488 701.608 31.6747C701.327 31.8007 701.008 31.8636 700.654 31.8636ZM711.788 29V18.8182H715.228C716.027 18.8182 716.68 18.9624 717.187 19.2507C717.697 19.5357 718.075 19.9219 718.32 20.4091C718.566 20.8963 718.688 21.4399 718.688 22.0398C718.688 22.6397 718.566 23.1849 718.32 23.6754C718.078 24.166 717.704 24.5571 717.197 24.8487C716.69 25.1371 716.04 25.2812 715.248 25.2812H712.782V24.1875H715.208C715.755 24.1875 716.194 24.093 716.526 23.9041C716.857 23.7152 717.097 23.46 717.246 23.1385C717.399 22.8137 717.475 22.4474 717.475 22.0398C717.475 21.6321 717.399 21.2675 717.246 20.946C717.097 20.6245 716.855 20.3726 716.521 20.1903C716.186 20.0047 715.742 19.9119 715.188 19.9119H713.021V29H711.788ZM720.515 29V21.3636H721.649V22.517H721.728C721.868 22.1392 722.119 21.8326 722.484 21.5973C722.849 21.362 723.26 21.2443 723.717 21.2443C723.803 21.2443 723.911 21.246 724.04 21.2493C724.169 21.2526 724.267 21.2576 724.333 21.2642V22.4574C724.294 22.4474 724.203 22.4325 724.06 22.4126C723.921 22.3894 723.773 22.3778 723.618 22.3778C723.246 22.3778 722.915 22.4557 722.623 22.6115C722.335 22.764 722.106 22.9761 721.937 23.2479C721.771 23.5163 721.689 23.8229 721.689 24.1676V29H720.515ZM725.724 29V21.3636H726.898V29H725.724ZM726.321 20.0909C726.092 20.0909 725.895 20.013 725.729 19.8572C725.567 19.7015 725.486 19.5142 725.486 19.2955C725.486 19.0767 725.567 18.8894 725.729 18.7337C725.895 18.5779 726.092 18.5 726.321 18.5C726.55 18.5 726.745 18.5779 726.907 18.7337C727.073 18.8894 727.156 19.0767 727.156 19.2955C727.156 19.5142 727.073 19.7015 726.907 19.8572C726.745 20.013 726.55 20.0909 726.321 20.0909ZM735.291 21.3636L732.467 29H731.274L728.45 21.3636H729.723L731.831 27.4489H731.91L734.018 21.3636H735.291ZM738.854 29.179C738.37 29.179 737.931 29.0878 737.537 28.9055C737.142 28.7199 736.829 28.4531 736.597 28.1051C736.365 27.7538 736.249 27.3295 736.249 26.8324C736.249 26.3949 736.335 26.0402 736.508 25.7685C736.68 25.4934 736.91 25.2779 737.199 25.1222C737.487 24.9664 737.805 24.8504 738.153 24.7741C738.505 24.6946 738.858 24.6316 739.212 24.5852C739.676 24.5256 740.052 24.4808 740.341 24.451C740.632 24.4179 740.845 24.3632 740.977 24.2869C741.113 24.2107 741.181 24.0781 741.181 23.8892V23.8494C741.181 23.3589 741.047 22.9777 740.778 22.706C740.513 22.4342 740.11 22.2983 739.57 22.2983C739.01 22.2983 738.571 22.4209 738.253 22.6662C737.934 22.9115 737.711 23.1733 737.581 23.4517L736.468 23.054C736.667 22.59 736.932 22.2287 737.263 21.9702C737.598 21.7083 737.963 21.526 738.357 21.4233C738.755 21.3172 739.146 21.2642 739.53 21.2642C739.776 21.2642 740.057 21.294 740.376 21.3537C740.697 21.41 741.007 21.5277 741.305 21.7067C741.607 21.8857 741.857 22.1558 742.056 22.517C742.255 22.8783 742.354 23.3622 742.354 23.9688V29H741.181V27.9659H741.121C741.042 28.1316 740.909 28.3089 740.724 28.4979C740.538 28.6868 740.291 28.8475 739.983 28.9801C739.675 29.1127 739.298 29.179 738.854 29.179ZM739.033 28.125C739.497 28.125 739.888 28.0339 740.206 27.8516C740.528 27.6693 740.77 27.4339 740.932 27.1456C741.098 26.8572 741.181 26.554 741.181 26.2358V25.1619C741.131 25.2216 741.022 25.2763 740.853 25.326C740.687 25.3724 740.495 25.4138 740.276 25.4503C740.061 25.4834 739.85 25.5133 739.645 25.5398C739.443 25.563 739.278 25.5829 739.153 25.5994C738.848 25.6392 738.563 25.7038 738.297 25.7933C738.036 25.8795 737.823 26.0104 737.661 26.1861C737.502 26.3584 737.422 26.5937 737.422 26.892C737.422 27.2997 737.573 27.608 737.875 27.8168C738.18 28.0223 738.566 28.125 739.033 28.125ZM747.817 21.3636V22.358H743.859V21.3636H747.817ZM745.013 19.5341H746.186V26.8125C746.186 27.1439 746.234 27.3925 746.33 27.5582C746.43 27.7206 746.556 27.83 746.708 27.8864C746.864 27.9394 747.028 27.9659 747.2 27.9659C747.33 27.9659 747.436 27.9593 747.518 27.946C747.601 27.9295 747.668 27.9162 747.717 27.9062L747.956 28.9602C747.876 28.9901 747.765 29.0199 747.623 29.0497C747.48 29.0829 747.3 29.0994 747.081 29.0994C746.75 29.0994 746.425 29.0282 746.107 28.8857C745.792 28.7431 745.53 28.526 745.321 28.2344C745.116 27.9427 745.013 27.5748 745.013 27.1307V19.5341ZM752.701 29.1591C751.966 29.1591 751.331 28.9967 750.797 28.6719C750.267 28.3438 749.858 27.8864 749.569 27.2997C749.284 26.7098 749.142 26.0237 749.142 25.2415C749.142 24.4593 749.284 23.7699 749.569 23.1733C749.858 22.5734 750.259 22.1061 750.772 21.7713C751.289 21.4332 751.893 21.2642 752.582 21.2642C752.98 21.2642 753.373 21.3305 753.76 21.4631C754.148 21.5956 754.501 21.8111 754.819 22.1094C755.137 22.4044 755.391 22.7955 755.58 23.2827C755.769 23.7699 755.863 24.3698 755.863 25.0824V25.5795H749.977V24.5653H754.67C754.67 24.1345 754.584 23.75 754.412 23.4119C754.243 23.0739 754.001 22.8071 753.686 22.6115C753.374 22.416 753.006 22.3182 752.582 22.3182C752.115 22.3182 751.71 22.4342 751.369 22.6662C751.031 22.8949 750.771 23.1932 750.588 23.5611C750.406 23.929 750.315 24.3234 750.315 24.7443V25.4205C750.315 25.9972 750.414 26.486 750.613 26.8871C750.815 27.2848 751.096 27.5881 751.453 27.7969C751.811 28.0024 752.227 28.1051 752.701 28.1051C753.01 28.1051 753.288 28.062 753.537 27.9759C753.788 27.8864 754.006 27.7538 754.188 27.5781C754.37 27.3991 754.511 27.1771 754.61 26.9119L755.744 27.2301C755.625 27.6146 755.424 27.9527 755.142 28.2443C754.861 28.5327 754.513 28.758 754.098 28.9205C753.684 29.0795 753.218 29.1591 752.701 29.1591ZM761.745 29V18.8182H762.978V27.9062H767.711V29H761.745ZM769.461 29V21.3636H770.634V29H769.461ZM770.057 20.0909C769.828 20.0909 769.631 20.013 769.466 19.8572C769.303 19.7015 769.222 19.5142 769.222 19.2955C769.222 19.0767 769.303 18.8894 769.466 18.7337C769.631 18.5779 769.828 18.5 770.057 18.5C770.286 18.5 770.481 18.5779 770.644 18.7337C770.81 18.8894 770.892 19.0767 770.892 19.2955C770.892 19.5142 770.81 19.7015 770.644 19.8572C770.481 20.013 770.286 20.0909 770.057 20.0909ZM772.783 29V21.3636H773.916V22.5568H774.016C774.175 22.1491 774.432 21.8326 774.786 21.6072C775.141 21.3786 775.567 21.2642 776.064 21.2642C776.568 21.2642 776.987 21.3786 777.322 21.6072C777.66 21.8326 777.923 22.1491 778.112 22.5568H778.192C778.387 22.1624 778.681 21.8492 779.072 21.6172C779.463 21.3819 779.932 21.2642 780.479 21.2642C781.162 21.2642 781.72 21.478 782.154 21.9055C782.588 22.3298 782.806 22.991 782.806 23.8892V29H781.632V23.8892C781.632 23.3258 781.478 22.9231 781.17 22.6811C780.862 22.4392 780.499 22.3182 780.081 22.3182C779.544 22.3182 779.128 22.4806 778.833 22.8054C778.538 23.1269 778.391 23.5346 778.391 24.0284V29H777.198V23.7699C777.198 23.3357 777.057 22.986 776.775 22.7209C776.493 22.4524 776.13 22.3182 775.686 22.3182C775.381 22.3182 775.096 22.3994 774.831 22.5618C774.569 22.7242 774.357 22.9496 774.195 23.2379C774.036 23.523 773.956 23.8527 773.956 24.2273V29H772.783ZM784.951 29V21.3636H786.124V29H784.951ZM785.547 20.0909C785.319 20.0909 785.122 20.013 784.956 19.8572C784.793 19.7015 784.712 19.5142 784.712 19.2955C784.712 19.0767 784.793 18.8894 784.956 18.7337C785.122 18.5779 785.319 18.5 785.547 18.5C785.776 18.5 785.972 18.5779 786.134 18.7337C786.3 18.8894 786.383 19.0767 786.383 19.2955C786.383 19.5142 786.3 19.7015 786.134 19.8572C785.972 20.013 785.776 20.0909 785.547 20.0909ZM791.594 21.3636V22.358H787.637V21.3636H791.594ZM788.79 19.5341H789.963V26.8125C789.963 27.1439 790.011 27.3925 790.108 27.5582C790.207 27.7206 790.333 27.83 790.485 27.8864C790.641 27.9394 790.805 27.9659 790.978 27.9659C791.107 27.9659 791.213 27.9593 791.296 27.946C791.379 27.9295 791.445 27.9162 791.495 27.9062L791.733 28.9602C791.654 28.9901 791.543 29.0199 791.4 29.0497C791.258 29.0829 791.077 29.0994 790.858 29.0994C790.527 29.0994 790.202 29.0282 789.884 28.8857C789.569 28.7431 789.307 28.526 789.098 28.2344C788.893 27.9427 788.79 27.5748 788.79 27.1307V19.5341ZM796.479 29.1591C795.743 29.1591 795.108 28.9967 794.575 28.6719C794.044 28.3438 793.635 27.8864 793.347 27.2997C793.062 26.7098 792.919 26.0237 792.919 25.2415C792.919 24.4593 793.062 23.7699 793.347 23.1733C793.635 22.5734 794.036 22.1061 794.55 21.7713C795.067 21.4332 795.67 21.2642 796.359 21.2642C796.757 21.2642 797.15 21.3305 797.538 21.4631C797.925 21.5956 798.278 21.8111 798.597 22.1094C798.915 22.4044 799.168 22.7955 799.357 23.2827C799.546 23.7699 799.641 24.3698 799.641 25.0824V25.5795H793.754V24.5653H798.447C798.447 24.1345 798.361 23.75 798.189 23.4119C798.02 23.0739 797.778 22.8071 797.463 22.6115C797.152 22.416 796.784 22.3182 796.359 22.3182C795.892 22.3182 795.488 22.4342 795.146 22.6662C794.808 22.8949 794.548 23.1932 794.366 23.5611C794.183 23.929 794.092 24.3234 794.092 24.7443V25.4205C794.092 25.9972 794.192 26.486 794.391 26.8871C794.593 27.2848 794.873 27.5881 795.231 27.7969C795.589 28.0024 796.005 28.1051 796.479 28.1051C796.787 28.1051 797.065 28.062 797.314 27.9759C797.566 27.8864 797.783 27.7538 797.965 27.5781C798.147 27.3991 798.288 27.1771 798.388 26.9119L799.521 27.2301C799.402 27.6146 799.201 27.9527 798.92 28.2443C798.638 28.5327 798.29 28.758 797.876 28.9205C797.461 29.0795 796.996 29.1591 796.479 29.1591ZM804.309 29.1591C803.673 29.1591 803.111 28.9983 802.624 28.6768C802.136 28.352 801.755 27.8946 801.48 27.3047C801.205 26.7114 801.067 26.0104 801.067 25.2017C801.067 24.3996 801.205 23.7036 801.48 23.1136C801.755 22.5237 802.138 22.0679 802.629 21.7464C803.119 21.425 803.686 21.2642 804.329 21.2642C804.826 21.2642 805.219 21.3471 805.507 21.5128C805.799 21.6752 806.021 21.8608 806.173 22.0696C806.329 22.2751 806.45 22.4441 806.536 22.5767H806.636V18.8182H807.809V29H806.675V27.8267H806.536C806.45 27.9659 806.327 28.1416 806.168 28.3537C806.009 28.5625 805.782 28.7498 805.487 28.9155C805.192 29.0779 804.799 29.1591 804.309 29.1591ZM804.468 28.1051C804.939 28.1051 805.336 27.9825 805.661 27.7372C805.986 27.4886 806.233 27.1456 806.402 26.7081C806.571 26.2673 806.656 25.7585 806.656 25.1818C806.656 24.6117 806.573 24.1129 806.407 23.6854C806.241 23.2545 805.996 22.9197 805.671 22.6811C805.346 22.4392 804.945 22.3182 804.468 22.3182C803.971 22.3182 803.557 22.4458 803.225 22.701C802.897 22.9529 802.65 23.2959 802.484 23.7301C802.322 24.161 802.241 24.6449 802.241 25.1818C802.241 25.7254 802.324 26.2192 802.489 26.6634C802.658 27.1042 802.907 27.4555 803.235 27.7173C803.567 27.9759 803.978 28.1051 804.468 28.1051ZM810.976 29.0795C810.731 29.0795 810.52 28.9917 810.344 28.8161C810.169 28.6404 810.081 28.4299 810.081 28.1847C810.081 27.9394 810.169 27.7289 810.344 27.5533C810.52 27.3776 810.731 27.2898 810.976 27.2898C811.221 27.2898 811.432 27.3776 811.607 27.5533C811.783 27.7289 811.871 27.9394 811.871 28.1847C811.871 28.3471 811.829 28.4962 811.746 28.6321C811.667 28.768 811.559 28.8774 811.423 28.9602C811.291 29.0398 811.142 29.0795 810.976 29.0795ZM818.49 29H817.198L820.936 18.8182H822.209L825.948 29H824.655L821.613 20.429H821.533L818.49 29ZM818.968 25.0227H824.178V26.1165H818.968V25.0227ZM828.548 18.8182V29H827.375V18.8182H828.548ZM831.87 18.8182V29H830.697V18.8182H831.87ZM838.116 29V18.8182H841.556C842.352 18.8182 843.004 18.9541 843.515 19.2259C844.025 19.4943 844.403 19.8639 844.648 20.3345C844.894 20.8052 845.016 21.3404 845.016 21.9403C845.016 22.5402 844.894 23.0722 844.648 23.5362C844.403 24.0002 844.027 24.3648 843.52 24.63C843.013 24.8918 842.365 25.0227 841.576 25.0227H838.792V23.9091H841.536C842.08 23.9091 842.517 23.8295 842.849 23.6705C843.183 23.5114 843.425 23.286 843.575 22.9943C843.727 22.6993 843.803 22.348 843.803 21.9403C843.803 21.5327 843.727 21.1764 843.575 20.8714C843.422 20.5665 843.179 20.3312 842.844 20.1655C842.509 19.9964 842.067 19.9119 841.516 19.9119H839.349V29H838.116ZM842.908 24.4261L845.414 29H843.982L841.516 24.4261H842.908ZM846.912 29V21.3636H848.085V29H846.912ZM847.508 20.0909C847.28 20.0909 847.082 20.013 846.917 19.8572C846.754 19.7015 846.673 19.5142 846.673 19.2955C846.673 19.0767 846.754 18.8894 846.917 18.7337C847.082 18.5779 847.28 18.5 847.508 18.5C847.737 18.5 847.933 18.5779 848.095 18.7337C848.261 18.8894 848.344 19.0767 848.344 19.2955C848.344 19.5142 848.261 19.7015 848.095 19.8572C847.933 20.013 847.737 20.0909 847.508 20.0909ZM853.316 32.0227C852.75 32.0227 852.262 31.9498 851.855 31.804C851.447 31.6615 851.107 31.4725 850.836 31.2372C850.567 31.0052 850.353 30.7566 850.194 30.4915L851.129 29.8352C851.235 29.9744 851.369 30.1335 851.532 30.3125C851.694 30.4948 851.916 30.6522 852.198 30.7848C852.483 30.9207 852.856 30.9886 853.316 30.9886C853.933 30.9886 854.442 30.8395 854.843 30.5412C855.244 30.2429 855.444 29.7756 855.444 29.1392V27.5881H855.345C855.259 27.7273 855.136 27.8996 854.977 28.1051C854.821 28.3073 854.596 28.4879 854.301 28.647C854.009 28.8028 853.615 28.8807 853.118 28.8807C852.501 28.8807 851.948 28.7348 851.457 28.4432C850.97 28.1515 850.584 27.7273 850.299 27.1705C850.017 26.6136 849.876 25.9375 849.876 25.142C849.876 24.3598 850.014 23.6787 850.289 23.0987C850.564 22.5154 850.947 22.0646 851.437 21.7464C851.928 21.425 852.494 21.2642 853.137 21.2642C853.635 21.2642 854.029 21.3471 854.321 21.5128C854.616 21.6752 854.841 21.8608 854.997 22.0696C855.156 22.2751 855.279 22.4441 855.365 22.5767H855.484V21.3636H856.618V29.2188C856.618 29.875 856.468 30.4086 856.17 30.8196C855.875 31.2339 855.477 31.5372 854.977 31.7294C854.48 31.925 853.926 32.0227 853.316 32.0227ZM853.277 27.8267C853.747 27.8267 854.145 27.719 854.47 27.5036C854.795 27.2881 855.042 26.9782 855.211 26.5739C855.38 26.1695 855.464 25.6856 855.464 25.1222C855.464 24.572 855.381 24.0864 855.216 23.6655C855.05 23.2446 854.805 22.9148 854.48 22.6761C854.155 22.4375 853.754 22.3182 853.277 22.3182C852.779 22.3182 852.365 22.4441 852.034 22.696C851.706 22.9479 851.459 23.286 851.293 23.7102C851.131 24.1345 851.049 24.6051 851.049 25.1222C851.049 25.6525 851.132 26.1214 851.298 26.5291C851.467 26.9335 851.716 27.2517 852.044 27.4837C852.375 27.7124 852.786 27.8267 853.277 27.8267ZM859.939 24.4062V29H858.765V18.8182H859.939V22.5568H860.038C860.217 22.1624 860.485 21.8492 860.843 21.6172C861.205 21.3819 861.685 21.2642 862.285 21.2642C862.806 21.2642 863.261 21.3686 863.652 21.5774C864.043 21.7829 864.347 22.0994 864.562 22.527C864.781 22.9512 864.89 23.4915 864.89 24.1477V29H863.717V24.2273C863.717 23.6207 863.56 23.1518 863.245 22.8203C862.933 22.4856 862.501 22.3182 861.947 22.3182C861.563 22.3182 861.218 22.3994 860.913 22.5618C860.611 22.7242 860.373 22.9612 860.197 23.2727C860.025 23.5843 859.939 23.9621 859.939 24.4062ZM870.358 21.3636V22.358H866.4V21.3636H870.358ZM867.554 19.5341H868.727V26.8125C868.727 27.1439 868.775 27.3925 868.871 27.5582C868.971 27.7206 869.097 27.83 869.249 27.8864C869.405 27.9394 869.569 27.9659 869.741 27.9659C869.871 27.9659 869.977 27.9593 870.059 27.946C870.142 27.9295 870.209 27.9162 870.258 27.9062L870.497 28.9602C870.417 28.9901 870.306 29.0199 870.164 29.0497C870.021 29.0829 869.841 29.0994 869.622 29.0994C869.291 29.0994 868.966 29.0282 868.648 28.8857C868.333 28.7431 868.071 28.526 867.862 28.2344C867.657 27.9427 867.554 27.5748 867.554 27.1307V19.5341ZM877.395 23.0739L876.341 23.3722C876.275 23.1965 876.177 23.0258 876.048 22.8601C875.922 22.6911 875.749 22.5518 875.531 22.4425C875.312 22.3331 875.032 22.2784 874.691 22.2784C874.223 22.2784 873.834 22.3861 873.522 22.6016C873.214 22.8137 873.06 23.0838 873.06 23.4119C873.06 23.7036 873.166 23.9339 873.378 24.103C873.59 24.272 873.922 24.4129 874.372 24.5256L875.506 24.804C876.189 24.9697 876.697 25.2232 877.032 25.5646C877.367 25.9027 877.534 26.3385 877.534 26.8722C877.534 27.3097 877.408 27.7008 877.156 28.0455C876.908 28.3902 876.56 28.6619 876.112 28.8608C875.665 29.0597 875.145 29.1591 874.551 29.1591C873.772 29.1591 873.128 28.9901 872.617 28.652C872.107 28.3139 871.784 27.8201 871.648 27.1705L872.762 26.892C872.868 27.303 873.068 27.6113 873.363 27.8168C873.661 28.0223 874.051 28.125 874.531 28.125C875.078 28.125 875.512 28.009 875.834 27.777C876.159 27.5417 876.321 27.2599 876.321 26.9318C876.321 26.6667 876.228 26.4446 876.043 26.2656C875.857 26.0833 875.572 25.9474 875.188 25.858L873.915 25.5597C873.216 25.3939 872.702 25.1371 872.374 24.7891C872.049 24.4377 871.887 23.9986 871.887 23.4716C871.887 23.0407 872.008 22.6596 872.249 22.3281C872.495 21.9967 872.828 21.7365 873.249 21.5476C873.673 21.3587 874.154 21.2642 874.691 21.2642C875.446 21.2642 876.039 21.4299 876.47 21.7614C876.905 22.0928 877.213 22.5303 877.395 23.0739ZM883.397 29V18.8182H886.837C887.633 18.8182 888.286 18.9541 888.796 19.2259C889.307 19.4943 889.684 19.8639 889.93 20.3345C890.175 20.8052 890.298 21.3404 890.298 21.9403C890.298 22.5402 890.175 23.0722 889.93 23.5362C889.684 24.0002 889.308 24.3648 888.801 24.63C888.294 24.8918 887.646 25.0227 886.857 25.0227H884.073V23.9091H886.817C887.361 23.9091 887.799 23.8295 888.13 23.6705C888.465 23.5114 888.707 23.286 888.856 22.9943C889.008 22.6993 889.085 22.348 889.085 21.9403C889.085 21.5327 889.008 21.1764 888.856 20.8714C888.703 20.5665 888.46 20.3312 888.125 20.1655C887.79 19.9964 887.348 19.9119 886.798 19.9119H884.63V29H883.397ZM888.19 24.4261L890.695 29H889.263L886.798 24.4261H888.19ZM895.313 29.1591C894.577 29.1591 893.942 28.9967 893.409 28.6719C892.878 28.3438 892.469 27.8864 892.181 27.2997C891.896 26.7098 891.753 26.0237 891.753 25.2415C891.753 24.4593 891.896 23.7699 892.181 23.1733C892.469 22.5734 892.87 22.1061 893.384 21.7713C893.901 21.4332 894.504 21.2642 895.193 21.2642C895.591 21.2642 895.984 21.3305 896.372 21.4631C896.759 21.5956 897.112 21.8111 897.431 22.1094C897.749 22.4044 898.002 22.7955 898.191 23.2827C898.38 23.7699 898.475 24.3698 898.475 25.0824V25.5795H892.588V24.5653H897.281C897.281 24.1345 897.195 23.75 897.023 23.4119C896.854 23.0739 896.612 22.8071 896.297 22.6115C895.985 22.416 895.618 22.3182 895.193 22.3182C894.726 22.3182 894.322 22.4342 893.98 22.6662C893.642 22.8949 893.382 23.1932 893.2 23.5611C893.017 23.929 892.926 24.3234 892.926 24.7443V25.4205C892.926 25.9972 893.026 26.486 893.225 26.8871C893.427 27.2848 893.707 27.5881 894.065 27.7969C894.423 28.0024 894.839 28.1051 895.313 28.1051C895.621 28.1051 895.899 28.062 896.148 27.9759C896.4 27.8864 896.617 27.7538 896.799 27.5781C896.981 27.3991 897.122 27.1771 897.222 26.9119L898.355 27.2301C898.236 27.6146 898.035 27.9527 897.754 28.2443C897.472 28.5327 897.124 28.758 896.71 28.9205C896.295 29.0795 895.83 29.1591 895.313 29.1591ZM905.669 23.0739L904.615 23.3722C904.548 23.1965 904.45 23.0258 904.321 22.8601C904.195 22.6911 904.023 22.5518 903.804 22.4425C903.585 22.3331 903.305 22.2784 902.964 22.2784C902.497 22.2784 902.107 22.3861 901.796 22.6016C901.487 22.8137 901.333 23.0838 901.333 23.4119C901.333 23.7036 901.439 23.9339 901.651 24.103C901.864 24.272 902.195 24.4129 902.646 24.5256L903.779 24.804C904.462 24.9697 904.971 25.2232 905.306 25.5646C905.64 25.9027 905.808 26.3385 905.808 26.8722C905.808 27.3097 905.682 27.7008 905.43 28.0455C905.181 28.3902 904.833 28.6619 904.386 28.8608C903.938 29.0597 903.418 29.1591 902.825 29.1591C902.046 29.1591 901.401 28.9901 900.891 28.652C900.38 28.3139 900.057 27.8201 899.921 27.1705L901.035 26.892C901.141 27.303 901.342 27.6113 901.637 27.8168C901.935 28.0223 902.324 28.125 902.805 28.125C903.352 28.125 903.786 28.009 904.107 27.777C904.432 27.5417 904.595 27.2599 904.595 26.9318C904.595 26.6667 904.502 26.4446 904.316 26.2656C904.131 26.0833 903.846 25.9474 903.461 25.858L902.188 25.5597C901.489 25.3939 900.975 25.1371 900.647 24.7891C900.322 24.4377 900.16 23.9986 900.16 23.4716C900.16 23.0407 900.281 22.6596 900.523 22.3281C900.768 21.9967 901.101 21.7365 901.522 21.5476C901.946 21.3587 902.427 21.2642 902.964 21.2642C903.72 21.2642 904.313 21.4299 904.744 21.7614C905.178 22.0928 905.486 22.5303 905.669 23.0739ZM910.776 29.1591C910.04 29.1591 909.405 28.9967 908.871 28.6719C908.341 28.3438 907.932 27.8864 907.643 27.2997C907.358 26.7098 907.216 26.0237 907.216 25.2415C907.216 24.4593 907.358 23.7699 907.643 23.1733C907.932 22.5734 908.333 22.1061 908.847 21.7713C909.364 21.4332 909.967 21.2642 910.656 21.2642C911.054 21.2642 911.447 21.3305 911.835 21.4631C912.222 21.5956 912.575 21.8111 912.893 22.1094C913.212 22.4044 913.465 22.7955 913.654 23.2827C913.843 23.7699 913.938 24.3698 913.938 25.0824V25.5795H908.051V24.5653H912.744C912.744 24.1345 912.658 23.75 912.486 23.4119C912.317 23.0739 912.075 22.8071 911.76 22.6115C911.448 22.416 911.08 22.3182 910.656 22.3182C910.189 22.3182 909.785 22.4342 909.443 22.6662C909.105 22.8949 908.845 23.1932 908.663 23.5611C908.48 23.929 908.389 24.3234 908.389 24.7443V25.4205C908.389 25.9972 908.489 26.486 908.688 26.8871C908.89 27.2848 909.17 27.5881 909.528 27.7969C909.886 28.0024 910.302 28.1051 910.776 28.1051C911.084 28.1051 911.362 28.062 911.611 27.9759C911.863 27.8864 912.08 27.7538 912.262 27.5781C912.444 27.3991 912.585 27.1771 912.685 26.9119L913.818 27.2301C913.699 27.6146 913.498 27.9527 913.217 28.2443C912.935 28.5327 912.587 28.758 912.173 28.9205C911.758 29.0795 911.293 29.1591 910.776 29.1591ZM915.722 29V21.3636H916.856V22.517H916.935C917.075 22.1392 917.326 21.8326 917.691 21.5973C918.056 21.362 918.467 21.2443 918.924 21.2443C919.01 21.2443 919.118 21.246 919.247 21.2493C919.376 21.2526 919.474 21.2576 919.54 21.2642V22.4574C919.501 22.4474 919.41 22.4325 919.267 22.4126C919.128 22.3894 918.98 22.3778 918.825 22.3778C918.453 22.3778 918.122 22.4557 917.83 22.6115C917.542 22.764 917.313 22.9761 917.144 23.2479C916.978 23.5163 916.896 23.8229 916.896 24.1676V29H915.722ZM927.408 21.3636L924.584 29H923.391L920.567 21.3636H921.84L923.948 27.4489H924.027L926.135 21.3636H927.408ZM931.885 29.1591C931.149 29.1591 930.514 28.9967 929.981 28.6719C929.451 28.3438 929.041 27.8864 928.753 27.2997C928.468 26.7098 928.325 26.0237 928.325 25.2415C928.325 24.4593 928.468 23.7699 928.753 23.1733C929.041 22.5734 929.442 22.1061 929.956 21.7713C930.473 21.4332 931.076 21.2642 931.766 21.2642C932.163 21.2642 932.556 21.3305 932.944 21.4631C933.332 21.5956 933.685 21.8111 934.003 22.1094C934.321 22.4044 934.575 22.7955 934.763 23.2827C934.952 23.7699 935.047 24.3698 935.047 25.0824V25.5795H929.161V24.5653H933.854C933.854 24.1345 933.768 23.75 933.595 23.4119C933.426 23.0739 933.184 22.8071 932.869 22.6115C932.558 22.416 932.19 22.3182 931.766 22.3182C931.298 22.3182 930.894 22.4342 930.553 22.6662C930.214 22.8949 929.954 23.1932 929.772 23.5611C929.59 23.929 929.499 24.3234 929.499 24.7443V25.4205C929.499 25.9972 929.598 26.486 929.797 26.8871C929.999 27.2848 930.279 27.5881 930.637 27.7969C930.995 28.0024 931.411 28.1051 931.885 28.1051C932.193 28.1051 932.472 28.062 932.72 27.9759C932.972 27.8864 933.189 27.7538 933.371 27.5781C933.554 27.3991 933.695 27.1771 933.794 26.9119L934.928 27.2301C934.808 27.6146 934.608 27.9527 934.326 28.2443C934.044 28.5327 933.696 28.758 933.282 28.9205C932.868 29.0795 932.402 29.1591 931.885 29.1591ZM939.715 29.1591C939.079 29.1591 938.517 28.9983 938.03 28.6768C937.543 28.352 937.161 27.8946 936.886 27.3047C936.611 26.7114 936.474 26.0104 936.474 25.2017C936.474 24.3996 936.611 23.7036 936.886 23.1136C937.161 22.5237 937.544 22.0679 938.035 21.7464C938.525 21.425 939.092 21.2642 939.735 21.2642C940.232 21.2642 940.625 21.3471 940.913 21.5128C941.205 21.6752 941.427 21.8608 941.58 22.0696C941.735 22.2751 941.856 22.4441 941.942 22.5767H942.042V18.8182H943.215V29H942.082V27.8267H941.942C941.856 27.9659 941.734 28.1416 941.575 28.3537C941.415 28.5625 941.188 28.7498 940.893 28.9155C940.598 29.0779 940.206 29.1591 939.715 29.1591ZM939.874 28.1051C940.345 28.1051 940.743 27.9825 941.067 27.7372C941.392 27.4886 941.639 27.1456 941.808 26.7081C941.977 26.2673 942.062 25.7585 942.062 25.1818C942.062 24.6117 941.979 24.1129 941.813 23.6854C941.647 23.2545 941.402 22.9197 941.077 22.6811C940.753 22.4392 940.352 22.3182 939.874 22.3182C939.377 22.3182 938.963 22.4458 938.631 22.701C938.303 22.9529 938.056 23.2959 937.891 23.7301C937.728 24.161 937.647 24.6449 937.647 25.1818C937.647 25.7254 937.73 26.2192 937.896 26.6634C938.065 27.1042 938.313 27.4555 938.641 27.7173C938.973 27.9759 939.384 28.1051 939.874 28.1051Z" fill="#CCCCFF"/>
</svg>
