<svg width="320" height="130" viewBox="0 0 320 130" fill="none" xmlns="http://www.w3.org/2000/svg">
<path d="M8.40554 8.50781C8.34588 7.94957 8.09446 7.51491 7.65128 7.20384C7.21236 6.89276 6.64134 6.73722 5.93821 6.73722C5.44389 6.73722 5.01989 6.81179 4.66619 6.96094C4.3125 7.11008 4.0419 7.3125 3.8544 7.56818C3.6669 7.82386 3.57102 8.11577 3.56676 8.44389C3.56676 8.71662 3.62855 8.95312 3.75213 9.15341C3.87997 9.35369 4.05256 9.52415 4.26989 9.66477C4.48722 9.80114 4.72798 9.91619 4.99219 10.0099C5.25639 10.1037 5.52273 10.1825 5.79119 10.2464L7.01847 10.5533C7.51278 10.6683 7.98793 10.8239 8.44389 11.0199C8.90412 11.2159 9.31534 11.4631 9.67756 11.7614C10.044 12.0597 10.3338 12.4197 10.5469 12.8416C10.7599 13.2635 10.8665 13.7578 10.8665 14.3246C10.8665 15.0916 10.6705 15.767 10.2784 16.3509C9.88636 16.9304 9.3196 17.3842 8.57812 17.7124C7.84091 18.0362 6.94815 18.1982 5.89986 18.1982C4.88139 18.1982 3.99716 18.0405 3.24716 17.7251C2.50142 17.4098 1.91761 16.9496 1.49574 16.3445C1.07813 15.7393 0.852273 15.0021 0.818182 14.1328H3.15128C3.18537 14.5888 3.32599 14.968 3.57315 15.2706C3.82031 15.5732 4.14205 15.799 4.53835 15.9482C4.93892 16.0973 5.38636 16.1719 5.88068 16.1719C6.39631 16.1719 6.84801 16.0952 7.2358 15.9418C7.62784 15.7841 7.93466 15.5668 8.15625 15.2898C8.37784 15.0085 8.49077 14.6804 8.49503 14.3054C8.49077 13.9645 8.39063 13.6832 8.1946 13.4616C7.99858 13.2358 7.72372 13.0483 7.37003 12.8991C7.0206 12.7457 6.61151 12.6094 6.14276 12.4901L4.65341 12.1065C3.57528 11.8295 2.72301 11.4098 2.09659 10.8473C1.47443 10.2805 1.16335 9.52841 1.16335 8.59091C1.16335 7.8196 1.37216 7.14418 1.78977 6.56463C2.21165 5.98509 2.7848 5.53551 3.50923 5.21591C4.23366 4.89204 5.05398 4.73011 5.97017 4.73011C6.89915 4.73011 7.71307 4.89204 8.41193 5.21591C9.11506 5.53551 9.6669 5.98082 10.0675 6.55185C10.468 7.11861 10.6747 7.7706 10.6875 8.50781H8.40554ZM19.1362 13.8707V8.18182H21.4501V18H19.2065V16.255H19.1042C18.8826 16.8047 18.5183 17.2543 18.0112 17.6037C17.5083 17.9531 16.8883 18.1278 16.1511 18.1278C15.5076 18.1278 14.9387 17.9851 14.4444 17.6996C13.9544 17.4098 13.5708 16.9901 13.2939 16.4403C13.0169 15.8864 12.8784 15.2173 12.8784 14.4332V8.18182H15.1923V14.0753C15.1923 14.6974 15.3627 15.1918 15.7037 15.5582C16.0446 15.9247 16.492 16.108 17.046 16.108C17.3869 16.108 17.7172 16.0249 18.0368 15.8587C18.3564 15.6925 18.6184 15.4453 18.823 15.1172C19.0318 14.7848 19.1362 14.3693 19.1362 13.8707ZM23.9318 18V4.90909H26.2457V9.8054H26.3416C26.4609 9.56676 26.6293 9.31321 26.8466 9.04474C27.0639 8.77202 27.358 8.53977 27.7287 8.34801C28.0994 8.15199 28.5724 8.05398 29.1477 8.05398C29.9063 8.05398 30.5902 8.24787 31.1996 8.63565C31.8132 9.01918 32.299 9.58807 32.657 10.3423C33.0192 11.0923 33.2003 12.0128 33.2003 13.1037C33.2003 14.1818 33.0234 15.098 32.6697 15.8523C32.3161 16.6065 31.8345 17.1818 31.2251 17.5781C30.6158 17.9744 29.9254 18.1726 29.1541 18.1726C28.5916 18.1726 28.125 18.0788 27.7543 17.8913C27.3835 17.7038 27.0852 17.478 26.8594 17.2138C26.6378 16.9453 26.4652 16.6918 26.3416 16.4531H26.2074V18H23.9318ZM26.201 13.0909C26.201 13.7259 26.2905 14.282 26.4695 14.7592C26.6527 15.2365 26.9148 15.6094 27.2557 15.8778C27.6009 16.142 28.0185 16.2741 28.5085 16.2741C29.0199 16.2741 29.4482 16.1378 29.7933 15.8651C30.1385 15.5881 30.3984 15.2109 30.5732 14.7337C30.7521 14.2521 30.8416 13.7045 30.8416 13.0909C30.8416 12.4815 30.7543 11.9403 30.5795 11.4673C30.4048 10.9943 30.1449 10.6236 29.7997 10.3551C29.4545 10.0866 29.0241 9.95241 28.5085 9.95241C28.0142 9.95241 27.5945 10.0824 27.2493 10.3423C26.9041 10.6023 26.642 10.9666 26.4631 11.4354C26.2884 11.9041 26.201 12.456 26.201 13.0909ZM42.9274 10.777L40.818 11.0071C40.7583 10.794 40.6539 10.5938 40.5048 10.4062C40.3599 10.2188 40.1639 10.0675 39.9167 9.95241C39.6696 9.83736 39.367 9.77983 39.0091 9.77983C38.5275 9.77983 38.1227 9.88423 37.7946 10.093C37.4707 10.3018 37.3109 10.5724 37.3152 10.9048C37.3109 11.1903 37.4153 11.4226 37.6284 11.6016C37.8457 11.7805 38.2037 11.9276 38.7022 12.0426L40.377 12.4006C41.3059 12.6009 41.9963 12.9183 42.448 13.353C42.9039 13.7876 43.1341 14.3565 43.1383 15.0597C43.1341 15.6776 42.9529 16.223 42.595 16.696C42.2413 17.1648 41.7491 17.5312 41.1184 17.7955C40.4877 18.0597 39.7633 18.1918 38.9451 18.1918C37.7434 18.1918 36.7761 17.9403 36.0431 17.4375C35.3102 16.9304 34.8734 16.2251 34.7328 15.3217L36.9892 15.1044C37.0914 15.5476 37.3088 15.8821 37.6412 16.108C37.9735 16.3338 38.4061 16.4467 38.9387 16.4467C39.4885 16.4467 39.9295 16.3338 40.2619 16.108C40.5985 15.8821 40.7669 15.603 40.7669 15.2706C40.7669 14.9893 40.6582 14.7571 40.4409 14.5739C40.2278 14.3906 39.8954 14.25 39.4437 14.152L37.769 13.8004C36.8272 13.6044 36.1305 13.2741 35.6788 12.8097C35.2271 12.3409 35.0034 11.7486 35.0076 11.0327C35.0034 10.4276 35.1674 9.90341 35.4998 9.46023C35.8365 9.01278 36.3031 8.66761 36.8997 8.42472C37.5005 8.17756 38.193 8.05398 38.9771 8.05398C40.1277 8.05398 41.0332 8.29901 41.6937 8.78906C42.3585 9.27912 42.7697 9.94176 42.9274 10.777ZM49.329 18.1918C48.3489 18.1918 47.5073 17.9766 46.8042 17.5462C46.1053 17.1158 45.5662 16.5213 45.187 15.7628C44.812 15 44.6245 14.1222 44.6245 13.1293C44.6245 12.1321 44.8162 11.2521 45.1998 10.4893C45.5833 9.7223 46.1245 9.12571 46.8233 8.69957C47.5265 8.26918 48.3574 8.05398 49.3162 8.05398C50.1131 8.05398 50.8184 8.20099 51.432 8.49503C52.0499 8.7848 52.5421 9.19602 52.9086 9.72869C53.275 10.2571 53.4838 10.875 53.535 11.5824H51.3233C51.2338 11.1094 51.0208 10.7152 50.6841 10.3999C50.3517 10.0803 49.9064 9.92045 49.3482 9.92045C48.8752 9.92045 48.4597 10.0483 48.1017 10.304C47.7438 10.5554 47.4647 10.9176 47.2644 11.3906C47.0684 11.8636 46.9703 12.4304 46.9703 13.0909C46.9703 13.7599 47.0684 14.3352 47.2644 14.8168C47.4604 15.294 47.7353 15.6626 48.089 15.9226C48.4469 16.1783 48.8667 16.3061 49.3482 16.3061C49.6891 16.3061 49.9938 16.2422 50.2623 16.1143C50.535 15.9822 50.763 15.7926 50.9462 15.5455C51.1294 15.2983 51.2551 14.9979 51.3233 14.6442H53.535C53.4796 15.3388 53.275 15.9545 52.9213 16.4915C52.5676 17.0241 52.0861 17.4418 51.4767 17.7443C50.8674 18.0426 50.1515 18.1918 49.329 18.1918ZM55.435 18V8.18182H57.6786V9.81818H57.7809C57.9599 9.25142 58.2667 8.81463 58.7013 8.50781C59.1403 8.19673 59.641 8.04119 60.2035 8.04119C60.3313 8.04119 60.4741 8.04758 60.6317 8.06037C60.7937 8.06889 60.9279 8.08381 61.0344 8.10511V10.2337C60.9364 10.1996 60.7809 10.1697 60.5678 10.1442C60.359 10.1143 60.1566 10.0994 59.9606 10.0994C59.5387 10.0994 59.1594 10.1911 58.8228 10.3743C58.4904 10.5533 58.2283 10.8026 58.0366 11.1222C57.8448 11.4418 57.7489 11.8104 57.7489 12.228V18H55.435ZM62.5717 18V8.18182H64.8857V18H62.5717ZM63.7351 6.78835C63.3686 6.78835 63.0533 6.6669 62.7891 6.42401C62.5249 6.17685 62.3928 5.88068 62.3928 5.53551C62.3928 5.18608 62.5249 4.88991 62.7891 4.64702C63.0533 4.39986 63.3686 4.27628 63.7351 4.27628C64.1058 4.27628 64.4212 4.39986 64.6811 4.64702C64.9453 4.88991 65.0774 5.18608 65.0774 5.53551C65.0774 5.88068 64.9453 6.17685 64.6811 6.42401C64.4212 6.6669 64.1058 6.78835 63.7351 6.78835ZM67.3674 18V4.90909H69.6813V9.8054H69.7772C69.8965 9.56676 70.0648 9.31321 70.2821 9.04474C70.4995 8.77202 70.7935 8.53977 71.1642 8.34801C71.535 8.15199 72.008 8.05398 72.5833 8.05398C73.3418 8.05398 74.0257 8.24787 74.6351 8.63565C75.2488 9.01918 75.7346 9.58807 76.0925 10.3423C76.4547 11.0923 76.6358 12.0128 76.6358 13.1037C76.6358 14.1818 76.459 15.098 76.1053 15.8523C75.7516 16.6065 75.2701 17.1818 74.6607 17.5781C74.0513 17.9744 73.361 18.1726 72.5897 18.1726C72.0272 18.1726 71.5605 18.0788 71.1898 17.8913C70.8191 17.7038 70.5208 17.478 70.2949 17.2138C70.0733 16.9453 69.9007 16.6918 69.7772 16.4531H69.6429V18H67.3674ZM69.6365 13.0909C69.6365 13.7259 69.726 14.282 69.905 14.7592C70.0882 15.2365 70.3503 15.6094 70.6912 15.8778C71.0364 16.142 71.454 16.2741 71.9441 16.2741C72.4554 16.2741 72.8837 16.1378 73.2289 15.8651C73.574 15.5881 73.834 15.2109 74.0087 14.7337C74.1877 14.2521 74.2772 13.7045 74.2772 13.0909C74.2772 12.4815 74.1898 11.9403 74.0151 11.4673C73.8404 10.9943 73.5804 10.6236 73.2353 10.3551C72.8901 10.0866 72.4597 9.95241 71.9441 9.95241C71.4498 9.95241 71.03 10.0824 70.6848 10.3423C70.3397 10.6023 70.0776 10.9666 69.8986 11.4354C69.7239 11.9041 69.6365 12.456 69.6365 13.0909ZM82.9496 18.1918C81.9652 18.1918 81.1151 17.9872 80.3991 17.5781C79.6875 17.1648 79.1399 16.581 78.7564 15.8267C78.3729 15.0682 78.1811 14.1754 78.1811 13.1484C78.1811 12.1385 78.3729 11.2521 78.7564 10.4893C79.1442 9.7223 79.6854 9.12571 80.38 8.69957C81.0746 8.26918 81.8906 8.05398 82.8281 8.05398C83.4332 8.05398 84.0043 8.15199 84.5412 8.34801C85.0824 8.53977 85.5597 8.83807 85.973 9.2429C86.3906 9.64773 86.7188 10.1634 86.9574 10.7898C87.196 11.4119 87.3153 12.1534 87.3153 13.0142V13.7237H79.2678V12.1641H85.0973C85.093 11.7209 84.9972 11.3267 84.8097 10.9815C84.6222 10.6321 84.3601 10.3572 84.0234 10.157C83.6911 9.95668 83.3033 9.85653 82.8601 9.85653C82.3871 9.85653 81.9716 9.97159 81.6136 10.2017C81.2557 10.4276 80.9766 10.7259 80.7763 11.0966C80.5803 11.4631 80.4801 11.8658 80.4759 12.3047V13.6662C80.4759 14.2372 80.5803 14.7273 80.7891 15.1364C80.9979 15.5412 81.2898 15.8523 81.6648 16.0696C82.0398 16.2827 82.4787 16.3892 82.9815 16.3892C83.3182 16.3892 83.6229 16.3423 83.8956 16.2486C84.1683 16.1506 84.4048 16.0078 84.6051 15.8203C84.8054 15.6328 84.9567 15.4006 85.0589 15.1236L87.2195 15.3665C87.0831 15.9375 86.8232 16.4361 86.4396 16.8622C86.0604 17.2841 85.5746 17.6122 84.9822 17.8466C84.3899 18.0767 83.7124 18.1918 82.9496 18.1918ZM98.6404 8.18182V9.97159H92.9963V8.18182H98.6404ZM94.3897 5.82955H96.7037V15.0469C96.7037 15.358 96.7505 15.5966 96.8443 15.7628C96.9423 15.9247 97.0701 16.0355 97.2278 16.0952C97.3855 16.1548 97.5602 16.1847 97.752 16.1847C97.8968 16.1847 98.0289 16.174 98.1483 16.1527C98.2718 16.1314 98.3656 16.1122 98.4295 16.0952L98.8194 17.9041C98.6958 17.9467 98.519 17.9936 98.2889 18.0447C98.063 18.0959 97.786 18.1257 97.4579 18.1342C96.8784 18.1513 96.3564 18.0639 95.8919 17.8722C95.4274 17.6761 95.0588 17.3736 94.786 16.9645C94.5176 16.5554 94.3855 16.044 94.3897 15.4304V5.82955ZM104.753 18.1918C103.794 18.1918 102.963 17.9808 102.26 17.5589C101.557 17.1371 101.011 16.5469 100.624 15.7884C100.24 15.0298 100.048 14.1435 100.048 13.1293C100.048 12.1151 100.24 11.2266 100.624 10.4638C101.011 9.70099 101.557 9.10866 102.26 8.68679C102.963 8.26491 103.794 8.05398 104.753 8.05398C105.712 8.05398 106.543 8.26491 107.246 8.68679C107.949 9.10866 108.492 9.70099 108.876 10.4638C109.263 11.2266 109.457 12.1151 109.457 13.1293C109.457 14.1435 109.263 15.0298 108.876 15.7884C108.492 16.5469 107.949 17.1371 107.246 17.5589C106.543 17.9808 105.712 18.1918 104.753 18.1918ZM104.766 16.3381C105.286 16.3381 105.72 16.1953 106.07 15.9098C106.419 15.62 106.679 15.2322 106.849 14.7464C107.024 14.2607 107.112 13.7195 107.112 13.1229C107.112 12.522 107.024 11.9787 106.849 11.4929C106.679 11.0028 106.419 10.6129 106.07 10.3232C105.72 10.0334 105.286 9.88849 104.766 9.88849C104.233 9.88849 103.79 10.0334 103.436 10.3232C103.087 10.6129 102.825 11.0028 102.65 11.4929C102.479 11.9787 102.394 12.522 102.394 13.1229C102.394 13.7195 102.479 14.2607 102.65 14.7464C102.825 15.2322 103.087 15.62 103.436 15.9098C103.79 16.1953 104.233 16.3381 104.766 16.3381ZM120.169 18.1918C119.21 18.1918 118.379 17.9808 117.676 17.5589C116.973 17.1371 116.427 16.5469 116.04 15.7884C115.656 15.0298 115.464 14.1435 115.464 13.1293C115.464 12.1151 115.656 11.2266 116.04 10.4638C116.427 9.70099 116.973 9.10866 117.676 8.68679C118.379 8.26491 119.21 8.05398 120.169 8.05398C121.128 8.05398 121.959 8.26491 122.662 8.68679C123.365 9.10866 123.908 9.70099 124.292 10.4638C124.68 11.2266 124.873 12.1151 124.873 13.1293C124.873 14.1435 124.68 15.0298 124.292 15.7884C123.908 16.5469 123.365 17.1371 122.662 17.5589C121.959 17.9808 121.128 18.1918 120.169 18.1918ZM120.182 16.3381C120.702 16.3381 121.136 16.1953 121.486 15.9098C121.835 15.62 122.095 15.2322 122.265 14.7464C122.44 14.2607 122.528 13.7195 122.528 13.1229C122.528 12.522 122.44 11.9787 122.265 11.4929C122.095 11.0028 121.835 10.6129 121.486 10.3232C121.136 10.0334 120.702 9.88849 120.182 9.88849C119.649 9.88849 119.206 10.0334 118.852 10.3232C118.503 10.6129 118.241 11.0028 118.066 11.4929C117.895 11.9787 117.81 12.522 117.81 13.1229C117.81 13.7195 117.895 14.2607 118.066 14.7464C118.241 15.2322 118.503 15.62 118.852 15.9098C119.206 16.1953 119.649 16.3381 120.182 16.3381ZM133.095 13.8707V8.18182H135.409V18H133.165V16.255H133.063C132.842 16.8047 132.477 17.2543 131.97 17.6037C131.467 17.9531 130.847 18.1278 130.11 18.1278C129.467 18.1278 128.898 17.9851 128.403 17.6996C127.913 17.4098 127.53 16.9901 127.253 16.4403C126.976 15.8864 126.837 15.2173 126.837 14.4332V8.18182H129.151V14.0753C129.151 14.6974 129.322 15.1918 129.663 15.5582C130.004 15.9247 130.451 16.108 131.005 16.108C131.346 16.108 131.676 16.0249 131.996 15.8587C132.315 15.6925 132.577 15.4453 132.782 15.1172C132.991 14.7848 133.095 14.3693 133.095 13.8707ZM137.789 18V8.18182H140.032V9.81818H140.134C140.313 9.25142 140.62 8.81463 141.055 8.50781C141.494 8.19673 141.994 8.04119 142.557 8.04119C142.685 8.04119 142.828 8.04758 142.985 8.06037C143.147 8.06889 143.281 8.08381 143.388 8.10511V10.2337C143.29 10.1996 143.134 10.1697 142.921 10.1442C142.713 10.1143 142.51 10.0994 142.314 10.0994C141.892 10.0994 141.513 10.1911 141.176 10.3743C140.844 10.5533 140.582 10.8026 140.39 11.1222C140.198 11.4418 140.102 11.8104 140.102 12.228V18H137.789ZM151.704 12.2472V18H149.39V8.18182H151.602V9.85014H151.717C151.943 9.30043 152.303 8.86364 152.797 8.53977C153.296 8.21591 153.911 8.05398 154.644 8.05398C155.322 8.05398 155.912 8.19886 156.415 8.48864C156.922 8.77841 157.314 9.19815 157.591 9.74787C157.872 10.2976 158.011 10.9645 158.007 11.7486V18H155.693V12.1065C155.693 11.4503 155.522 10.9368 155.181 10.5661C154.845 10.1953 154.378 10.0099 153.781 10.0099C153.377 10.0099 153.017 10.0994 152.701 10.2784C152.39 10.4531 152.145 10.7067 151.966 11.0391C151.791 11.3714 151.704 11.7741 151.704 12.2472ZM164.705 18.1918C163.721 18.1918 162.871 17.9872 162.155 17.5781C161.443 17.1648 160.896 16.581 160.512 15.8267C160.129 15.0682 159.937 14.1754 159.937 13.1484C159.937 12.1385 160.129 11.2521 160.512 10.4893C160.9 9.7223 161.441 9.12571 162.136 8.69957C162.83 8.26918 163.646 8.05398 164.584 8.05398C165.189 8.05398 165.76 8.15199 166.297 8.34801C166.838 8.53977 167.316 8.83807 167.729 9.2429C168.146 9.64773 168.475 10.1634 168.713 10.7898C168.952 11.4119 169.071 12.1534 169.071 13.0142V13.7237H161.024V12.1641H166.853C166.849 11.7209 166.753 11.3267 166.566 10.9815C166.378 10.6321 166.116 10.3572 165.779 10.157C165.447 9.95668 165.059 9.85653 164.616 9.85653C164.143 9.85653 163.727 9.97159 163.369 10.2017C163.012 10.4276 162.732 10.7259 162.532 11.0966C162.336 11.4631 162.236 11.8658 162.232 12.3047V13.6662C162.232 14.2372 162.336 14.7273 162.545 15.1364C162.754 15.5412 163.046 15.8523 163.421 16.0696C163.796 16.2827 164.235 16.3892 164.737 16.3892C165.074 16.3892 165.379 16.3423 165.651 16.2486C165.924 16.1506 166.161 16.0078 166.361 15.8203C166.561 15.6328 166.713 15.4006 166.815 15.1236L168.975 15.3665C168.839 15.9375 168.579 16.4361 168.195 16.8622C167.816 17.2841 167.33 17.6122 166.738 17.8466C166.146 18.0767 165.468 18.1918 164.705 18.1918ZM173.002 18L170.228 8.18182H172.587L174.313 15.0852H174.402L176.166 8.18182H178.499L180.264 15.0469H180.36L182.06 8.18182H184.425L181.644 18H179.235L177.394 11.3651H177.259L175.419 18H173.002ZM193.8 10.777L191.691 11.0071C191.631 10.794 191.527 10.5938 191.378 10.4062C191.233 10.2188 191.037 10.0675 190.79 9.95241C190.543 9.83736 190.24 9.77983 189.882 9.77983C189.401 9.77983 188.996 9.88423 188.668 10.093C188.344 10.3018 188.184 10.5724 188.188 10.9048C188.184 11.1903 188.288 11.4226 188.501 11.6016C188.719 11.7805 189.077 11.9276 189.575 12.0426L191.25 12.4006C192.179 12.6009 192.869 12.9183 193.321 13.353C193.777 13.7876 194.007 14.3565 194.011 15.0597C194.007 15.6776 193.826 16.223 193.468 16.696C193.114 17.1648 192.622 17.5312 191.991 17.7955C191.361 18.0597 190.636 18.1918 189.818 18.1918C188.616 18.1918 187.649 17.9403 186.916 17.4375C186.183 16.9304 185.746 16.2251 185.606 15.3217L187.862 15.1044C187.964 15.5476 188.182 15.8821 188.514 16.108C188.847 16.3338 189.279 16.4467 189.812 16.4467C190.362 16.4467 190.803 16.3338 191.135 16.108C191.472 15.8821 191.64 15.603 191.64 15.2706C191.64 14.9893 191.531 14.7571 191.314 14.5739C191.101 14.3906 190.768 14.25 190.317 14.152L188.642 13.8004C187.7 13.6044 187.004 13.2741 186.552 12.8097C186.1 12.3409 185.876 11.7486 185.881 11.0327C185.876 10.4276 186.04 9.90341 186.373 9.46023C186.71 9.01278 187.176 8.66761 187.773 8.42472C188.374 8.17756 189.066 8.05398 189.85 8.05398C191.001 8.05398 191.906 8.29901 192.567 8.78906C193.232 9.27912 193.643 9.94176 193.8 10.777ZM198.233 4.90909V18H195.919V4.90909H198.233ZM204.959 18.1918C203.975 18.1918 203.125 17.9872 202.409 17.5781C201.697 17.1648 201.15 16.581 200.766 15.8267C200.383 15.0682 200.191 14.1754 200.191 13.1484C200.191 12.1385 200.383 11.2521 200.766 10.4893C201.154 9.7223 201.695 9.12571 202.39 8.69957C203.084 8.26918 203.9 8.05398 204.838 8.05398C205.443 8.05398 206.014 8.15199 206.551 8.34801C207.092 8.53977 207.569 8.83807 207.983 9.2429C208.4 9.64773 208.729 10.1634 208.967 10.7898C209.206 11.4119 209.325 12.1534 209.325 13.0142V13.7237H201.278V12.1641H207.107C207.103 11.7209 207.007 11.3267 206.819 10.9815C206.632 10.6321 206.37 10.3572 206.033 10.157C205.701 9.95668 205.313 9.85653 204.87 9.85653C204.397 9.85653 203.981 9.97159 203.623 10.2017C203.265 10.4276 202.986 10.7259 202.786 11.0966C202.59 11.4631 202.49 11.8658 202.486 12.3047V13.6662C202.486 14.2372 202.59 14.7273 202.799 15.1364C203.008 15.5412 203.3 15.8523 203.675 16.0696C204.05 16.2827 204.488 16.3892 204.991 16.3892C205.328 16.3892 205.633 16.3423 205.905 16.2486C206.178 16.1506 206.415 16.0078 206.615 15.8203C206.815 15.6328 206.966 15.4006 207.069 15.1236L209.229 15.3665C209.093 15.9375 208.833 16.4361 208.449 16.8622C208.07 17.2841 207.584 17.6122 206.992 17.8466C206.4 18.0767 205.722 18.1918 204.959 18.1918ZM216.185 8.18182V9.97159H210.541V8.18182H216.185ZM211.935 5.82955H214.249V15.0469C214.249 15.358 214.295 15.5966 214.389 15.7628C214.487 15.9247 214.615 16.0355 214.773 16.0952C214.93 16.1548 215.105 16.1847 215.297 16.1847C215.442 16.1847 215.574 16.174 215.693 16.1527C215.817 16.1314 215.911 16.1122 215.974 16.0952L216.364 17.9041C216.241 17.9467 216.064 17.9936 215.834 18.0447C215.608 18.0959 215.331 18.1257 215.003 18.1342C214.423 18.1513 213.901 18.0639 213.437 17.8722C212.972 17.6761 212.604 17.3736 212.331 16.9645C212.063 16.5554 211.93 16.044 211.935 15.4304V5.82955ZM223.023 8.18182V9.97159H217.379V8.18182H223.023ZM218.773 5.82955H221.086V15.0469C221.086 15.358 221.133 15.5966 221.227 15.7628C221.325 15.9247 221.453 16.0355 221.611 16.0952C221.768 16.1548 221.943 16.1847 222.135 16.1847C222.28 16.1847 222.412 16.174 222.531 16.1527C222.655 16.1314 222.748 16.1122 222.812 16.0952L223.202 17.9041C223.079 17.9467 222.902 17.9936 222.672 18.0447C222.446 18.0959 222.169 18.1257 221.841 18.1342C221.261 18.1513 220.739 18.0639 220.275 17.8722C219.81 17.6761 219.442 17.3736 219.169 16.9645C218.9 16.5554 218.768 16.044 218.773 15.4304V5.82955ZM229.2 18.1918C228.215 18.1918 227.365 17.9872 226.649 17.5781C225.938 17.1648 225.39 16.581 225.006 15.8267C224.623 15.0682 224.431 14.1754 224.431 13.1484C224.431 12.1385 224.623 11.2521 225.006 10.4893C225.394 9.7223 225.935 9.12571 226.63 8.69957C227.325 8.26918 228.141 8.05398 229.078 8.05398C229.683 8.05398 230.254 8.15199 230.791 8.34801C231.332 8.53977 231.81 8.83807 232.223 9.2429C232.641 9.64773 232.969 10.1634 233.207 10.7898C233.446 11.4119 233.565 12.1534 233.565 13.0142V13.7237H225.518V12.1641H231.347C231.343 11.7209 231.247 11.3267 231.06 10.9815C230.872 10.6321 230.61 10.3572 230.273 10.157C229.941 9.95668 229.553 9.85653 229.11 9.85653C228.637 9.85653 228.222 9.97159 227.864 10.2017C227.506 10.4276 227.227 10.7259 227.026 11.0966C226.83 11.4631 226.73 11.8658 226.726 12.3047V13.6662C226.726 14.2372 226.83 14.7273 227.039 15.1364C227.248 15.5412 227.54 15.8523 227.915 16.0696C228.29 16.2827 228.729 16.3892 229.232 16.3892C229.568 16.3892 229.873 16.3423 230.146 16.2486C230.418 16.1506 230.655 16.0078 230.855 15.8203C231.055 15.6328 231.207 15.4006 231.309 15.1236L233.469 15.3665C233.333 15.9375 233.073 16.4361 232.69 16.8622C232.31 17.2841 231.825 17.6122 231.232 17.8466C230.64 18.0767 229.962 18.1918 229.2 18.1918ZM235.523 18V8.18182H237.767V9.81818H237.869C238.048 9.25142 238.355 8.81463 238.789 8.50781C239.228 8.19673 239.729 8.04119 240.291 8.04119C240.419 8.04119 240.562 8.04758 240.72 8.06037C240.882 8.06889 241.016 8.08381 241.122 8.10511V10.2337C241.024 10.1996 240.869 10.1697 240.656 10.1442C240.447 10.1143 240.244 10.0994 240.048 10.0994C239.627 10.0994 239.247 10.1911 238.911 10.3743C238.578 10.5533 238.316 10.8026 238.124 11.1222C237.933 11.4418 237.837 11.8104 237.837 12.228V18H235.523Z" fill="white"/>
<rect y="38" width="320" height="48" rx="8" fill="#221E5C"/>
<path d="M22.8011 60.3636C22.7415 59.8598 22.4995 59.4688 22.0753 59.1903C21.651 58.9119 21.1307 58.7727 20.5142 58.7727C20.0634 58.7727 19.669 58.8456 19.331 58.9915C18.9962 59.1373 18.7344 59.3378 18.5455 59.593C18.3598 59.8482 18.267 60.1383 18.267 60.4631C18.267 60.7348 18.3317 60.9685 18.4609 61.1641C18.5935 61.3563 18.7625 61.517 18.968 61.6463C19.1735 61.7723 19.389 61.8767 19.6143 61.9595C19.8397 62.0391 20.0469 62.1037 20.2358 62.1534L21.2699 62.4318C21.535 62.5014 21.83 62.5975 22.1548 62.7202C22.483 62.8428 22.7962 63.0102 23.0945 63.2223C23.3961 63.4311 23.6446 63.6996 23.8402 64.0277C24.0357 64.3558 24.1335 64.7585 24.1335 65.2358C24.1335 65.786 23.9893 66.2831 23.701 66.7273C23.416 67.1714 22.9983 67.5244 22.4482 67.7862C21.9013 68.0481 21.2367 68.179 20.4545 68.179C19.7254 68.179 19.094 68.0613 18.5604 67.826C18.0301 67.5907 17.6125 67.2625 17.3075 66.8416C17.0059 66.4207 16.8352 65.9318 16.7955 65.375H18.0682C18.1013 65.7595 18.2306 66.0777 18.456 66.3295C18.6847 66.5781 18.973 66.7637 19.321 66.8864C19.6723 67.0057 20.0502 67.0653 20.4545 67.0653C20.9252 67.0653 21.3478 66.9891 21.7223 66.8366C22.0968 66.6809 22.3935 66.4654 22.6122 66.1903C22.831 65.9119 22.9403 65.5871 22.9403 65.2159C22.9403 64.8778 22.8459 64.6027 22.657 64.3906C22.468 64.1785 22.2195 64.0062 21.9112 63.8736C21.603 63.741 21.2699 63.625 20.9119 63.5256L19.6591 63.1676C18.8636 62.9389 18.2339 62.6125 17.7699 62.1882C17.3059 61.764 17.0739 61.2088 17.0739 60.5227C17.0739 59.9527 17.228 59.4555 17.5362 59.0312C17.8478 58.6037 18.2654 58.2723 18.7891 58.0369C19.3161 57.7983 19.9044 57.679 20.554 57.679C21.2102 57.679 21.7936 57.7966 22.304 58.032C22.8144 58.264 23.2188 58.5821 23.517 58.9865C23.8187 59.3909 23.9777 59.8499 23.9943 60.3636H22.8011ZM30.8141 64.8778V60.3636H31.9874V68H30.8141V66.7074H30.7346C30.5556 67.0952 30.2772 67.425 29.8993 67.6967C29.5215 67.9652 29.0442 68.0994 28.4675 68.0994C27.9902 68.0994 27.566 67.995 27.1948 67.7862C26.8236 67.5741 26.5319 67.2559 26.3198 66.8317C26.1077 66.4041 26.0016 65.8655 26.0016 65.2159V60.3636H27.1749V65.1364C27.1749 65.6932 27.3307 66.1373 27.6422 66.4688C27.9571 66.8002 28.3581 66.9659 28.8453 66.9659C29.137 66.9659 29.4337 66.8913 29.7353 66.7422C30.0402 66.593 30.2954 66.3643 30.5009 66.0561C30.7097 65.7479 30.8141 65.3551 30.8141 64.8778ZM34.2955 68V57.8182H35.4688V61.5767H35.5682C35.6544 61.4441 35.7737 61.2751 35.9261 61.0696C36.0819 60.8608 36.304 60.6752 36.5923 60.5128C36.884 60.3471 37.2784 60.2642 37.7756 60.2642C38.4186 60.2642 38.9853 60.425 39.4759 60.7464C39.9664 61.0679 40.3492 61.5237 40.6243 62.1136C40.8994 62.7036 41.0369 63.3996 41.0369 64.2017C41.0369 65.0104 40.8994 65.7114 40.6243 66.3047C40.3492 66.8946 39.968 67.352 39.4808 67.6768C38.9936 67.9983 38.4318 68.1591 37.7955 68.1591C37.3049 68.1591 36.9122 68.0779 36.6172 67.9155C36.3222 67.7498 36.0952 67.5625 35.9361 67.3537C35.777 67.1416 35.6544 66.9659 35.5682 66.8267H35.429V68H34.2955ZM35.4489 64.1818C35.4489 64.7585 35.5334 65.2673 35.7024 65.7081C35.8714 66.1456 36.1184 66.4886 36.4432 66.7372C36.768 66.9825 37.1657 67.1051 37.6364 67.1051C38.1269 67.1051 38.5362 66.9759 38.8643 66.7173C39.1958 66.4555 39.4444 66.1042 39.6101 65.6634C39.7791 65.2192 39.8636 64.7254 39.8636 64.1818C39.8636 63.6449 39.7808 63.161 39.6151 62.7301C39.4527 62.2959 39.2057 61.9529 38.8743 61.701C38.5462 61.4458 38.1335 61.3182 37.6364 61.3182C37.1591 61.3182 36.758 61.4392 36.4332 61.6811C36.1084 61.9197 35.8632 62.2545 35.6974 62.6854C35.5317 63.1129 35.4489 63.6117 35.4489 64.1818ZM45.9339 68.1591C45.218 68.1591 44.6016 67.9901 44.0845 67.652C43.5675 67.3139 43.1697 66.8482 42.8913 66.255C42.6129 65.6617 42.4737 64.9839 42.4737 64.2216C42.4737 63.446 42.6162 62.7616 42.9013 62.1683C43.1896 61.5717 43.5907 61.1061 44.1044 60.7713C44.6214 60.4332 45.2247 60.2642 45.9141 60.2642C46.451 60.2642 46.9349 60.3636 47.3658 60.5625C47.7966 60.7614 48.1496 61.0398 48.4247 61.3977C48.6998 61.7557 48.8705 62.1733 48.9368 62.6506H47.7635C47.674 62.3026 47.4751 61.9943 47.1669 61.7259C46.862 61.4541 46.451 61.3182 45.9339 61.3182C45.4766 61.3182 45.0755 61.4375 44.7308 61.6761C44.3894 61.9115 44.1226 62.2446 43.9304 62.6754C43.7415 63.103 43.647 63.6051 43.647 64.1818C43.647 64.7718 43.7398 65.2855 43.9254 65.723C44.1143 66.1605 44.3795 66.5002 44.7209 66.7422C45.0656 66.9841 45.4699 67.1051 45.9339 67.1051C46.2389 67.1051 46.5156 67.0521 46.7642 66.946C47.0128 66.84 47.2232 66.6875 47.3956 66.4886C47.5679 66.2898 47.6906 66.0511 47.7635 65.7727H48.9368C48.8705 66.2235 48.7064 66.6295 48.4446 66.9908C48.1861 67.3487 47.843 67.6338 47.4155 67.8459C46.9912 68.0547 46.4974 68.1591 45.9339 68.1591ZM50.652 68V60.3636H51.7855V61.517H51.8651C52.0043 61.1392 52.2562 60.8326 52.6207 60.5973C52.9853 60.362 53.3963 60.2443 53.8537 60.2443C53.9399 60.2443 54.0476 60.246 54.1768 60.2493C54.3061 60.2526 54.4039 60.2576 54.4702 60.2642V61.4574C54.4304 61.4474 54.3393 61.4325 54.1967 61.4126C54.0575 61.3894 53.91 61.3778 53.7543 61.3778C53.383 61.3778 53.0516 61.4557 52.7599 61.6115C52.4716 61.764 52.2429 61.9761 52.0739 62.2479C51.9081 62.5163 51.8253 62.8229 51.8253 63.1676V68H50.652ZM55.861 68V60.3636H57.0343V68H55.861ZM56.4576 59.0909C56.2289 59.0909 56.0317 59.013 55.8659 58.8572C55.7035 58.7015 55.6223 58.5142 55.6223 58.2955C55.6223 58.0767 55.7035 57.8894 55.8659 57.7337C56.0317 57.5779 56.2289 57.5 56.4576 57.5C56.6863 57.5 56.8818 57.5779 57.0442 57.7337C57.2099 57.8894 57.2928 58.0767 57.2928 58.2955C57.2928 58.5142 57.2099 58.7015 57.0442 58.8572C56.8818 59.013 56.6863 59.0909 56.4576 59.0909ZM59.3423 68V57.8182H60.5156V61.5767H60.6151C60.7012 61.4441 60.8205 61.2751 60.973 61.0696C61.1288 60.8608 61.3509 60.6752 61.6392 60.5128C61.9309 60.3471 62.3253 60.2642 62.8224 60.2642C63.4654 60.2642 64.0322 60.425 64.5227 60.7464C65.0133 61.0679 65.3961 61.5237 65.6712 62.1136C65.9463 62.7036 66.0838 63.3996 66.0838 64.2017C66.0838 65.0104 65.9463 65.7114 65.6712 66.3047C65.3961 66.8946 65.0149 67.352 64.5277 67.6768C64.0405 67.9983 63.4787 68.1591 62.8423 68.1591C62.3518 68.1591 61.959 68.0779 61.6641 67.9155C61.3691 67.7498 61.142 67.5625 60.983 67.3537C60.8239 67.1416 60.7012 66.9659 60.6151 66.8267H60.4759V68H59.3423ZM60.4957 64.1818C60.4957 64.7585 60.5803 65.2673 60.7493 65.7081C60.9183 66.1456 61.1652 66.4886 61.4901 66.7372C61.8149 66.9825 62.2126 67.1051 62.6832 67.1051C63.1738 67.1051 63.5831 66.9759 63.9112 66.7173C64.2427 66.4555 64.4912 66.1042 64.657 65.6634C64.826 65.2192 64.9105 64.7254 64.9105 64.1818C64.9105 63.6449 64.8277 63.161 64.6619 62.7301C64.4995 62.2959 64.2526 61.9529 63.9212 61.701C63.593 61.4458 63.1804 61.3182 62.6832 61.3182C62.206 61.3182 61.8049 61.4392 61.4801 61.6811C61.1553 61.9197 60.91 62.2545 60.7443 62.6854C60.5786 63.1129 60.4957 63.6117 60.4957 64.1818ZM71.0803 68.1591C70.3445 68.1591 69.7098 67.9967 69.1761 67.6719C68.6458 67.3438 68.2365 66.8864 67.9482 66.2997C67.6631 65.7098 67.5206 65.0237 67.5206 64.2415C67.5206 63.4593 67.6631 62.7699 67.9482 62.1733C68.2365 61.5734 68.6375 61.1061 69.1513 60.7713C69.6683 60.4332 70.2715 60.2642 70.9609 60.2642C71.3587 60.2642 71.7514 60.3305 72.1392 60.4631C72.527 60.5956 72.88 60.8111 73.1982 61.1094C73.5163 61.4044 73.7699 61.7955 73.9588 62.2827C74.1477 62.7699 74.2422 63.3698 74.2422 64.0824V64.5795H68.3558V63.5653H73.049C73.049 63.1345 72.9628 62.75 72.7905 62.4119C72.6214 62.0739 72.3795 61.8071 72.0646 61.6115C71.7531 61.416 71.3852 61.3182 70.9609 61.3182C70.4936 61.3182 70.0893 61.4342 69.7479 61.6662C69.4098 61.8949 69.1496 62.1932 68.9673 62.5611C68.785 62.929 68.6939 63.3234 68.6939 63.7443V64.4205C68.6939 64.9972 68.7933 65.486 68.9922 65.8871C69.1944 66.2848 69.4744 66.5881 69.8324 66.7969C70.1903 67.0024 70.6063 67.1051 71.0803 67.1051C71.3885 67.1051 71.6669 67.062 71.9155 66.9759C72.1674 66.8864 72.3845 66.7538 72.5668 66.5781C72.7491 66.3991 72.8899 66.1771 72.9893 65.9119L74.1229 66.2301C74.0036 66.6146 73.803 66.9527 73.5213 67.2443C73.2396 67.5327 72.8916 67.758 72.4773 67.9205C72.063 68.0795 71.5973 68.1591 71.0803 68.1591ZM83.2855 60.3636V61.358H79.3281V60.3636H83.2855ZM80.4815 58.5341H81.6548V65.8125C81.6548 66.1439 81.7029 66.3925 81.799 66.5582C81.8984 66.7206 82.0244 66.83 82.1768 66.8864C82.3326 66.9394 82.4967 66.9659 82.669 66.9659C82.7983 66.9659 82.9044 66.9593 82.9872 66.946C83.0701 66.9295 83.1364 66.9162 83.1861 66.9062L83.4247 67.9602C83.3452 67.9901 83.2341 68.0199 83.0916 68.0497C82.9491 68.0829 82.7685 68.0994 82.5497 68.0994C82.2183 68.0994 81.8935 68.0282 81.5753 67.8857C81.2604 67.7431 80.9986 67.526 80.7898 67.2344C80.5843 66.9427 80.4815 66.5748 80.4815 66.1307V58.5341ZM88.0707 68.1591C87.3813 68.1591 86.7764 67.995 86.256 67.6669C85.739 67.3388 85.3346 66.8797 85.043 66.2898C84.7546 65.6998 84.6104 65.0104 84.6104 64.2216C84.6104 63.4261 84.7546 62.7318 85.043 62.1385C85.3346 61.5452 85.739 61.0845 86.256 60.7564C86.7764 60.4283 87.3813 60.2642 88.0707 60.2642C88.7601 60.2642 89.3633 60.4283 89.8803 60.7564C90.4007 61.0845 90.805 61.5452 91.0934 62.1385C91.3851 62.7318 91.5309 63.4261 91.5309 64.2216C91.5309 65.0104 91.3851 65.6998 91.0934 66.2898C90.805 66.8797 90.4007 67.3388 89.8803 67.6669C89.3633 67.995 88.7601 68.1591 88.0707 68.1591ZM88.0707 67.1051C88.5943 67.1051 89.0252 66.9709 89.3633 66.7024C89.7013 66.4339 89.9516 66.081 90.114 65.6435C90.2764 65.206 90.3576 64.732 90.3576 64.2216C90.3576 63.7112 90.2764 63.2356 90.114 62.7947C89.9516 62.3539 89.7013 61.9976 89.3633 61.7259C89.0252 61.4541 88.5943 61.3182 88.0707 61.3182C87.547 61.3182 87.1161 61.4541 86.7781 61.7259C86.44 61.9976 86.1897 62.3539 86.0273 62.7947C85.8649 63.2356 85.7837 63.7112 85.7837 64.2216C85.7837 64.732 85.8649 65.206 86.0273 65.6435C86.1897 66.081 86.44 66.4339 86.7781 66.7024C87.1161 66.9709 87.547 67.1051 88.0707 67.1051ZM100.362 68.1591C99.6723 68.1591 99.0674 67.995 98.5471 67.6669C98.03 67.3388 97.6257 66.8797 97.334 66.2898C97.0456 65.6998 96.9015 65.0104 96.9015 64.2216C96.9015 63.4261 97.0456 62.7318 97.334 62.1385C97.6257 61.5452 98.03 61.0845 98.5471 60.7564C99.0674 60.4283 99.6723 60.2642 100.362 60.2642C101.051 60.2642 101.654 60.4283 102.171 60.7564C102.692 61.0845 103.096 61.5452 103.384 62.1385C103.676 62.7318 103.822 63.4261 103.822 64.2216C103.822 65.0104 103.676 65.6998 103.384 66.2898C103.096 66.8797 102.692 67.3388 102.171 67.6669C101.654 67.995 101.051 68.1591 100.362 68.1591ZM100.362 67.1051C100.885 67.1051 101.316 66.9709 101.654 66.7024C101.992 66.4339 102.243 66.081 102.405 65.6435C102.567 65.206 102.649 64.732 102.649 64.2216C102.649 63.7112 102.567 63.2356 102.405 62.7947C102.243 62.3539 101.992 61.9976 101.654 61.7259C101.316 61.4541 100.885 61.3182 100.362 61.3182C99.838 61.3182 99.4071 61.4541 99.0691 61.7259C98.731 61.9976 98.4808 62.3539 98.3184 62.7947C98.156 63.2356 98.0748 63.7112 98.0748 64.2216C98.0748 64.732 98.156 65.206 98.3184 65.6435C98.4808 66.081 98.731 66.4339 99.0691 66.7024C99.4071 66.9709 99.838 67.1051 100.362 67.1051ZM110.425 64.8778V60.3636H111.599V68H110.425V66.7074H110.346C110.167 67.0952 109.888 67.425 109.511 67.6967C109.133 67.9652 108.656 68.0994 108.079 68.0994C107.602 68.0994 107.177 67.995 106.806 67.7862C106.435 67.5741 106.143 67.2559 105.931 66.8317C105.719 66.4041 105.613 65.8655 105.613 65.2159V60.3636H106.786V65.1364C106.786 65.6932 106.942 66.1373 107.254 66.4688C107.568 66.8002 107.969 66.9659 108.457 66.9659C108.748 66.9659 109.045 66.8913 109.347 66.7422C109.652 66.593 109.907 66.3643 110.112 66.0561C110.321 65.7479 110.425 65.3551 110.425 64.8778ZM113.748 68V60.3636H114.881V61.517H114.961C115.1 61.1392 115.352 60.8326 115.716 60.5973C116.081 60.362 116.492 60.2443 116.949 60.2443C117.036 60.2443 117.143 60.246 117.273 60.2493C117.402 60.2526 117.5 60.2576 117.566 60.2642V61.4574C117.526 61.4474 117.435 61.4325 117.292 61.4126C117.153 61.3894 117.006 61.3778 116.85 61.3778C116.479 61.3778 116.147 61.4557 115.856 61.6115C115.567 61.764 115.339 61.9761 115.17 62.2479C115.004 62.5163 114.921 62.8229 114.921 63.1676V68H113.748ZM124.067 63.4062V68H122.894V60.3636H124.028V61.5568H124.127C124.306 61.169 124.578 60.8575 124.942 60.6222C125.307 60.3835 125.778 60.2642 126.354 60.2642C126.871 60.2642 127.324 60.3703 127.712 60.5824C128.099 60.7912 128.401 61.1094 128.616 61.5369C128.832 61.9612 128.94 62.4981 128.94 63.1477V68H127.766V63.2273C127.766 62.6274 127.611 62.16 127.299 61.8253C126.987 61.4872 126.56 61.3182 126.016 61.3182C125.642 61.3182 125.307 61.3994 125.012 61.5618C124.72 61.7242 124.49 61.9612 124.321 62.2727C124.152 62.5843 124.067 62.9621 124.067 63.4062ZM134.285 68.1591C133.55 68.1591 132.915 67.9967 132.381 67.6719C131.851 67.3438 131.442 66.8864 131.153 66.2997C130.868 65.7098 130.726 65.0237 130.726 64.2415C130.726 63.4593 130.868 62.7699 131.153 62.1733C131.442 61.5734 131.843 61.1061 132.356 60.7713C132.873 60.4332 133.477 60.2642 134.166 60.2642C134.564 60.2642 134.956 60.3305 135.344 60.4631C135.732 60.5956 136.085 60.8111 136.403 61.1094C136.721 61.4044 136.975 61.7955 137.164 62.2827C137.353 62.7699 137.447 63.3698 137.447 64.0824V64.5795H131.561V63.5653H136.254C136.254 63.1345 136.168 62.75 135.996 62.4119C135.827 62.0739 135.585 61.8071 135.27 61.6115C134.958 61.416 134.59 61.3182 134.166 61.3182C133.699 61.3182 133.294 61.4342 132.953 61.6662C132.615 61.8949 132.355 62.1932 132.172 62.5611C131.99 62.929 131.899 63.3234 131.899 63.7443V64.4205C131.899 64.9972 131.998 65.486 132.197 65.8871C132.399 66.2848 132.68 66.5881 133.037 66.7969C133.395 67.0024 133.811 67.1051 134.285 67.1051C134.594 67.1051 134.872 67.062 135.121 66.9759C135.372 66.8864 135.59 66.7538 135.772 66.5781C135.954 66.3991 136.095 66.1771 136.194 65.9119L137.328 66.2301C137.209 66.6146 137.008 66.9527 136.726 67.2443C136.445 67.5327 136.097 67.758 135.682 67.9205C135.268 68.0795 134.802 68.1591 134.285 68.1591ZM140.962 68L138.635 60.3636H139.868L141.519 66.2102H141.599L143.229 60.3636H144.482L146.093 66.1903H146.172L147.823 60.3636H149.056L146.729 68H145.576L143.905 62.1335H143.786L142.116 68H140.962ZM156.016 62.0739L154.962 62.3722C154.896 62.1965 154.798 62.0258 154.669 61.8601C154.543 61.6911 154.371 61.5518 154.152 61.4425C153.933 61.3331 153.653 61.2784 153.312 61.2784C152.844 61.2784 152.455 61.3861 152.143 61.6016C151.835 61.8137 151.681 62.0838 151.681 62.4119C151.681 62.7036 151.787 62.9339 151.999 63.103C152.211 63.272 152.543 63.4129 152.993 63.5256L154.127 63.804C154.81 63.9697 155.318 64.2232 155.653 64.5646C155.988 64.9027 156.155 65.3385 156.155 65.8722C156.155 66.3097 156.029 66.7008 155.778 67.0455C155.529 67.3902 155.181 67.6619 154.733 67.8608C154.286 68.0597 153.766 68.1591 153.172 68.1591C152.394 68.1591 151.749 67.9901 151.238 67.652C150.728 67.3139 150.405 66.8201 150.269 66.1705L151.383 65.892C151.489 66.303 151.689 66.6113 151.984 66.8168C152.282 67.0223 152.672 67.125 153.153 67.125C153.699 67.125 154.134 67.009 154.455 66.777C154.78 66.5417 154.942 66.2599 154.942 65.9318C154.942 65.6667 154.849 65.4446 154.664 65.2656C154.478 65.0833 154.193 64.9474 153.809 64.858L152.536 64.5597C151.837 64.3939 151.323 64.1371 150.995 63.7891C150.67 63.4377 150.508 62.9986 150.508 62.4716C150.508 62.0407 150.629 61.6596 150.871 61.3281C151.116 60.9967 151.449 60.7365 151.87 60.5476C152.294 60.3587 152.775 60.2642 153.312 60.2642C154.067 60.2642 154.661 60.4299 155.091 60.7614C155.526 61.0928 155.834 61.5303 156.016 62.0739ZM159.095 57.8182V68H157.922V57.8182H159.095ZM164.445 68.1591C163.71 68.1591 163.075 67.9967 162.541 67.6719C162.011 67.3438 161.602 66.8864 161.313 66.2997C161.028 65.7098 160.886 65.0237 160.886 64.2415C160.886 63.4593 161.028 62.7699 161.313 62.1733C161.602 61.5734 162.003 61.1061 162.517 60.7713C163.034 60.4332 163.637 60.2642 164.326 60.2642C164.724 60.2642 165.117 60.3305 165.504 60.4631C165.892 60.5956 166.245 60.8111 166.563 61.1094C166.882 61.4044 167.135 61.7955 167.324 62.2827C167.513 62.7699 167.607 63.3698 167.607 64.0824V64.5795H161.721V63.5653H166.414C166.414 63.1345 166.328 62.75 166.156 62.4119C165.987 62.0739 165.745 61.8071 165.43 61.6115C165.118 61.416 164.75 61.3182 164.326 61.3182C163.859 61.3182 163.454 61.4342 163.113 61.6662C162.775 61.8949 162.515 62.1932 162.333 62.5611C162.15 62.929 162.059 63.3234 162.059 63.7443V64.4205C162.059 64.9972 162.159 65.486 162.357 65.8871C162.56 66.2848 162.84 66.5881 163.198 66.7969C163.556 67.0024 163.972 67.1051 164.445 67.1051C164.754 67.1051 165.032 67.062 165.281 66.9759C165.533 66.8864 165.75 66.7538 165.932 66.5781C166.114 66.3991 166.255 66.1771 166.355 65.9119L167.488 66.2301C167.369 66.6146 167.168 66.9527 166.887 67.2443C166.605 67.5327 166.257 67.758 165.843 67.9205C165.428 68.0795 164.963 68.1591 164.445 68.1591ZM172.713 60.3636V61.358H168.756V60.3636H172.713ZM169.909 58.5341H171.083V65.8125C171.083 66.1439 171.131 66.3925 171.227 66.5582C171.326 66.7206 171.452 66.83 171.605 66.8864C171.76 66.9394 171.924 66.9659 172.097 66.9659C172.226 66.9659 172.332 66.9593 172.415 66.946C172.498 66.9295 172.564 66.9162 172.614 66.9062L172.852 67.9602C172.773 67.9901 172.662 68.0199 172.519 68.0497C172.377 68.0829 172.196 68.0994 171.977 68.0994C171.646 68.0994 171.321 68.0282 171.003 67.8857C170.688 67.7431 170.426 67.526 170.218 67.2344C170.012 66.9427 169.909 66.5748 169.909 66.1307V58.5341ZM177.799 60.3636V61.358H173.842V60.3636H177.799ZM174.995 58.5341H176.169V65.8125C176.169 66.1439 176.217 66.3925 176.313 66.5582C176.412 66.7206 176.538 66.83 176.691 66.8864C176.846 66.9394 177.01 66.9659 177.183 66.9659C177.312 66.9659 177.418 66.9593 177.501 66.946C177.584 66.9295 177.65 66.9162 177.7 66.9062L177.938 67.9602C177.859 67.9901 177.748 68.0199 177.605 68.0497C177.463 68.0829 177.282 68.0994 177.063 68.0994C176.732 68.0994 176.407 68.0282 176.089 67.8857C175.774 67.7431 175.512 67.526 175.303 67.2344C175.098 66.9427 174.995 66.5748 174.995 66.1307V58.5341ZM182.684 68.1591C181.948 68.1591 181.313 67.9967 180.78 67.6719C180.249 67.3438 179.84 66.8864 179.552 66.2997C179.267 65.7098 179.124 65.0237 179.124 64.2415C179.124 63.4593 179.267 62.7699 179.552 62.1733C179.84 61.5734 180.241 61.1061 180.755 60.7713C181.272 60.4332 181.875 60.2642 182.564 60.2642C182.962 60.2642 183.355 60.3305 183.743 60.4631C184.131 60.5956 184.483 60.8111 184.802 61.1094C185.12 61.4044 185.373 61.7955 185.562 62.2827C185.751 62.7699 185.846 63.3698 185.846 64.0824V64.5795H179.959V63.5653H184.653C184.653 63.1345 184.566 62.75 184.394 62.4119C184.225 62.0739 183.983 61.8071 183.668 61.6115C183.357 61.416 182.989 61.3182 182.564 61.3182C182.097 61.3182 181.693 61.4342 181.351 61.6662C181.013 61.8949 180.753 62.1932 180.571 62.5611C180.389 62.929 180.297 63.3234 180.297 63.7443V64.4205C180.297 64.9972 180.397 65.486 180.596 65.8871C180.798 66.2848 181.078 66.5881 181.436 66.7969C181.794 67.0024 182.21 67.1051 182.684 67.1051C182.992 67.1051 183.27 67.062 183.519 66.9759C183.771 66.8864 183.988 66.7538 184.17 66.5781C184.353 66.3991 184.493 66.1771 184.593 65.9119L185.726 66.2301C185.607 66.6146 185.407 66.9527 185.125 67.2443C184.843 67.5327 184.495 67.758 184.081 67.9205C183.666 68.0795 183.201 68.1591 182.684 68.1591ZM187.631 68V60.3636H188.764V61.517H188.844C188.983 61.1392 189.235 60.8326 189.599 60.5973C189.964 60.362 190.375 60.2443 190.832 60.2443C190.918 60.2443 191.026 60.246 191.155 60.2493C191.285 60.2526 191.382 60.2576 191.449 60.2642V61.4574C191.409 61.4474 191.318 61.4325 191.175 61.4126C191.036 61.3894 190.889 61.3778 190.733 61.3778C190.362 61.3778 190.03 61.4557 189.738 61.6115C189.45 61.764 189.221 61.9761 189.052 62.2479C188.887 62.5163 188.804 62.8229 188.804 63.1676V68H187.631Z" fill="#CCCCFF"/>
<path d="M270.021 57.8182H271.851V64.9773C271.848 65.6335 271.708 66.1986 271.433 66.6726C271.158 67.1432 270.774 67.5062 270.28 67.7614C269.789 68.0133 269.218 68.1392 268.565 68.1392C267.968 68.1392 267.431 68.0331 266.954 67.821C266.48 67.6056 266.104 67.2874 265.825 66.8665C265.547 66.4455 265.408 65.9219 265.408 65.2955H267.242C267.246 65.5705 267.305 65.8075 267.421 66.0064C267.54 66.2053 267.705 66.3577 267.913 66.4638C268.122 66.5698 268.362 66.6229 268.634 66.6229C268.929 66.6229 269.179 66.5616 269.385 66.4389C269.59 66.313 269.746 66.1274 269.852 65.8821C269.962 65.6368 270.018 65.3352 270.021 64.9773V57.8182ZM277.103 68.1491C276.358 68.1491 275.711 67.9851 275.164 67.657C274.618 67.3288 274.193 66.8698 273.892 66.2798C273.593 65.6899 273.444 65.0005 273.444 64.2116C273.444 63.4228 273.593 62.7318 273.892 62.1385C274.193 61.5452 274.618 61.0845 275.164 60.7564C275.711 60.4283 276.358 60.2642 277.103 60.2642C277.849 60.2642 278.495 60.4283 279.042 60.7564C279.589 61.0845 280.012 61.5452 280.31 62.1385C280.612 62.7318 280.762 63.4228 280.762 64.2116C280.762 65.0005 280.612 65.6899 280.31 66.2798C280.012 66.8698 279.589 67.3288 279.042 67.657C278.495 67.9851 277.849 68.1491 277.103 68.1491ZM277.113 66.7074C277.518 66.7074 277.856 66.5964 278.127 66.3743C278.399 66.1489 278.601 65.8473 278.734 65.4695C278.87 65.0916 278.938 64.6707 278.938 64.2067C278.938 63.7393 278.87 63.3168 278.734 62.9389C278.601 62.5578 278.399 62.2545 278.127 62.0291C277.856 61.8037 277.518 61.6911 277.113 61.6911C276.699 61.6911 276.354 61.8037 276.079 62.0291C275.807 62.2545 275.604 62.5578 275.468 62.9389C275.335 63.3168 275.269 63.7393 275.269 64.2067C275.269 64.6707 275.335 65.0916 275.468 65.4695C275.604 65.8473 275.807 66.1489 276.079 66.3743C276.354 66.5964 276.699 66.7074 277.113 66.7074ZM282.29 68V60.3636H284.09V68H282.29ZM283.195 59.2798C282.91 59.2798 282.664 59.1854 282.459 58.9964C282.253 58.8042 282.151 58.5739 282.151 58.3054C282.151 58.0336 282.253 57.8033 282.459 57.6143C282.664 57.4221 282.91 57.326 283.195 57.326C283.483 57.326 283.728 57.4221 283.931 57.6143C284.136 57.8033 284.239 58.0336 284.239 58.3054C284.239 58.5739 284.136 58.8042 283.931 58.9964C283.728 59.1854 283.483 59.2798 283.195 59.2798ZM287.74 63.5256V68H285.94V60.3636H287.661V61.6612H287.75C287.926 61.2337 288.206 60.8939 288.59 60.642C288.978 60.3902 289.457 60.2642 290.027 60.2642C290.554 60.2642 291.013 60.3769 291.404 60.6023C291.799 60.8277 292.103 61.1541 292.319 61.5817C292.538 62.0092 292.645 62.5279 292.642 63.1378V68H290.842V63.4162C290.842 62.9058 290.71 62.5064 290.445 62.218C290.183 61.9297 289.82 61.7855 289.356 61.7855C289.041 61.7855 288.761 61.8551 288.516 61.9943C288.274 62.1302 288.083 62.3274 287.944 62.5859C287.808 62.8445 287.74 63.1577 287.74 63.5256Z" fill="white"/>
<path fill-rule="evenodd" clip-rule="evenodd" d="M298.47 68.7803C298.177 68.4874 298.177 68.0126 298.47 67.7197L301.939 64.25L298.47 60.7803C298.177 60.4874 298.177 60.0126 298.47 59.7197C298.763 59.4268 299.237 59.4268 299.53 59.7197L303.53 63.7197C303.671 63.8603 303.75 64.0511 303.75 64.25C303.75 64.4489 303.671 64.6397 303.53 64.7803L299.53 68.7803C299.237 69.0732 298.763 69.0732 298.47 68.7803Z" fill="#E3AA2F"/>
<circle cx="14" cy="116" r="14" fill="#39338F"/>
<path d="M15.7363 114.536L20.5756 109.032H19.4286L15.2279 113.811L11.871 109.032H8L13.0754 116.259L8 122.03H9.14697L13.5839 116.983L17.129 122.03H21L15.7363 114.536ZM14.1659 116.322L13.6517 115.603L9.55989 109.877H11.3214L14.6228 114.498L15.137 115.217L19.4296 121.224H17.668L14.1659 116.322Z" fill="white"/>
<circle cx="54" cy="116" r="14" fill="#39338F"/>
<path d="M52.7087 122.304V116.75H50.8398V114.586H52.7087V112.99C52.7087 111.138 53.84 110.129 55.4924 110.129C56.2839 110.129 56.9642 110.188 57.1624 110.214V112.15L56.0164 112.15C55.1178 112.15 54.9438 112.577 54.9438 113.204V114.586H57.087L56.8079 116.75H54.9438V122.304H52.7087Z" fill="white"/>
<circle cx="94" cy="116" r="14" fill="#39338F"/>
<path d="M94.0008 110.447C95.8095 110.447 96.0237 110.454 96.7382 110.487C97.1678 110.492 97.5933 110.571 97.9962 110.72C98.2884 110.832 98.5538 111.005 98.7753 111.227C98.9967 111.448 99.1694 111.713 99.282 112.006C99.4311 112.409 99.51 112.834 99.5153 113.264C99.5475 113.978 99.5546 114.192 99.5546 116.001C99.5546 117.81 99.5479 118.024 99.5153 118.738C99.51 119.168 99.4311 119.594 99.282 119.997C99.1694 120.289 98.9967 120.554 98.7753 120.776C98.5538 120.997 98.2884 121.17 97.9962 121.282C97.5933 121.431 97.1678 121.51 96.7382 121.516C96.024 121.548 95.8098 121.555 94.0008 121.555C92.1917 121.555 91.9775 121.548 91.2633 121.516C90.8337 121.51 90.4082 121.431 90.0053 121.282C89.7131 121.17 89.4477 120.997 89.2262 120.776C89.0048 120.554 88.8322 120.289 88.7195 119.997C88.5704 119.594 88.4915 119.168 88.4862 118.738C88.454 118.024 88.4469 117.81 88.4469 116.001C88.4469 114.192 88.4537 113.978 88.4862 113.264C88.4915 112.834 88.5704 112.409 88.7195 112.006C88.8322 111.713 89.0048 111.448 89.2262 111.227C89.4477 111.005 89.7131 110.832 90.0053 110.72C90.4082 110.571 90.8337 110.492 91.2633 110.487C91.9779 110.454 92.192 110.447 94.0008 110.447ZM94.0008 109.227C92.162 109.227 91.9304 109.234 91.2079 109.267C90.6456 109.278 90.0893 109.385 89.5627 109.582C89.1109 109.752 88.7017 110.019 88.3637 110.364C88.0187 110.702 87.7517 111.111 87.5814 111.563C87.3842 112.09 87.2777 112.646 87.2666 113.208C87.2343 113.93 87.2266 114.162 87.2266 116.001C87.2266 117.839 87.2343 118.071 87.2672 118.794C87.2784 119.356 87.3848 119.912 87.582 120.439C87.7522 120.891 88.0189 121.3 88.3637 121.638C88.7019 121.983 89.1113 122.25 89.5633 122.42C90.09 122.617 90.6463 122.724 91.2085 122.735C91.9311 122.767 92.1617 122.776 94.0014 122.776C95.8411 122.776 96.0717 122.768 96.7943 122.735C97.3565 122.724 97.9128 122.617 98.4395 122.42C98.8893 122.246 99.2978 121.979 99.6389 121.638C99.98 121.297 100.246 120.888 100.42 120.438C100.617 119.912 100.724 119.355 100.735 118.793C100.767 118.071 100.775 117.839 100.775 116.001C100.775 114.162 100.767 113.93 100.734 113.208C100.723 112.646 100.617 112.089 100.419 111.563C100.249 111.111 99.9826 110.701 99.6379 110.363C99.2996 110.018 98.8902 109.752 98.4382 109.581C97.9115 109.384 97.3553 109.278 96.793 109.267C96.0711 109.234 95.8395 109.227 94.0008 109.227Z" fill="white"/>
<path d="M94.0021 112.523C93.3141 112.523 92.6416 112.727 92.0695 113.11C91.4974 113.492 91.0515 114.035 90.7882 114.671C90.5249 115.307 90.4561 116.006 90.5903 116.681C90.7245 117.356 91.0558 117.975 91.5423 118.462C92.0288 118.948 92.6487 119.28 93.3235 119.414C93.9983 119.548 94.6977 119.479 95.3334 119.216C95.969 118.953 96.5123 118.507 96.8946 117.935C97.2768 117.363 97.4809 116.69 97.4809 116.002C97.4809 115.08 97.1144 114.195 96.462 113.542C95.8096 112.89 94.9248 112.523 94.0021 112.523ZM94.0021 118.26C93.5555 118.26 93.119 118.128 92.7476 117.88C92.3763 117.632 92.0869 117.279 91.916 116.866C91.7451 116.454 91.7003 116 91.7875 115.562C91.8746 115.124 92.0897 114.721 92.4055 114.405C92.7213 114.09 93.1236 113.875 93.5616 113.787C93.9996 113.7 94.4537 113.745 94.8663 113.916C95.2789 114.087 95.6315 114.376 95.8797 114.748C96.1278 115.119 96.2602 115.556 96.2602 116.002C96.2602 116.601 96.0223 117.175 95.5988 117.599C95.1754 118.022 94.601 118.26 94.0021 118.26Z" fill="white"/>
<path d="M97.6176 113.198C98.0665 113.198 98.4305 112.834 98.4305 112.385C98.4305 111.936 98.0665 111.572 97.6176 111.572C97.1686 111.572 96.8047 111.936 96.8047 112.385C96.8047 112.834 97.1686 113.198 97.6176 113.198Z" fill="white"/>
<circle cx="134" cy="116" r="14" fill="#39338F"/>
<path fill-rule="evenodd" clip-rule="evenodd" d="M139.936 121.917H137.688V118.398C137.688 117.559 137.673 116.479 136.519 116.479C135.349 116.479 135.17 117.394 135.17 118.338V121.917H132.924V114.681H135.08V115.67H135.111C135.411 115.101 136.144 114.501 137.238 114.501C139.516 114.501 139.936 115.999 139.936 117.948V121.917ZM130.388 113.692C129.666 113.692 129.083 113.108 129.083 112.388C129.083 111.668 129.666 111.083 130.388 111.083C131.108 111.083 131.692 111.668 131.692 112.388C131.692 113.108 131.108 113.692 130.388 113.692ZM131.513 121.917H129.262V114.681H131.513V121.917Z" fill="white"/>
</svg>
