<svg width="60" height="60" viewBox="0 0 60 60" fill="none" xmlns="http://www.w3.org/2000/svg">
<g clip-path="url(#clip0_56_455)">
<path d="M20.2763 33.5551L22.9039 31.7425C24.3651 31.0595 25.9031 30.5547 27.4847 30.2389C31.2361 29.613 35.0851 30.4361 38.2524 32.5415C41.4196 34.6469 43.6684 37.8773 44.5433 41.5785C45.027 43.5842 45.0832 45.6692 44.708 47.698C44.3327 49.7267 43.5346 51.6537 42.3654 53.3537L41.9297 53.9579C40.5196 50.9505 38.04 48.576 34.9743 47.2975C35.6478 46.5715 36.156 45.7082 36.464 44.767C36.7721 43.8259 36.8727 42.8292 36.7589 41.8455C36.5697 40.1256 35.724 38.5451 34.3981 37.4333C33.146 36.3673 31.5514 35.789 29.907 35.8045C28.2627 35.82 26.6791 36.4283 25.4473 37.5176C24.7606 38.1254 24.202 38.864 23.8041 39.6902C23.4062 40.5164 23.1771 41.4137 23.13 42.3295C23.0829 43.2453 23.2188 44.1613 23.5298 45.024C23.8409 45.8867 24.3208 46.6786 24.9415 47.3537C21.9155 48.6187 19.4668 50.9622 18.0703 53.9298C17.7892 53.9298 17.719 53.6066 17.5926 53.424C15.5993 50.5041 14.7084 46.971 15.079 43.4551C15.4496 39.9393 17.0576 36.6696 19.6159 34.2296C19.8407 34.0047 19.9953 33.7659 20.2763 33.5551Z" fill="url(#paint0_linear_56_455)"/>
<path d="M29.9719 59.9859C26.6873 59.9768 23.4954 58.8964 20.8806 56.9086C20.7234 56.8199 20.6074 56.673 20.5574 56.4995C20.5075 56.3261 20.5276 56.14 20.6135 55.9812C21.3148 54.059 22.5902 52.3989 24.2667 51.2259C25.9432 50.053 27.9398 49.4238 29.9859 49.4238C32.0321 49.4238 34.0287 50.053 35.7052 51.2259C37.3817 52.3989 38.6571 54.059 39.3584 55.9812C39.3976 56.0501 39.4226 56.1261 39.4318 56.2049C39.441 56.2836 39.4342 56.3634 39.4119 56.4394C39.3896 56.5155 39.3522 56.5863 39.3019 56.6476C39.2517 56.7089 39.1896 56.7594 39.1194 56.7962C36.5088 58.8452 33.2906 59.9674 29.9719 59.9859Z" fill="url(#paint1_linear_56_455)"/>
<path d="M26.2904 42.6326C26.2904 41.9033 26.5071 41.1903 26.9129 40.5843C27.3187 39.9783 27.8953 39.5065 28.5697 39.2287C29.244 38.9509 29.9856 38.8796 30.7005 39.024C31.4154 39.1683 32.0714 39.5218 32.5851 40.0394C33.0988 40.5571 33.4473 41.2157 33.5862 41.9317C33.725 42.6477 33.648 43.3888 33.3651 44.061C33.0821 44.7332 32.6059 45.3062 31.9968 45.7073C31.3877 46.1085 30.6731 46.3196 29.9438 46.3141C28.9734 46.303 28.0464 45.9107 27.3628 45.2219C26.6792 44.5331 26.294 43.603 26.2904 42.6326Z" fill="url(#paint2_linear_56_455)"/>
<path d="M54.3793 33.5972C53.8454 33.5972 53.7048 33.3021 53.6346 32.8384C53.3535 31.0117 53.0586 29.1709 52.7354 27.3442C52.7117 27.2807 52.7022 27.2128 52.7076 27.1452C52.713 27.0776 52.7331 27.012 52.7666 26.9531C52.8001 26.8941 52.8462 26.8433 52.9015 26.804C52.9567 26.7648 53.02 26.7382 53.0867 26.726C54.6302 26.1524 56.0173 25.2242 57.1363 24.0163C58.2553 22.8083 59.0748 21.3543 59.5288 19.7714C59.9827 18.1886 60.0585 16.5213 59.7499 14.9038C59.4413 13.2864 58.7569 11.7641 57.7521 10.4596C56.7472 9.15511 55.4499 8.10499 53.9648 7.39385C52.4796 6.68272 50.8482 6.33047 49.202 6.3655C47.5557 6.40054 45.9407 6.82189 44.4872 7.59557C43.0336 8.36925 41.7821 9.47362 40.8336 10.8197C40.5948 11.1428 40.4402 11.1569 40.1311 10.9602C39.0913 10.3138 38.0515 9.66743 36.9835 9.07727C36.4917 8.82434 36.2951 8.55737 36.5199 8.00936C36.6188 7.67204 36.6615 7.32073 36.6463 6.96954C36.7157 5.69169 36.4044 4.422 35.7515 3.32134C35.0986 2.22069 34.1336 1.33862 32.9789 0.786877C31.8791 0.176755 30.6216 -0.0891564 29.3689 0.0235798C28.1163 0.136316 26.9263 0.622503 25.9531 1.41919C24.9127 2.16633 24.1207 3.20877 23.6797 4.41138C23.2388 5.61399 23.1692 6.92132 23.4801 8.16393C23.5117 8.24223 23.5274 8.32609 23.526 8.41052C23.5247 8.49495 23.5064 8.57825 23.4723 8.65552C23.4383 8.7328 23.3892 8.80248 23.3277 8.86043C23.2663 8.91839 23.1938 8.96344 23.1147 8.99296C22.0749 9.59718 21.0351 10.1874 20.0234 10.8478C19.5597 11.1569 19.3349 11.1288 18.9836 10.6511C18.015 9.33817 16.7541 8.2688 15.3006 7.52762C13.8471 6.78645 12.2411 6.3938 10.6097 6.38079C8.97819 6.36778 7.36599 6.73476 5.9009 7.45267C4.43581 8.17057 3.15806 9.21971 2.16863 10.517C1.17921 11.8143 0.505251 13.324 0.200357 14.9268C-0.104538 16.5296 -0.0319778 18.1814 0.412022 19.7513C0.856021 21.3213 1.65935 22.7663 2.75852 23.972C3.85768 25.1777 5.22234 26.111 6.74464 26.6979C6.99757 26.7962 7.32089 26.7962 7.23658 27.2318C6.89934 29.1709 6.57607 31.1101 6.26694 33.0492C6.26694 33.3724 6.09833 33.5269 5.74704 33.5691C4.84351 33.6928 3.97504 34.0007 3.1954 34.4738C2.41575 34.9469 1.74154 35.5751 1.2146 36.3194C0.687653 37.0637 0.319269 37.9083 0.132089 38.8009C-0.0550914 39.6934 -0.0570832 40.6149 0.126428 41.5082C0.473205 43.1787 1.44659 44.653 2.84651 45.6282C4.24643 46.6034 5.96658 47.0055 7.65374 46.7519C9.34089 46.4982 10.8669 45.6082 11.9182 44.2645C12.9696 42.9208 13.4664 41.2255 13.3068 39.5269C13.2069 38.4109 12.8242 37.3389 12.1948 36.4119C11.5653 35.485 10.7101 34.7339 9.70966 34.2295C9.49889 34.1171 9.27404 34.0609 9.33024 33.7236C9.66748 31.7143 10.0047 29.719 10.3278 27.7096C10.3278 27.4707 10.4403 27.3723 10.6932 27.3864C11.8812 27.3849 13.0584 27.1609 14.1639 26.726C14.4449 26.6276 14.5855 26.726 14.7541 26.9508C16.5808 29.1569 18.4214 31.3489 20.2622 33.555C21.228 33.1228 22.116 32.5341 22.89 31.8126C22.89 31.8126 22.89 31.8127 22.89 31.7424C21.1055 29.6066 19.3349 27.5269 17.5504 25.3489C17.3536 25.1241 17.1991 24.9836 17.5504 24.6885C18.956 23.4538 19.9992 21.8601 20.5685 20.0779C21.1378 18.2958 21.2118 16.3923 20.7823 14.5714C20.7313 14.4409 20.7336 14.2956 20.7888 14.1667C20.844 14.0379 20.9476 13.936 21.0773 13.8829C22.3419 13.1522 23.6065 12.3934 24.8571 11.6347C24.9483 11.5487 25.0689 11.5008 25.1943 11.5008C25.3197 11.5008 25.4403 11.5487 25.5315 11.6347C26.7456 12.7525 28.3356 13.373 29.9859 13.373C31.6362 13.373 33.2262 12.7525 34.4403 11.6347C34.5299 11.5454 34.6511 11.4953 34.7775 11.4953C34.904 11.4953 35.0252 11.5454 35.1148 11.6347L38.8805 13.8829C38.9442 13.9077 39.0025 13.9449 39.0518 13.9923C39.1012 14.0396 39.1405 14.0963 39.1679 14.1589C39.1954 14.2216 39.2102 14.289 39.2115 14.3574C39.2128 14.4257 39.2007 14.4937 39.1757 14.5574C38.7465 16.3804 38.8204 18.2858 39.3896 20.0702C39.9588 21.8545 41.0018 23.4507 42.4074 24.6885C42.6603 24.9274 42.6603 25.0539 42.4074 25.2927C41.7189 26.0796 41.0023 26.8946 40.37 27.7096C40.1897 27.8613 40.0447 28.0505 39.9453 28.2641C39.8459 28.4777 39.7944 28.7105 39.7944 28.9461C39.7944 29.1817 39.8459 29.4145 39.9453 29.6281C40.0447 29.8417 40.1897 30.031 40.37 30.1827C40.5514 30.3255 40.7609 30.4283 40.9849 30.4841C41.209 30.5399 41.4423 30.5474 41.6695 30.5062C41.8967 30.465 42.1126 30.3761 42.3028 30.2452C42.493 30.1143 42.6531 29.9445 42.7728 29.7471C43.5315 28.8478 44.3044 27.9485 45.035 27.0211C45.1252 26.8768 45.2677 26.7728 45.4326 26.7309C45.5976 26.6891 45.7722 26.7125 45.9203 26.7962C46.8499 27.1844 47.8499 27.3758 48.8572 27.3583C49.4192 27.3583 49.5456 27.5691 49.6158 28.0468C49.8969 29.8876 50.206 31.7143 50.5152 33.541C50.5398 33.6055 50.5514 33.6743 50.5491 33.7434C50.5469 33.8124 50.5309 33.8803 50.5021 33.9431C50.4733 34.0058 50.4324 34.0623 50.3815 34.1091C50.3307 34.1558 50.271 34.192 50.2061 34.2154C48.788 34.929 47.6707 36.1247 47.0548 37.5878C46.4388 39.051 46.3646 40.6857 46.8453 42.1987C47.326 43.7116 48.3303 45.0037 49.6778 45.843C51.0253 46.6823 52.6276 47.0138 54.1975 46.778C55.7674 46.5423 57.202 45.7547 58.2435 44.5567C59.285 43.3586 59.8654 41.8286 59.8806 40.2412C59.8957 38.6537 59.3445 37.1129 58.326 35.8952C57.3075 34.6776 55.8883 33.8628 54.3232 33.5972H54.3793ZM10.1592 40.1452C10.1592 41.0769 9.78921 41.9704 9.13041 42.6292C8.47162 43.2879 7.57803 43.6581 6.64636 43.6581C5.71468 43.6581 4.82109 43.2879 4.1623 42.6292C3.5035 41.9704 3.13347 41.0769 3.13347 40.1452C3.13703 39.2293 3.4996 38.3514 4.14326 37.6998C4.78692 37.0483 5.66028 36.6751 6.57603 36.6604C7.04287 36.6433 7.50833 36.721 7.9443 36.8888C8.38028 37.0566 8.77785 37.3111 9.11275 37.6368C9.44764 37.9625 9.71298 38.3527 9.89285 38.7838C10.0727 39.215 10.1633 39.678 10.1592 40.1452ZM10.4965 24.2248C9.039 24.2276 7.61355 23.7978 6.40056 22.9898C5.18757 22.1818 4.24156 21.032 3.68253 19.686C3.12351 18.34 2.97658 16.8584 3.26023 15.4288C3.54389 13.9992 4.24544 12.686 5.27602 11.6554C6.3066 10.6248 7.61986 9.92327 9.04945 9.63962C10.479 9.35596 11.9606 9.50298 13.3066 10.062C14.6526 10.621 15.8024 11.5669 16.6104 12.7799C17.4184 13.9929 17.8482 15.4184 17.8454 16.8759C17.8198 18.8069 17.0395 20.6512 15.6713 22.0142C14.3031 23.3771 12.4557 24.1504 10.5246 24.1686L10.4965 24.2248ZM29.9158 10.1733C29.2204 10.1677 28.5422 9.95583 27.9674 9.56458C27.3925 9.17332 26.9469 8.62025 26.6866 7.97544C26.4263 7.33062 26.3631 6.62307 26.5053 5.94239C26.6474 5.26171 26.9884 4.63852 27.485 4.15177C27.9816 3.66503 28.6116 3.33662 29.295 3.20814C29.9784 3.07965 30.6845 3.15688 31.324 3.43003C31.9635 3.70318 32.5075 4.15996 32.8871 4.74253C33.2668 5.32511 33.4649 6.00726 33.4566 6.70258C33.4529 7.63442 33.0821 8.52724 32.4245 9.18747C31.7669 9.8477 30.8755 10.2221 29.9437 10.2295L29.9158 10.1733ZM49.5035 24.1686C48.0466 24.1742 46.621 23.7474 45.4067 22.9424C44.1925 22.1373 43.2444 20.9902 42.6824 19.6461C42.1204 18.302 41.9697 16.8214 42.2494 15.3916C42.5292 13.9619 43.2269 12.6473 44.2541 11.6142C45.2813 10.5811 46.5918 9.87592 48.02 9.58795C49.4481 9.29997 50.9295 9.44212 52.2767 9.99642C53.624 10.5507 54.7768 11.4922 55.5888 12.7018C56.4008 13.9114 56.8356 15.3347 56.8383 16.7916C56.831 18.7385 56.0573 20.6043 54.6845 21.985C53.3117 23.3657 51.4504 24.1502 49.5035 24.1686ZM53.3255 43.63C52.3985 43.6227 51.5114 43.2521 50.8546 42.5979C50.1978 41.9437 49.8236 41.0581 49.8126 40.1311C49.805 39.6659 49.891 39.2038 50.0656 38.7725C50.2401 38.3412 50.4997 37.9493 50.8287 37.6203C51.1577 37.2913 51.5495 37.0318 51.9809 36.8572C52.4122 36.6827 52.8743 36.5966 53.3395 36.6042C54.2676 36.6116 55.1554 36.9845 55.8104 37.6421C56.4654 38.2997 56.8347 39.189 56.8383 40.1171C56.8383 41.0637 56.4624 41.9715 55.7931 42.6408C55.1237 43.3102 54.216 43.6862 53.2694 43.6862L53.3255 43.63Z" fill="#E3AA2F"/>
</g>
<defs>
<linearGradient id="paint0_linear_56_455" x1="29.9749" y1="30.0344" x2="29.9749" y2="53.9579" gradientUnits="userSpaceOnUse">
<stop stop-color="#CCCCFF"/>
<stop offset="1" stop-color="#CCCCFF" stop-opacity="0"/>
</linearGradient>
<linearGradient id="paint1_linear_56_455" x1="29.9831" y1="49.4238" x2="29.9831" y2="59.9859" gradientUnits="userSpaceOnUse">
<stop stop-color="#CCCCFF"/>
<stop offset="1" stop-color="#CCCCFF" stop-opacity="0"/>
</linearGradient>
<linearGradient id="paint2_linear_56_455" x1="29.9719" y1="38.9512" x2="29.9719" y2="46.3142" gradientUnits="userSpaceOnUse">
<stop stop-color="#BDBCF0"/>
<stop offset="1" stop-color="#CCCCFF" stop-opacity="0"/>
</linearGradient>
<clipPath id="clip0_56_455">
<rect width="59.9297" height="60" fill="white"/>
</clipPath>
</defs>
</svg>
