<svg width="28" height="28" viewBox="0 0 28 28" fill="none" xmlns="http://www.w3.org/2000/svg">
<circle cx="14" cy="14" r="14" fill="#39338F"/>
<path fill-rule="evenodd" clip-rule="evenodd" d="M19.9365 19.9168H17.6876V16.398C17.6876 15.5588 17.6733 14.4793 16.519 14.4793C15.3491 14.4793 15.1704 15.3939 15.1704 16.3378V19.9168H12.9239V12.6805H15.0799V13.67H15.1107C15.4107 13.1009 16.1442 12.501 17.2383 12.501C19.5157 12.501 19.9365 13.9993 19.9365 15.9483V19.9168ZM10.3883 11.6921C9.66562 11.6921 9.08325 11.1078 9.08325 10.3876C9.08325 9.66776 9.66562 9.0835 10.3883 9.0835C11.1076 9.0835 11.6918 9.66776 11.6918 10.3876C11.6918 11.1078 11.1076 11.6921 10.3883 11.6921ZM11.5132 19.9168H9.2619V12.6805H11.5132V19.9168Z" fill="white"/>
</svg>
