<svg width="577" height="450" viewBox="0 0 577 450" fill="none" xmlns="http://www.w3.org/2000/svg">
<mask id="mask0_61_3979" style="mask-type:alpha" maskUnits="userSpaceOnUse" x="0" y="0" width="577" height="450">
<path d="M0 16C0 7.16344 7.16344 0 16 0H561C569.837 0 577 7.16344 577 16V434C577 442.837 569.837 450 561 450H16C7.16344 450 0 442.837 0 434V16Z" fill="#1C184F"/>
<path d="M16 0.5H561C569.56 0.5 576.5 7.43959 576.5 16V434C576.5 442.56 569.56 449.5 561 449.5H16C7.43959 449.5 0.5 442.56 0.5 434V16L0.504883 15.5996C0.717243 7.22424 7.57345 0.5 16 0.5Z" stroke="#CBCBEF" stroke-opacity="0.2"/>
</mask>
<g mask="url(#mask0_61_3979)">
<g clip-path="url(#clip0_61_3979)">
<rect x="357.924" y="155.548" width="197.72" height="428.13" rx="20" transform="rotate(13.1363 357.924 155.548)" fill="#1E1B57"/>
<path d="M384.438 160.387L515.905 191.068L512.768 204.507C511.453 210.145 510.795 212.964 509.164 214.837C507.848 216.35 506.108 217.431 504.169 217.942C501.767 218.575 498.949 217.917 493.311 216.601L393.396 193.284C387.758 191.968 384.939 191.31 383.065 189.679C381.553 188.363 380.471 186.623 379.961 184.684C379.328 182.282 379.985 179.464 381.301 173.826L384.438 160.387Z" fill="#0C0935"/>
<path d="M400.334 220.023C400.297 219.673 400.219 219.35 400.099 219.053C399.983 218.754 399.825 218.486 399.625 218.25C399.428 218.015 399.189 217.816 398.908 217.655C398.627 217.493 398.307 217.374 397.947 217.297C397.357 217.171 396.788 217.209 396.24 217.41C395.692 217.612 395.212 217.979 394.8 218.511C394.389 219.043 394.09 219.74 393.906 220.602C393.722 221.465 393.711 222.223 393.873 222.878C394.034 223.533 394.329 224.065 394.757 224.475C395.184 224.885 395.706 225.156 396.322 225.287C396.892 225.409 397.421 225.395 397.907 225.244C398.397 225.092 398.812 224.817 399.15 224.422C399.493 224.024 399.729 223.52 399.859 222.911L400.212 223.068L397.217 222.428L397.446 221.358L401.238 222.169L401.01 223.238C400.834 224.058 400.507 224.734 400.028 225.265C399.551 225.797 398.971 226.165 398.287 226.368C397.607 226.568 396.872 226.584 396.081 226.415C395.199 226.227 394.469 225.854 393.89 225.296C393.314 224.739 392.921 224.039 392.712 223.194C392.506 222.35 392.515 221.403 392.739 220.353C392.908 219.566 393.164 218.88 393.509 218.296C393.858 217.71 394.275 217.236 394.758 216.875C395.242 216.514 395.775 216.272 396.357 216.149C396.939 216.026 397.55 216.033 398.188 216.169C398.713 216.281 399.186 216.465 399.606 216.721C400.029 216.974 400.389 217.283 400.684 217.648C400.983 218.01 401.209 218.416 401.364 218.866C401.519 219.312 401.591 219.787 401.579 220.289L400.334 220.023ZM405.085 228.359C404.411 228.215 403.853 227.928 403.413 227.498C402.976 227.069 402.676 226.536 402.514 225.898C402.356 225.261 402.359 224.557 402.523 223.785C402.69 223.007 402.976 222.358 403.381 221.838C403.791 221.319 404.282 220.953 404.857 220.74C405.434 220.528 406.06 220.494 406.734 220.638C407.408 220.782 407.964 221.068 408.401 221.497C408.841 221.927 409.14 222.462 409.298 223.102C409.46 223.743 409.457 224.453 409.291 225.231C409.126 226.002 408.84 226.646 408.431 227.162C408.026 227.679 407.535 228.043 406.957 228.255C406.383 228.468 405.759 228.503 405.085 228.359ZM405.305 227.328C405.817 227.437 406.266 227.396 406.653 227.204C407.04 227.012 407.358 226.719 407.608 226.325C407.859 225.931 408.037 225.485 408.144 224.986C408.25 224.487 408.27 224.004 408.204 223.539C408.137 223.074 407.967 222.674 407.693 222.337C407.419 222.001 407.026 221.778 406.514 221.669C406.002 221.559 405.552 221.602 405.164 221.797C404.777 221.992 404.458 222.289 404.207 222.686C403.956 223.083 403.777 223.531 403.671 224.03C403.564 224.529 403.545 225.01 403.612 225.472C403.679 225.933 403.85 226.331 404.125 226.664C404.399 226.997 404.793 227.219 405.305 227.328ZM409.655 232.1L411.849 221.832L412.957 222.069L412.704 223.255L412.84 223.284C412.952 223.173 413.104 223.032 413.296 222.863C413.492 222.691 413.748 222.556 414.064 222.458C414.383 222.357 414.786 222.358 415.273 222.462C415.901 222.596 416.422 222.872 416.835 223.289C417.247 223.706 417.526 224.231 417.672 224.866C417.818 225.5 417.807 226.209 417.64 226.994C417.471 227.785 417.19 228.441 416.797 228.964C416.404 229.484 415.936 229.851 415.392 230.067C414.848 230.28 414.265 230.32 413.643 230.187C413.163 230.084 412.796 229.923 412.542 229.702C412.288 229.479 412.105 229.248 411.993 229.011C411.882 228.77 411.798 228.573 411.743 228.418L411.646 228.398L410.803 232.346L409.655 232.1ZM412.179 225.807C412.058 226.371 412.035 226.886 412.108 227.353C412.182 227.816 412.352 228.203 412.617 228.514C412.884 228.821 413.247 229.024 413.707 229.123C414.187 229.225 414.614 229.184 414.989 229C415.368 228.813 415.685 228.522 415.939 228.125C416.197 227.726 416.383 227.261 416.496 226.729C416.608 226.204 416.628 225.714 416.556 225.258C416.488 224.799 416.319 224.412 416.047 224.096C415.779 223.778 415.403 223.567 414.916 223.464C414.45 223.364 414.032 223.398 413.664 223.567C413.296 223.733 412.987 224.009 412.735 224.396C412.483 224.779 412.298 225.25 412.179 225.807ZM418.596 231.082L420.192 223.614L421.339 223.859L419.744 231.327L418.596 231.082ZM421.041 222.494C420.817 222.446 420.641 222.329 420.511 222.142C420.385 221.956 420.345 221.756 420.39 221.542C420.436 221.328 420.554 221.162 420.746 221.043C420.94 220.926 421.15 220.891 421.373 220.938C421.597 220.986 421.772 221.103 421.898 221.289C422.028 221.476 422.07 221.677 422.024 221.891C421.978 222.105 421.858 222.271 421.663 222.388C421.472 222.507 421.265 222.542 421.041 222.494ZM426.26 232.719L424.996 232.449L430.779 223.273L432.024 223.539L433.553 234.277L432.289 234.007L431.104 224.989L431.026 224.973L426.26 232.719ZM427.558 228.929L432.653 230.018L432.424 231.087L427.329 229.999L427.558 228.929ZM437.949 235.379C437.249 235.229 436.681 234.935 436.246 234.496C435.811 234.058 435.519 233.519 435.371 232.881C435.223 232.243 435.228 231.551 435.387 230.805C435.549 230.047 435.832 229.407 436.234 228.887C436.641 228.363 437.131 227.992 437.703 227.772C438.279 227.549 438.904 227.51 439.579 227.654C440.104 227.766 440.556 227.964 440.936 228.249C441.316 228.533 441.603 228.879 441.797 229.287C441.991 229.694 442.071 230.138 442.036 230.619L440.889 230.374C440.874 230.015 440.744 229.672 440.498 229.345C440.257 229.015 439.883 228.797 439.378 228.689C438.931 228.593 438.513 228.626 438.126 228.787C437.743 228.946 437.413 229.216 437.135 229.597C436.861 229.976 436.664 230.447 436.543 231.011C436.42 231.588 436.403 232.11 436.493 232.577C436.587 233.044 436.775 233.432 437.058 233.74C437.345 234.048 437.715 234.251 438.169 234.348C438.467 234.412 438.749 234.418 439.014 234.366C439.279 234.314 439.517 234.209 439.727 234.05C439.937 233.892 440.107 233.684 440.236 233.427L441.384 233.672C441.225 234.099 440.98 234.462 440.648 234.761C440.321 235.057 439.925 235.264 439.463 235.382C439.005 235.497 438.5 235.496 437.949 235.379ZM444.756 236.853C444.283 236.752 443.873 236.571 443.525 236.31C443.178 236.047 442.927 235.72 442.773 235.331C442.62 234.939 442.595 234.5 442.699 234.014C442.79 233.586 442.948 233.257 443.174 233.028C443.4 232.795 443.67 232.632 443.985 232.54C444.299 232.448 444.635 232.401 444.991 232.399C445.351 232.395 445.709 232.407 446.066 232.435C446.532 232.474 446.909 232.509 447.198 232.54C447.49 232.568 447.709 232.559 447.854 232.512C448.003 232.466 448.097 232.351 448.137 232.166L448.145 232.127C448.247 231.647 448.196 231.247 447.99 230.925C447.787 230.604 447.422 230.387 446.894 230.274C446.346 230.157 445.891 230.185 445.528 230.358C445.166 230.532 444.892 230.741 444.708 230.986L443.702 230.365C443.993 229.952 444.328 229.655 444.706 229.471C445.088 229.285 445.483 229.183 445.89 229.165C446.301 229.144 446.695 229.174 447.071 229.254C447.311 229.305 447.58 229.393 447.879 229.518C448.181 229.641 448.46 229.82 448.714 230.058C448.972 230.296 449.16 230.612 449.279 231.007C449.398 231.402 449.394 231.896 449.267 232.489L448.216 237.409L447.069 237.164L447.285 236.153L447.227 236.14C447.114 236.286 446.947 236.432 446.727 236.578C446.506 236.723 446.23 236.829 445.901 236.894C445.572 236.96 445.19 236.946 444.756 236.853ZM445.151 235.86C445.605 235.957 446.007 235.949 446.356 235.837C446.708 235.726 446.994 235.547 447.213 235.299C447.436 235.051 447.58 234.772 447.646 234.461L447.871 233.411C447.81 233.459 447.691 233.489 447.516 233.503C447.344 233.513 447.147 233.514 446.926 233.504C446.708 233.491 446.496 233.476 446.289 233.459C446.087 233.44 445.922 233.425 445.796 233.415C445.489 233.39 445.197 233.394 444.919 233.426C444.645 233.455 444.41 233.539 444.215 233.677C444.023 233.812 443.896 234.026 443.834 234.318C443.749 234.716 443.832 235.049 444.083 235.316C444.338 235.581 444.694 235.762 445.151 235.86ZM453.097 238.614C452.475 238.482 451.959 238.207 451.55 237.791C451.141 237.371 450.864 236.844 450.718 236.21C450.573 235.572 450.585 234.858 450.754 234.067C450.922 233.283 451.201 232.631 451.594 232.111C451.986 231.592 452.456 231.226 453.002 231.014C453.549 230.802 454.137 230.764 454.766 230.898C455.252 231.002 455.619 231.165 455.866 231.387C456.118 231.607 456.296 231.835 456.401 232.071C456.511 232.304 456.594 232.495 456.65 232.643L456.748 232.663L457.533 228.988L458.68 229.233L456.553 239.19L455.445 238.953L455.69 237.806L455.554 237.777C455.44 237.895 455.284 238.041 455.084 238.215C454.885 238.386 454.624 238.522 454.3 238.622C453.978 238.72 453.577 238.717 453.097 238.614ZM453.473 237.617C453.933 237.715 454.348 237.678 454.717 237.506C455.086 237.331 455.399 237.047 455.656 236.655C455.914 236.259 456.102 235.779 456.223 235.215C456.342 234.658 456.365 234.153 456.292 233.7C456.22 233.244 456.05 232.865 455.783 232.564C455.516 232.26 455.149 232.057 454.682 231.958C454.196 231.854 453.764 231.892 453.386 232.072C453.013 232.25 452.7 232.534 452.447 232.924C452.198 233.312 452.018 233.768 451.906 234.293C451.792 234.825 451.77 235.325 451.839 235.794C451.912 236.26 452.082 236.656 452.348 236.98C452.618 237.302 452.993 237.515 453.473 237.617ZM461.912 240.497C461.192 240.344 460.606 240.052 460.152 239.623C459.702 239.191 459.397 238.659 459.237 238.025C459.082 237.388 459.086 236.688 459.249 235.923C459.413 235.158 459.696 234.513 460.099 233.989C460.507 233.463 460.996 233.09 461.569 232.87C462.145 232.647 462.77 232.608 463.444 232.752C463.833 232.835 464.204 232.982 464.555 233.192C464.907 233.403 465.207 233.687 465.456 234.046C465.705 234.401 465.872 234.836 465.955 235.352C466.037 235.868 466.005 236.474 465.856 237.171L465.752 237.657L459.995 236.428L460.207 235.436L464.797 236.416C464.887 235.995 464.883 235.601 464.785 235.234C464.69 234.868 464.509 234.557 464.242 234.3C463.978 234.044 463.639 233.871 463.224 233.782C462.767 233.685 462.348 233.714 461.965 233.869C461.587 234.022 461.27 234.26 461.015 234.581C460.76 234.903 460.588 235.27 460.5 235.681L460.359 236.343C460.239 236.907 460.234 237.406 460.345 237.839C460.459 238.27 460.67 238.626 460.976 238.905C461.283 239.18 461.669 239.368 462.132 239.467C462.434 239.531 462.715 239.547 462.976 239.515C463.241 239.48 463.481 239.396 463.696 239.262C463.912 239.125 464.096 238.937 464.248 238.699L465.29 239.247C465.093 239.598 464.827 239.886 464.49 240.113C464.154 240.336 463.767 240.484 463.328 240.556C462.89 240.625 462.418 240.605 461.912 240.497ZM466.783 241.375L468.378 233.907L469.486 234.144L469.237 235.311L469.334 235.332C469.575 234.966 469.893 234.71 470.286 234.564C470.681 234.414 471.121 234.392 471.608 234.495C472.1 234.601 472.486 234.8 472.766 235.094C473.05 235.385 473.241 235.749 473.341 236.187L473.418 236.204C473.692 235.859 474.044 235.614 474.475 235.469C474.907 235.321 475.39 235.303 475.925 235.418C476.593 235.56 477.094 235.886 477.429 236.395C477.765 236.9 477.84 237.592 477.652 238.471L476.584 243.469L475.437 243.224L476.505 238.226C476.622 237.675 476.556 237.249 476.305 236.948C476.054 236.647 475.724 236.453 475.316 236.365C474.791 236.253 474.35 236.325 473.994 236.581C473.638 236.834 473.409 237.202 473.306 237.685L472.267 242.547L471.1 242.297L472.193 237.183C472.283 236.758 472.219 236.387 471.999 236.068C471.779 235.747 471.452 235.54 471.018 235.447C470.72 235.384 470.424 235.403 470.131 235.507C469.841 235.611 469.586 235.787 469.367 236.035C469.152 236.281 469.005 236.587 468.927 236.953L467.93 241.62L466.783 241.375ZM478.556 246.818C478.361 246.777 478.191 246.723 478.046 246.658C477.9 246.597 477.801 246.545 477.748 246.503L478.256 245.554C478.52 245.685 478.761 245.764 478.979 245.79C479.197 245.816 479.407 245.761 479.609 245.625C479.813 245.492 480.026 245.251 480.246 244.902L480.585 244.364L479.427 236.267L480.671 236.533L481.462 242.925L481.539 242.941L484.872 237.43L486.117 237.696L481.119 245.576C480.894 245.931 480.649 246.213 480.384 246.421C480.119 246.632 479.834 246.769 479.529 246.833C479.227 246.897 478.902 246.892 478.556 246.818Z" fill="white"/>
</g>
<rect x="353.071" y="147.741" width="210.72" height="441.13" rx="26.5" transform="rotate(13.1363 353.071 147.741)" stroke="#0C0937" stroke-width="13" stroke-linejoin="bevel"/>
<rect x="272.584" y="220.202" width="218.273" height="119" rx="8" transform="rotate(13.1363 272.584 220.202)" fill="#373A96"/>
<g clip-path="url(#clip1_61_3979)">
<path d="M303.071 248.894C303.59 249.19 303.846 249.648 303.944 250.23C304.022 250.694 304.157 251.148 304.258 251.608C304.265 251.667 304.289 251.723 304.328 251.77C304.366 251.816 304.417 251.85 304.474 251.867C305.039 252.079 305.601 252.302 306.159 252.536C306.684 252.755 306.983 253.157 307.04 253.723C307.073 253.978 307.032 254.238 306.921 254.471C306.81 254.703 306.633 254.899 306.413 255.033C305.939 255.346 305.454 255.645 304.958 255.918C304.725 256.046 304.656 256.209 304.646 256.455C304.623 257.011 304.592 257.568 304.541 258.122C304.486 258.69 304.18 259.092 303.651 259.3C303.122 259.508 302.626 259.406 302.194 259.046C301.751 258.679 301.318 258.3 300.889 257.916C300.838 257.862 300.772 257.825 300.7 257.808C300.628 257.791 300.552 257.796 300.482 257.821C299.974 257.963 299.459 258.083 298.95 258.224C298.331 258.392 297.783 258.293 297.357 257.793C296.931 257.293 296.944 256.725 297.196 256.144C297.397 255.685 297.587 255.221 297.789 254.765C297.831 254.688 297.849 254.6 297.842 254.513C297.834 254.426 297.801 254.343 297.747 254.274C297.442 253.829 297.163 253.366 296.871 252.912C296.548 252.407 296.495 251.881 296.808 251.361C297.121 250.841 297.607 250.611 298.223 250.672C298.768 250.725 299.316 250.757 299.861 250.809C299.943 250.825 300.027 250.815 300.103 250.782C300.179 250.749 300.244 250.694 300.288 250.624C300.519 250.304 300.801 250.021 301.034 249.702C301.397 249.207 301.822 248.822 302.461 248.749L303.071 248.894Z" fill="white"/>
<path d="M302.667 268.132C302.297 269.72 301.926 271.307 301.56 272.895C301.513 273.096 301.466 273.166 301.235 273.111C298.635 272.494 296.032 271.887 293.428 271.289C293.244 271.246 293.188 271.201 293.236 270.998C293.982 267.835 294.713 264.667 295.458 261.504C295.579 261 295.893 260.565 296.333 260.292C296.773 260.019 297.303 259.93 297.807 260.045C299.303 260.389 300.798 260.738 302.292 261.092C302.543 261.15 302.781 261.258 302.991 261.408C303.201 261.559 303.379 261.749 303.515 261.968C303.652 262.188 303.743 262.432 303.785 262.687C303.827 262.942 303.819 263.202 303.76 263.454C303.399 265.014 303.031 266.572 302.667 268.132Z" fill="white"/>
<path d="M304.059 269.674C304.341 268.466 304.629 267.259 304.899 266.046C304.948 265.839 305.009 265.801 305.215 265.852C306.143 266.081 307.077 266.286 308.007 266.51C308.263 266.567 308.506 266.675 308.721 266.827C308.935 266.979 309.117 267.173 309.255 267.396C309.393 267.62 309.486 267.869 309.526 268.129C309.566 268.389 309.554 268.654 309.49 268.909C309.058 270.759 308.625 272.617 308.2 274.472C308.148 274.694 308.072 274.704 307.879 274.658C306.388 274.302 304.894 273.951 303.398 273.612C303.182 273.561 303.161 273.491 303.209 273.294C303.501 272.09 303.777 270.882 304.059 269.674Z" fill="white"/>
<path d="M292.106 268.357C291.929 269.114 291.748 269.869 291.577 270.625C291.539 270.787 291.499 270.841 291.319 270.795C289.8 270.432 288.278 270.077 286.756 269.73C286.564 269.686 286.548 269.616 286.588 269.446C286.817 268.499 287.031 267.547 287.257 266.598C287.378 266.097 287.691 265.662 288.129 265.389C288.566 265.115 289.094 265.024 289.598 265.135C290.561 265.354 291.515 265.583 292.475 265.801C292.642 265.841 292.684 265.888 292.641 266.062C292.457 266.826 292.284 267.592 292.106 268.357Z" fill="white"/>
</g>
<rect x="266.391" y="357.137" width="216.487" height="119" rx="8" transform="rotate(13.1363 266.391 357.137)" fill="#373A96"/>
<g clip-path="url(#clip2_61_3979)">
<path d="M280.551 410.099L274.291 408.638C273.636 408.485 273.549 408.334 273.734 407.709C274.987 403.461 279.49 400.422 283.896 400.86C287.795 401.245 290.541 403.269 292.186 406.818C292.332 407.131 292.288 407.235 291.958 407.388C290.113 408.196 288.572 409.572 287.561 411.318C287.403 411.587 287.275 411.683 286.942 411.603C284.82 411.085 282.683 410.597 280.551 410.099Z" fill="white"/>
<path d="M312.334 417.517C310.216 417.022 308.1 416.521 305.979 416.043C305.675 415.972 305.587 415.85 305.569 415.553C305.442 413.509 304.657 411.561 303.333 410.003C303.151 409.786 303.145 409.685 303.365 409.486C306.184 406.98 310.532 406.324 313.871 407.915C317.575 409.682 319.85 413.337 319.674 417.242C319.658 417.672 319.618 418.1 319.556 418.526C319.479 419.02 319.282 419.139 318.793 419.027C316.634 418.524 314.481 418.02 312.334 417.517Z" fill="white"/>
<path d="M295.894 416.234L288.612 414.534C288.088 414.412 287.954 414.191 288.104 413.732C289.206 410.365 292.282 408.104 295.859 408.032C300.651 407.934 304.598 412.281 304.046 417.048C304.039 417.111 304.035 417.177 304.031 417.239C303.975 417.946 303.801 418.079 303.13 417.922L295.894 416.234Z" fill="white"/>
<path d="M291.982 396.173C291.662 397.551 290.809 398.746 289.611 399.496C288.414 400.245 286.969 400.487 285.594 400.17C284.221 399.843 283.032 398.987 282.284 397.788C281.536 396.588 281.289 395.141 281.596 393.759C282.247 390.893 285.173 389.083 288.036 389.751C288.717 389.911 289.359 390.205 289.926 390.614C290.492 391.024 290.973 391.542 291.339 392.139C291.706 392.735 291.951 393.399 292.062 394.091C292.172 394.783 292.145 395.49 291.982 396.173Z" fill="white"/>
<path d="M308.324 399.939C308.486 399.258 308.78 398.615 309.19 398.047C309.6 397.479 310.118 396.998 310.713 396.631C311.308 396.264 311.97 396.018 312.659 395.907C313.349 395.796 314.054 395.823 314.733 395.985C317.573 396.657 319.369 399.577 318.689 402.42C318.35 403.802 317.48 404.995 316.269 405.737C315.057 406.48 313.603 406.712 312.223 406.384C310.853 406.048 309.673 405.181 308.942 403.972C308.211 402.764 307.989 401.313 308.324 399.939Z" fill="white"/>
<path d="M298.005 407.326C297.437 407.195 296.9 406.953 296.425 406.614C295.951 406.275 295.548 405.844 295.24 405.348C294.932 404.852 294.724 404.299 294.63 403.722C294.536 403.145 294.556 402.555 294.69 401.985C294.964 400.846 295.674 399.86 296.667 399.24C297.659 398.621 298.855 398.418 299.994 398.675C301.141 398.944 302.134 399.658 302.755 400.661C303.376 401.663 303.575 402.873 303.307 404.024C303.037 405.164 302.328 406.152 301.334 406.771C300.341 407.389 299.144 407.589 298.005 407.326Z" fill="white"/>
</g>
<path d="M280.936 283.911L281.337 282.19L290.378 284.3L289.977 286.021L286.474 285.204L284.231 294.815L282.195 294.339L284.438 284.728L280.936 283.911ZM291.824 296.762C290.994 296.568 290.318 296.217 289.794 295.71C289.271 295.203 288.918 294.582 288.735 293.847C288.557 293.113 288.57 292.307 288.775 291.429C288.979 290.551 289.325 289.821 289.811 289.238C290.301 288.656 290.893 288.253 291.587 288.03C292.28 287.807 293.042 287.792 293.872 287.986C294.702 288.18 295.379 288.53 295.902 289.037C296.426 289.545 296.776 290.167 296.954 290.905C297.136 291.644 297.124 292.452 296.919 293.33C296.714 294.208 296.368 294.936 295.879 295.514C295.393 296.093 294.804 296.494 294.11 296.717C293.416 296.941 292.654 296.955 291.824 296.762ZM292.21 295.16C292.66 295.265 293.065 295.229 293.425 295.052C293.786 294.872 294.089 294.589 294.335 294.203C294.585 293.818 294.769 293.367 294.89 292.85C295.011 292.33 295.046 291.842 294.992 291.386C294.944 290.928 294.798 290.538 294.554 290.216C294.31 289.895 293.963 289.682 293.513 289.577C293.052 289.469 292.639 289.505 292.274 289.684C291.913 289.865 291.607 290.149 291.357 290.538C291.111 290.924 290.928 291.377 290.807 291.897C290.686 292.414 290.65 292.899 290.7 293.354C290.753 293.81 290.901 294.199 291.145 294.52C291.394 294.839 291.749 295.052 292.21 295.16ZM303.887 295.633L305.036 290.708L307.039 291.175L305.055 299.674L303.113 299.221L303.466 297.711L303.377 297.69C303.074 298.121 302.668 298.437 302.159 298.637C301.653 298.838 301.081 298.864 300.443 298.715C299.886 298.585 299.422 298.346 299.052 297.999C298.686 297.649 298.439 297.208 298.31 296.677C298.182 296.141 298.198 295.534 298.356 294.855L299.619 289.444L301.622 289.911L300.431 295.013C300.306 295.551 300.353 296.014 300.574 296.4C300.795 296.786 301.146 297.035 301.625 297.147C301.92 297.216 302.223 297.211 302.533 297.131C302.844 297.052 303.12 296.891 303.364 296.648C303.612 296.403 303.786 296.064 303.887 295.633ZM307.115 300.155L309.099 291.656L311.041 292.109L310.71 293.526L310.799 293.547C311.068 293.092 311.422 292.776 311.86 292.598C312.303 292.418 312.768 292.384 313.255 292.498C313.365 292.524 313.488 292.558 313.622 292.601C313.76 292.641 313.873 292.681 313.961 292.721L313.531 294.564C313.453 294.514 313.324 294.457 313.145 294.392C312.97 294.324 312.798 294.27 312.629 294.23C312.263 294.145 311.917 294.148 311.588 294.238C311.264 294.326 310.987 294.489 310.757 294.727C310.526 294.965 310.369 295.265 310.284 295.626L309.118 300.623L307.115 300.155ZM316.458 297.084L315.296 302.064L313.293 301.597L315.276 293.098L317.191 293.545L316.854 294.989L316.953 295.012C317.26 294.582 317.66 294.277 318.153 294.096C318.65 293.916 319.216 293.901 319.85 294.049C320.437 294.186 320.918 294.43 321.295 294.783C321.676 295.136 321.93 295.578 322.059 296.11C322.191 296.643 322.176 297.248 322.014 297.926L320.752 303.337L318.749 302.87L319.939 297.768C320.072 297.2 320.028 296.721 319.808 296.332C319.591 295.943 319.225 295.688 318.708 295.568C318.358 295.486 318.028 295.49 317.719 295.582C317.414 295.67 317.151 295.84 316.929 296.092C316.711 296.344 316.554 296.675 316.458 297.084ZM325.193 304.555C324.655 304.429 324.192 304.22 323.805 303.928C323.423 303.632 323.151 303.265 322.989 302.827C322.83 302.389 322.816 301.892 322.946 301.335C323.058 300.855 323.239 300.48 323.489 300.207C323.739 299.935 324.039 299.741 324.39 299.624C324.74 299.507 325.118 299.446 325.524 299.439C325.934 299.43 326.351 299.452 326.775 299.504C327.285 299.568 327.699 299.617 328.019 299.648C328.339 299.676 328.579 299.662 328.74 299.607C328.906 299.548 329.011 299.423 329.056 299.231L329.063 299.198C329.161 298.781 329.112 298.429 328.919 298.143C328.725 297.857 328.395 297.659 327.931 297.551C327.44 297.436 327.026 297.452 326.688 297.599C326.354 297.747 326.104 297.955 325.936 298.223L324.128 297.521C324.396 297.039 324.74 296.664 325.16 296.396C325.581 296.125 326.058 295.96 326.589 295.901C327.121 295.839 327.683 295.877 328.277 296.015C328.687 296.111 329.083 296.254 329.467 296.445C329.85 296.635 330.184 296.88 330.468 297.18C330.753 297.476 330.953 297.836 331.068 298.259C331.186 298.684 331.18 299.178 331.048 299.743L329.721 305.431L327.795 304.981L328.068 303.814L328.001 303.798C327.824 304.006 327.601 304.187 327.332 304.342C327.067 304.494 326.754 304.594 326.392 304.642C326.036 304.687 325.636 304.658 325.193 304.555ZM326.057 303.205C326.459 303.298 326.826 303.3 327.158 303.211C327.491 303.117 327.768 302.956 327.989 302.728C328.213 302.5 328.362 302.229 328.435 301.916L328.668 300.914C328.594 300.951 328.476 300.974 328.314 300.983C328.156 300.993 327.981 300.993 327.789 300.983C327.597 300.973 327.407 300.96 327.22 300.944C327.034 300.928 326.872 300.913 326.735 300.901C326.426 300.871 326.143 300.875 325.886 300.913C325.628 300.95 325.412 301.035 325.237 301.169C325.062 301.3 324.945 301.494 324.885 301.752C324.799 302.121 324.868 302.431 325.094 302.682C325.319 302.933 325.64 303.107 326.057 303.205ZM331.735 305.901L333.718 297.402L335.633 297.849L335.296 299.293L335.395 299.316C335.686 298.87 336.068 298.559 336.541 298.382C337.015 298.2 337.536 298.176 338.104 298.309C338.68 298.443 339.132 298.696 339.461 299.069C339.795 299.438 339.987 299.882 340.038 300.399L340.126 300.42C340.424 299.992 340.829 299.69 341.341 299.513C341.858 299.334 342.424 299.317 343.04 299.461C343.822 299.643 344.402 300.039 344.781 300.649C345.16 301.258 345.239 302.037 345.018 302.985L343.686 308.69L341.678 308.221L342.937 302.826C343.06 302.299 343.01 301.881 342.786 301.572C342.564 301.259 342.249 301.056 341.844 300.961C341.36 300.848 340.947 300.911 340.603 301.15C340.264 301.386 340.039 301.744 339.927 302.223L338.69 307.524L336.726 307.065L338.004 301.588C338.107 301.149 338.055 300.767 337.851 300.443C337.65 300.12 337.338 299.909 336.914 299.81C336.626 299.743 336.347 299.756 336.076 299.848C335.807 299.937 335.571 300.098 335.368 300.331C335.167 300.56 335.026 300.85 334.944 301.2L333.738 306.368L331.735 305.901ZM349.442 310.208C348.59 310.009 347.896 309.661 347.358 309.162C346.826 308.66 346.47 308.044 346.29 307.314C346.111 306.58 346.126 305.768 346.333 304.879C346.537 304.005 346.882 303.277 347.368 302.694C347.859 302.108 348.448 301.701 349.135 301.472C349.824 301.24 350.574 301.219 351.385 301.408C351.909 301.53 352.383 301.731 352.809 302.009C353.238 302.284 353.591 302.639 353.867 303.073C354.147 303.507 354.327 304.02 354.407 304.611C354.488 305.197 354.441 305.863 354.267 306.608L354.124 307.223L347.158 305.597L347.473 304.247L352.519 305.424C352.605 305.04 352.602 304.679 352.509 304.343C352.417 304.002 352.246 303.711 351.995 303.47C351.748 303.23 351.432 303.064 351.049 302.975C350.639 302.879 350.256 302.895 349.9 303.022C349.544 303.145 349.243 303.347 348.994 303.627C348.751 303.905 348.583 304.233 348.49 304.612L348.215 305.791C348.1 306.285 348.091 306.731 348.189 307.127C348.288 307.52 348.478 307.848 348.759 308.112C349.04 308.372 349.399 308.553 349.834 308.654C350.125 308.722 350.399 308.743 350.654 308.717C350.91 308.688 351.143 308.612 351.354 308.49C351.566 308.368 351.743 308.198 351.888 307.978L353.709 308.625C353.476 309.092 353.15 309.471 352.732 309.762C352.318 310.051 351.832 310.237 351.271 310.32C350.712 310.4 350.102 310.362 349.442 310.208ZM358.12 306.807L356.958 311.787L354.955 311.32L356.938 302.821L358.852 303.268L358.515 304.712L358.615 304.735C358.922 304.305 359.322 303.999 359.815 303.819C360.312 303.639 360.878 303.623 361.512 303.772C362.099 303.908 362.58 304.153 362.957 304.506C363.337 304.859 363.592 305.301 363.721 305.833C363.853 306.366 363.838 306.971 363.676 307.649L362.413 313.06L360.41 312.593L361.601 307.491C361.733 306.923 361.69 306.444 361.469 306.055C361.253 305.666 360.886 305.411 360.37 305.29C360.02 305.209 359.69 305.213 359.381 305.305C359.076 305.393 358.813 305.563 358.591 305.814C358.372 306.067 358.215 306.398 358.12 306.807ZM370.677 306.027L370.315 307.576L365.429 306.436L365.791 304.887L370.677 306.027ZM367.472 303.132L369.475 303.6L367.613 311.578C367.551 311.848 367.543 312.064 367.591 312.227C367.643 312.386 367.731 312.508 367.855 312.592C367.98 312.675 368.125 312.736 368.291 312.775C368.416 312.804 368.533 312.822 368.641 312.827C368.752 312.834 368.837 312.836 368.896 312.834L368.868 314.479C368.752 314.491 368.59 314.496 368.38 314.494C368.174 314.492 367.928 314.462 367.643 314.403C367.138 314.301 366.703 314.12 366.34 313.86C365.977 313.597 365.72 313.26 365.566 312.851C365.416 312.443 365.405 311.973 365.533 311.443L367.472 303.132Z" fill="#E3AA2F"/>
<path d="M278.041 428.577C278.019 428.257 277.954 427.96 277.847 427.686C277.744 427.409 277.6 427.16 277.414 426.937C277.233 426.716 277.008 426.529 276.74 426.377C276.473 426.222 276.17 426.104 275.83 426.025C275.222 425.883 274.644 425.91 274.096 426.105C273.549 426.3 273.07 426.663 272.658 427.193C272.251 427.72 271.949 428.408 271.751 429.256C271.551 430.112 271.516 430.868 271.647 431.525C271.778 432.182 272.047 432.721 272.454 433.143C272.862 433.561 273.383 433.844 274.018 433.992C274.593 434.126 275.117 434.132 275.589 434.009C276.065 433.886 276.465 433.649 276.788 433.297C277.112 432.941 277.339 432.488 277.467 431.938L277.915 432.119L274.838 431.401L275.213 429.796L279.811 430.869L279.493 432.23C279.267 433.2 278.864 433.991 278.286 434.603C277.708 435.215 277.012 435.628 276.2 435.843C275.388 436.054 274.514 436.051 273.577 435.832C272.533 435.588 271.671 435.14 270.991 434.488C270.315 433.832 269.857 433.019 269.617 432.049C269.381 431.076 269.403 429.992 269.682 428.797C269.895 427.882 270.215 427.095 270.641 426.436C271.071 425.778 271.578 425.253 272.164 424.86C272.75 424.464 273.39 424.209 274.081 424.094C274.774 423.976 275.491 424.003 276.233 424.176C276.86 424.322 277.423 424.551 277.922 424.862C278.422 425.169 278.843 425.54 279.186 425.974C279.531 426.408 279.787 426.888 279.952 427.413C280.118 427.938 280.178 428.489 280.133 429.065L278.041 428.577ZM284.047 438.287C283.195 438.088 282.5 437.74 281.963 437.241C281.431 436.739 281.075 436.123 280.895 435.393C280.716 434.659 280.731 433.847 280.938 432.958C281.142 432.084 281.487 431.356 281.973 430.773C282.464 430.187 283.053 429.78 283.74 429.551C284.428 429.319 285.178 429.298 285.99 429.487C286.514 429.609 286.988 429.81 287.413 430.088C287.843 430.363 288.196 430.718 288.472 431.152C288.752 431.586 288.932 432.099 289.012 432.69C289.092 433.276 289.046 433.942 288.872 434.687L288.729 435.302L281.762 433.676L282.078 432.326L287.124 433.503C287.21 433.119 287.206 432.758 287.114 432.422C287.022 432.081 286.851 431.79 286.6 431.549C286.352 431.309 286.037 431.143 285.653 431.054C285.244 430.958 284.861 430.974 284.505 431.101C284.149 431.224 283.847 431.426 283.599 431.706C283.355 431.984 283.187 432.312 283.095 432.691L282.82 433.87C282.705 434.364 282.696 434.81 282.794 435.206C282.893 435.599 283.083 435.927 283.364 436.191C283.645 436.451 284.003 436.632 284.439 436.733C284.73 436.801 285.003 436.822 285.258 436.796C285.514 436.767 285.748 436.691 285.959 436.569C286.17 436.447 286.348 436.277 286.493 436.057L288.314 436.704C288.08 437.171 287.755 437.55 287.337 437.841C286.923 438.13 286.436 438.316 285.876 438.399C285.317 438.479 284.707 438.441 284.047 438.287ZM295.787 431.89L295.425 433.439L290.539 432.299L290.901 430.75L295.787 431.89ZM292.582 428.995L294.585 429.463L292.723 437.442C292.66 437.711 292.653 437.927 292.7 438.09C292.753 438.25 292.841 438.371 292.965 438.455C293.09 438.538 293.235 438.599 293.401 438.638C293.526 438.667 293.643 438.685 293.75 438.691C293.862 438.697 293.947 438.699 294.005 438.698L293.978 440.342C293.862 440.354 293.699 440.359 293.49 440.357C293.284 440.355 293.038 440.325 292.753 440.266C292.247 440.164 291.813 439.983 291.45 439.723C291.087 439.46 290.829 439.123 290.676 438.714C290.526 438.306 290.515 437.836 290.643 437.306L292.582 428.995ZM307.508 434.923C307.569 434.428 307.439 434.001 307.118 433.642C306.801 433.284 306.338 433.034 305.73 432.892C305.302 432.792 304.92 432.771 304.583 432.829C304.247 432.886 303.972 433.007 303.758 433.19C303.544 433.374 303.402 433.607 303.332 433.89C303.277 434.126 303.283 434.344 303.349 434.542C303.419 434.741 303.534 434.924 303.694 435.089C303.855 435.251 304.04 435.399 304.25 435.534C304.459 435.668 304.674 435.79 304.894 435.9L305.894 436.414C306.299 436.613 306.678 436.844 307.034 437.105C307.392 437.368 307.698 437.665 307.952 437.997C308.209 438.329 308.387 438.699 308.486 439.107C308.585 439.515 308.577 439.965 308.463 440.455C308.308 441.119 308.002 441.665 307.545 442.091C307.088 442.513 306.506 442.792 305.798 442.926C305.094 443.057 304.289 443.017 303.381 442.805C302.5 442.599 301.766 442.284 301.181 441.86C300.599 441.436 300.186 440.92 299.943 440.311C299.704 439.703 299.658 439.019 299.804 438.26L301.823 438.731C301.761 439.132 301.806 439.489 301.959 439.801C302.111 440.113 302.344 440.373 302.657 440.583C302.974 440.793 303.346 440.947 303.774 441.047C304.22 441.152 304.627 441.176 304.993 441.122C305.365 441.065 305.674 440.938 305.922 440.743C306.171 440.545 306.335 440.284 306.414 439.96C306.479 439.664 306.449 439.4 306.324 439.169C306.2 438.934 306 438.716 305.724 438.515C305.453 438.312 305.126 438.111 304.745 437.913L303.533 437.28C302.656 436.823 302.003 436.287 301.574 435.674C301.15 435.058 301.033 434.344 301.222 433.532C301.378 432.864 301.695 432.322 302.174 431.905C302.656 431.488 303.243 431.215 303.934 431.084C304.627 430.95 305.37 430.976 306.163 431.161C306.967 431.349 307.639 431.653 308.178 432.075C308.722 432.494 309.11 432.991 309.342 433.566C309.574 434.137 309.621 434.743 309.483 435.384L307.508 434.923ZM313.13 445.075C312.301 444.881 311.624 444.53 311.1 444.023C310.577 443.516 310.224 442.895 310.042 442.16C309.863 441.426 309.876 440.62 310.081 439.742C310.286 438.864 310.631 438.134 311.117 437.551C311.607 436.969 312.199 436.566 312.893 436.343C313.587 436.12 314.349 436.105 315.178 436.299C316.008 436.493 316.685 436.843 317.209 437.35C317.732 437.858 318.083 438.48 318.261 439.218C318.442 439.957 318.43 440.765 318.226 441.643C318.021 442.521 317.674 443.249 317.185 443.827C316.7 444.406 316.11 444.807 315.416 445.03C314.722 445.254 313.96 445.268 313.13 445.075ZM313.516 443.473C313.966 443.578 314.371 443.542 314.731 443.365C315.092 443.185 315.396 442.902 315.641 442.516C315.891 442.131 316.076 441.68 316.196 441.163C316.318 440.643 316.352 440.155 316.299 439.699C316.25 439.241 316.104 438.851 315.86 438.529C315.616 438.208 315.269 437.995 314.819 437.89C314.358 437.782 313.945 437.818 313.58 437.997C313.219 438.178 312.914 438.462 312.663 438.851C312.418 439.237 312.234 439.69 312.113 440.21C311.992 440.727 311.957 441.212 312.006 441.667C312.059 442.123 312.208 442.512 312.452 442.833C312.7 443.152 313.055 443.365 313.516 443.473ZM322.61 447.287C321.762 447.089 321.077 446.733 320.555 446.218C320.037 445.704 319.69 445.081 319.515 444.348C319.345 443.612 319.36 442.814 319.56 441.954C319.762 441.091 320.106 440.368 320.592 439.785C321.079 439.199 321.668 438.792 322.359 438.564C323.054 438.334 323.817 438.315 324.647 438.509C325.337 438.67 325.918 438.94 326.389 439.318C326.866 439.694 327.209 440.149 327.418 440.684C327.629 441.216 327.685 441.793 327.586 442.415L325.672 441.969C325.69 441.541 325.585 441.157 325.357 440.816C325.134 440.472 324.781 440.244 324.298 440.131C323.888 440.035 323.503 440.062 323.141 440.211C322.781 440.356 322.466 440.614 322.197 440.983C321.932 441.352 321.732 441.823 321.599 442.395C321.464 442.974 321.432 443.492 321.505 443.948C321.578 444.401 321.741 444.776 321.995 445.072C322.253 445.366 322.591 445.561 323.008 445.659C323.303 445.727 323.579 445.734 323.838 445.677C324.1 445.618 324.336 445.5 324.545 445.323C324.753 445.146 324.923 444.911 325.053 444.619L326.968 445.066C326.779 445.656 326.478 446.148 326.063 446.541C325.649 446.931 325.148 447.195 324.56 447.334C323.972 447.469 323.322 447.453 322.61 447.287ZM327.934 448.354L329.918 439.856L331.921 440.323L329.937 448.822L327.934 448.354ZM331.206 438.884C330.889 438.81 330.641 438.642 330.461 438.378C330.282 438.111 330.228 437.828 330.298 437.529C330.368 437.226 330.542 436.997 330.82 436.84C331.099 436.679 331.397 436.636 331.714 436.71C332.035 436.785 332.283 436.955 332.458 437.222C332.638 437.486 332.692 437.769 332.621 438.071C332.552 438.37 332.378 438.6 332.099 438.76C331.825 438.918 331.527 438.959 331.206 438.884ZM334.403 450.045C333.864 449.919 333.401 449.71 333.015 449.418C332.632 449.122 332.36 448.755 332.198 448.317C332.04 447.879 332.025 447.382 332.155 446.825C332.267 446.345 332.448 445.969 332.698 445.697C332.949 445.425 333.249 445.231 333.599 445.114C333.949 444.997 334.327 444.936 334.733 444.929C335.144 444.92 335.561 444.942 335.984 444.994C336.494 445.058 336.909 445.106 337.228 445.138C337.548 445.166 337.789 445.152 337.95 445.097C338.115 445.038 338.22 444.913 338.265 444.721L338.273 444.688C338.37 444.271 338.322 443.919 338.128 443.633C337.934 443.346 337.605 443.149 337.14 443.041C336.649 442.926 336.235 442.942 335.898 443.089C335.564 443.237 335.313 443.445 335.145 443.713L333.337 443.011C333.605 442.529 333.949 442.154 334.37 441.886C334.791 441.615 335.267 441.45 335.798 441.391C336.33 441.329 336.893 441.367 337.487 441.505C337.896 441.601 338.293 441.744 338.676 441.935C339.059 442.125 339.393 442.37 339.677 442.67C339.962 442.966 340.162 443.326 340.277 443.749C340.396 444.174 340.389 444.668 340.258 445.233L338.93 450.921L337.005 450.471L337.277 449.304L337.211 449.288C337.034 449.496 336.811 449.677 336.541 449.832C336.276 449.984 335.963 450.084 335.602 450.132C335.245 450.177 334.845 450.148 334.403 450.045ZM335.266 448.694C335.668 448.788 336.036 448.79 336.368 448.701C336.701 448.607 336.977 448.446 337.198 448.218C337.422 447.99 337.571 447.719 337.644 447.406L337.878 446.404C337.803 446.441 337.685 446.464 337.523 446.473C337.366 446.483 337.19 446.483 336.998 446.473C336.806 446.463 336.617 446.45 336.43 446.434C336.243 446.417 336.081 446.403 335.944 446.39C335.636 446.361 335.353 446.365 335.095 446.402C334.838 446.44 334.621 446.525 334.446 446.659C334.272 446.79 334.154 446.984 334.094 447.242C334.008 447.611 334.078 447.921 334.303 448.172C334.528 448.423 334.85 448.597 335.266 448.694ZM345.592 440.526L342.947 451.858L340.944 451.391L343.589 440.059L345.592 440.526Z" fill="#E3AA2F"/>
<path d="M280.321 308.652C280.377 308.147 280.231 307.712 279.881 307.344C279.531 306.976 279.056 306.723 278.456 306.583C278.017 306.48 277.616 306.461 277.254 306.527C276.894 306.593 276.594 306.728 276.352 306.934C276.113 307.14 275.957 307.402 275.883 307.718C275.821 307.983 275.831 308.225 275.913 308.445C275.998 308.662 276.126 308.857 276.297 309.03C276.468 309.199 276.654 309.349 276.855 309.481C277.056 309.61 277.243 309.72 277.416 309.811L278.36 310.318C278.602 310.446 278.868 310.606 279.156 310.8C279.448 310.994 279.715 311.228 279.957 311.502C280.203 311.774 280.384 312.092 280.5 312.456C280.616 312.82 280.62 313.234 280.511 313.699C280.386 314.235 280.133 314.686 279.751 315.053C279.373 315.421 278.886 315.67 278.29 315.8C277.698 315.93 277.021 315.907 276.26 315.729C275.55 315.563 274.962 315.305 274.495 314.955C274.032 314.605 273.7 314.191 273.499 313.711C273.301 313.233 273.246 312.718 273.334 312.167L274.573 312.456C274.518 312.838 274.572 313.177 274.734 313.474C274.9 313.768 275.139 314.014 275.45 314.213C275.765 314.409 276.119 314.553 276.513 314.645C276.971 314.752 277.4 314.773 277.799 314.71C278.2 314.643 278.537 314.501 278.813 314.283C279.089 314.061 279.27 313.77 279.354 313.408C279.431 313.079 279.401 312.79 279.265 312.54C279.13 312.291 278.927 312.067 278.657 311.867C278.387 311.668 278.089 311.48 277.763 311.301L276.624 310.668C275.901 310.265 275.362 309.804 275.007 309.285C274.651 308.766 274.552 308.173 274.708 307.505C274.837 306.95 275.1 306.501 275.497 306.157C275.897 305.812 276.379 305.584 276.943 305.474C277.51 305.361 278.11 305.379 278.743 305.526C279.382 305.676 279.923 305.923 280.367 306.268C280.811 306.61 281.133 307.012 281.331 307.473C281.533 307.935 281.584 308.419 281.483 308.923L280.321 308.652ZM284.687 317.675C283.99 317.513 283.428 317.208 283.001 316.761C282.575 316.315 282.293 315.771 282.157 315.13C282.021 314.489 282.039 313.797 282.212 313.055C282.389 312.299 282.683 311.665 283.095 311.152C283.512 310.637 284.008 310.274 284.585 310.065C285.165 309.853 285.791 309.826 286.462 309.983C286.985 310.105 287.434 310.311 287.808 310.603C288.182 310.895 288.463 311.246 288.649 311.657C288.836 312.068 288.907 312.514 288.863 312.994L287.721 312.727C287.713 312.368 287.589 312.022 287.35 311.691C287.115 311.357 286.745 311.131 286.242 311.014C285.797 310.91 285.379 310.935 284.989 311.089C284.603 311.24 284.268 311.504 283.982 311.88C283.701 312.253 283.495 312.721 283.364 313.282C283.23 313.857 283.204 314.378 283.285 314.847C283.369 315.316 283.55 315.707 283.828 316.02C284.109 316.334 284.475 316.544 284.927 316.649C285.224 316.718 285.505 316.73 285.771 316.683C286.038 316.636 286.277 316.535 286.49 316.381C286.703 316.226 286.877 316.022 287.011 315.767L288.154 316.034C287.987 316.458 287.735 316.816 287.398 317.108C287.065 317.398 286.666 317.598 286.201 317.707C285.741 317.814 285.236 317.803 284.687 317.675ZM291.505 314.386L290.461 318.859L289.318 318.593L291.632 308.677L292.775 308.944L291.925 312.585L292.022 312.607C292.286 312.264 292.618 312.02 293.02 311.875C293.425 311.728 293.92 311.723 294.504 311.859C295.011 311.978 295.431 312.183 295.764 312.475C296.098 312.764 296.322 313.141 296.434 313.607C296.551 314.069 296.535 314.62 296.385 315.259L295.283 319.985L294.14 319.718L295.225 315.07C295.363 314.48 295.316 313.987 295.085 313.593C294.857 313.196 294.474 312.935 293.935 312.809C293.561 312.722 293.207 312.722 292.873 312.811C292.542 312.901 292.256 313.077 292.014 313.341C291.775 313.605 291.606 313.953 291.505 314.386ZM300.455 321.355C299.738 321.188 299.157 320.886 298.711 320.448C298.269 320.008 297.975 319.469 297.827 318.833C297.684 318.193 297.701 317.493 297.879 316.731C298.056 315.969 298.352 315.33 298.765 314.814C299.182 314.296 299.679 313.932 300.255 313.722C300.836 313.511 301.461 313.483 302.133 313.64C302.52 313.73 302.888 313.884 303.235 314.101C303.583 314.318 303.877 314.608 304.119 314.971C304.362 315.331 304.52 315.769 304.594 316.287C304.667 316.804 304.622 317.41 304.46 318.104L304.347 318.588L298.615 317.25L298.846 316.262L303.416 317.329C303.514 316.909 303.517 316.515 303.426 316.147C303.339 315.779 303.164 315.465 302.901 315.203C302.642 314.941 302.306 314.763 301.893 314.666C301.438 314.56 301.018 314.581 300.633 314.729C300.252 314.875 299.931 315.107 299.669 315.423C299.408 315.74 299.23 316.104 299.134 316.514L298.981 317.172C298.849 317.734 298.835 318.232 298.938 318.668C299.044 319.101 299.248 319.46 299.549 319.745C299.851 320.026 300.233 320.221 300.694 320.329C300.994 320.399 301.275 320.42 301.537 320.393C301.803 320.363 302.044 320.283 302.262 320.153C302.48 320.021 302.668 319.836 302.825 319.601L303.856 320.168C303.653 320.515 303.38 320.799 303.04 321.019C302.7 321.236 302.31 321.376 301.869 321.44C301.43 321.501 300.958 321.473 300.455 321.355ZM308.08 323.135C307.46 322.99 306.95 322.706 306.548 322.282C306.148 321.855 305.881 321.323 305.747 320.686C305.614 320.046 305.639 319.332 305.823 318.544C306.005 317.763 306.297 317.117 306.699 316.605C307.101 316.093 307.578 315.736 308.128 315.534C308.679 315.333 309.268 315.305 309.894 315.451C310.378 315.564 310.742 315.734 310.985 315.961C311.232 316.185 311.406 316.417 311.507 316.655C311.612 316.89 311.691 317.082 311.745 317.231L311.842 317.253L312.696 313.593L313.839 313.86L311.525 323.775L310.421 323.518L310.687 322.375L310.552 322.343C310.436 322.459 310.277 322.603 310.074 322.773C309.871 322.94 309.608 323.071 309.283 323.165C308.959 323.256 308.558 323.246 308.08 323.135ZM308.475 322.145C308.933 322.251 309.348 322.222 309.72 322.057C310.093 321.889 310.411 321.611 310.675 321.224C310.94 320.833 311.138 320.356 311.269 319.795C311.399 319.24 311.431 318.735 311.367 318.281C311.304 317.824 311.141 317.442 310.879 317.136C310.618 316.826 310.255 316.617 309.79 316.509C309.306 316.396 308.873 316.426 308.492 316.599C308.116 316.77 307.797 317.048 307.537 317.433C307.281 317.816 307.092 318.269 306.97 318.792C306.846 319.321 306.815 319.821 306.875 320.291C306.94 320.758 307.102 321.157 307.362 321.487C307.626 321.814 307.997 322.033 308.475 322.145ZM319.172 322.354L320.198 317.958L321.341 318.225L319.605 325.661L318.463 325.394L318.756 324.136L318.679 324.118C318.416 324.455 318.07 324.712 317.641 324.891C317.212 325.067 316.716 325.089 316.155 324.958C315.69 324.849 315.301 324.651 314.987 324.364C314.673 324.073 314.462 323.697 314.351 323.235C314.242 322.771 314.261 322.222 314.409 321.589L315.511 316.864L316.654 317.131L315.569 321.779C315.443 322.321 315.494 322.789 315.722 323.182C315.953 323.577 316.306 323.829 316.78 323.94C317.064 324.006 317.37 324.001 317.698 323.924C318.029 323.848 318.329 323.684 318.599 323.43C318.873 323.177 319.064 322.819 319.172 322.354ZM325.154 316.501L322.84 326.416L321.698 326.149L324.012 316.234L325.154 316.501ZM328.015 327.787C327.298 327.62 326.717 327.317 326.271 326.88C325.83 326.44 325.535 325.901 325.387 325.265C325.244 324.625 325.261 323.925 325.439 323.163C325.617 322.401 325.912 321.762 326.325 321.246C326.742 320.727 327.239 320.363 327.815 320.154C328.396 319.943 329.022 319.915 329.693 320.072C330.08 320.162 330.448 320.316 330.795 320.533C331.143 320.75 331.438 321.04 331.68 321.403C331.922 321.763 332.08 322.201 332.154 322.719C332.227 323.236 332.183 323.842 332.021 324.536L331.908 325.02L326.175 323.682L326.406 322.694L330.976 323.761C331.074 323.341 331.078 322.947 330.987 322.579C330.899 322.211 330.724 321.897 330.462 321.635C330.203 321.373 329.867 321.194 329.454 321.098C328.998 320.992 328.578 321.013 328.193 321.161C327.812 321.307 327.491 321.539 327.23 321.855C326.968 322.172 326.79 322.536 326.694 322.945L326.541 323.604C326.41 324.166 326.395 324.664 326.498 325.1C326.604 325.533 326.808 325.892 327.109 326.177C327.411 326.458 327.793 326.653 328.255 326.761C328.555 326.831 328.836 326.852 329.097 326.825C329.363 326.795 329.604 326.715 329.822 326.585C330.04 326.452 330.228 326.268 330.385 326.033L331.416 326.6C331.213 326.947 330.941 327.231 330.6 327.451C330.26 327.668 329.87 327.808 329.43 327.872C328.99 327.933 328.518 327.905 328.015 327.787ZM338.851 330.336C338.379 330.226 337.972 330.038 337.63 329.771C337.288 329.5 337.043 329.169 336.897 328.778C336.75 328.383 336.734 327.943 336.847 327.459C336.946 327.033 337.111 326.707 337.34 326.482C337.571 326.253 337.844 326.096 338.16 326.009C338.477 325.923 338.813 325.883 339.169 325.887C339.529 325.89 339.887 325.909 340.243 325.944C340.709 325.991 341.085 326.033 341.373 326.07C341.664 326.104 341.883 326.099 342.03 326.055C342.179 326.011 342.276 325.898 342.319 325.714L342.328 325.675C342.439 325.197 342.395 324.796 342.195 324.47C341.999 324.145 341.638 323.921 341.111 323.798C340.566 323.671 340.11 323.691 339.745 323.857C339.379 324.024 339.102 324.228 338.913 324.47L337.919 323.829C338.218 323.423 338.558 323.131 338.94 322.955C339.325 322.776 339.722 322.681 340.129 322.671C340.54 322.658 340.933 322.695 341.308 322.782C341.547 322.838 341.814 322.931 342.11 323.062C342.411 323.189 342.686 323.374 342.936 323.617C343.189 323.859 343.371 324.179 343.483 324.576C343.594 324.973 343.581 325.467 343.443 326.058L342.3 330.957L341.157 330.691L341.392 329.684L341.334 329.67C341.219 329.813 341.049 329.956 340.826 330.098C340.602 330.24 340.325 330.34 339.995 330.399C339.664 330.458 339.283 330.437 338.851 330.336ZM339.264 329.351C339.716 329.456 340.118 329.456 340.469 329.351C340.824 329.246 341.113 329.072 341.336 328.828C341.563 328.585 341.713 328.309 341.785 327.999L342.029 326.953C341.967 327 341.848 327.028 341.673 327.038C341.501 327.046 341.304 327.043 341.083 327.028C340.865 327.012 340.654 326.993 340.447 326.972C340.245 326.949 340.081 326.931 339.955 326.918C339.649 326.888 339.356 326.886 339.078 326.913C338.803 326.937 338.567 327.016 338.369 327.151C338.175 327.282 338.044 327.493 337.976 327.784C337.883 328.181 337.96 328.515 338.206 328.787C338.457 329.057 338.809 329.244 339.264 329.351ZM346.572 327.237L345.528 331.711L344.385 331.444L346.121 324.008L347.224 324.265L346.953 325.427L347.05 325.45C347.313 325.113 347.648 324.871 348.057 324.725C348.466 324.575 348.951 324.566 349.513 324.697C350.016 324.815 350.433 325.021 350.762 325.315C351.092 325.607 351.314 325.985 351.427 326.451C351.54 326.913 351.523 327.46 351.375 328.093L350.272 332.818L349.13 332.551L350.214 327.904C350.351 327.319 350.305 326.829 350.078 326.432C349.851 326.032 349.473 325.77 348.944 325.647C348.579 325.562 348.235 325.565 347.911 325.656C347.59 325.748 347.312 325.926 347.076 326.191C346.841 326.456 346.673 326.805 346.572 327.237ZM355.132 334.116C354.512 333.971 354.002 333.687 353.601 333.263C353.2 332.836 352.933 332.304 352.799 331.667C352.666 331.027 352.691 330.313 352.875 329.525C353.057 328.744 353.349 328.097 353.751 327.585C354.153 327.073 354.63 326.717 355.18 326.515C355.731 326.313 356.32 326.286 356.946 326.432C357.43 326.545 357.794 326.715 358.037 326.942C358.284 327.166 358.458 327.397 358.559 327.635C358.664 327.871 358.743 328.063 358.797 328.212L358.894 328.234L359.748 324.574L360.891 324.841L358.577 334.756L357.473 334.498L357.74 333.356L357.604 333.324C357.488 333.44 357.329 333.583 357.126 333.754C356.924 333.921 356.66 334.052 356.335 334.146C356.011 334.237 355.61 334.227 355.132 334.116ZM355.527 333.125C355.985 333.232 356.4 333.203 356.772 333.038C357.145 332.87 357.463 332.592 357.727 332.204C357.992 331.814 358.19 331.337 358.321 330.776C358.451 330.221 358.484 329.716 358.419 329.262C358.356 328.805 358.193 328.423 357.931 328.117C357.67 327.807 357.307 327.598 356.842 327.49C356.358 327.377 355.925 327.407 355.544 327.58C355.168 327.751 354.849 328.029 354.589 328.414C354.333 328.797 354.144 329.249 354.022 329.772C353.898 330.302 353.867 330.801 353.927 331.272C353.992 331.739 354.154 332.138 354.414 332.467C354.678 332.795 355.049 333.014 355.527 333.125ZM364.817 336.213L367.131 326.297L370.482 327.079C371.256 327.26 371.861 327.541 372.297 327.921C372.733 328.299 373.017 328.744 373.149 329.258C373.28 329.773 373.278 330.322 373.142 330.906C373.006 331.49 372.765 331.98 372.421 332.376C372.077 332.773 371.627 333.042 371.073 333.185C370.52 333.325 369.859 333.305 369.091 333.126L366.38 332.493L366.633 331.408L369.305 332.032C369.835 332.156 370.279 332.178 370.638 332.098C371 332.019 371.287 331.855 371.498 331.605C371.714 331.352 371.868 331.027 371.961 330.63C372.053 330.233 372.06 329.869 371.981 329.537C371.902 329.206 371.718 328.921 371.43 328.684C371.142 328.443 370.73 328.26 370.194 328.135L368.084 327.642L366.018 336.493L364.817 336.213ZM370.524 332.848L371.925 337.871L370.53 337.546L369.169 332.531L370.524 332.848ZM376.385 339.076C375.669 338.908 375.087 338.606 374.642 338.168C374.2 337.728 373.905 337.19 373.758 336.553C373.614 335.914 373.631 335.213 373.809 334.451C373.987 333.69 374.282 333.051 374.695 332.535C375.113 332.016 375.609 331.652 376.186 331.443C376.766 331.231 377.392 331.203 378.063 331.36C378.451 331.45 378.818 331.604 379.165 331.822C379.513 332.039 379.808 332.329 380.05 332.692C380.293 333.051 380.451 333.49 380.524 334.007C380.597 334.524 380.553 335.13 380.391 335.824L380.278 336.308L374.546 334.97L374.776 333.983L379.346 335.049C379.444 334.63 379.448 334.236 379.357 333.867C379.269 333.5 379.094 333.185 378.832 332.923C378.573 332.662 378.237 332.483 377.824 332.386C377.369 332.28 376.948 332.301 376.563 332.45C376.182 332.596 375.861 332.827 375.6 333.144C375.339 333.461 375.16 333.824 375.065 334.234L374.911 334.892C374.78 335.454 374.766 335.953 374.868 336.388C374.975 336.822 375.178 337.181 375.48 337.465C375.781 337.747 376.163 337.941 376.625 338.049C376.925 338.119 377.206 338.14 377.467 338.113C377.733 338.083 377.975 338.003 378.192 337.874C378.41 337.741 378.598 337.557 378.755 337.321L379.787 337.889C379.583 338.236 379.311 338.519 378.97 338.739C378.63 338.956 378.24 339.097 377.8 339.161C377.36 339.221 376.889 339.193 376.385 339.076ZM387.853 335.503L386.759 335.554C386.734 335.368 386.678 335.179 386.589 334.989C386.505 334.795 386.369 334.621 386.181 334.465C385.993 334.308 385.732 334.191 385.4 334.114C384.945 334.008 384.541 334.024 384.189 334.163C383.84 334.299 383.629 334.528 383.554 334.847C383.488 335.131 383.539 335.38 383.707 335.592C383.875 335.805 384.166 336.018 384.579 336.23L385.62 336.759C386.247 337.075 386.685 337.438 386.933 337.846C387.183 338.251 387.247 338.714 387.125 339.234C387.026 339.66 386.814 340.012 386.491 340.29C386.17 340.57 385.77 340.755 385.289 340.847C384.808 340.939 384.278 340.918 383.701 340.783C382.942 340.606 382.353 340.295 381.933 339.849C381.512 339.404 381.31 338.85 381.325 338.186L382.473 338.168C382.483 338.593 382.608 338.938 382.849 339.206C383.092 339.473 383.448 339.662 383.916 339.771C384.449 339.896 384.898 339.881 385.264 339.728C385.634 339.573 385.856 339.336 385.93 339.016C385.991 338.758 385.951 338.52 385.811 338.304C385.671 338.084 385.425 337.887 385.071 337.713L383.899 337.133C383.256 336.813 382.814 336.446 382.573 336.032C382.337 335.616 382.278 335.152 382.398 334.638C382.496 334.219 382.701 333.875 383.011 333.607C383.326 333.34 383.709 333.163 384.162 333.074C384.618 332.987 385.108 333.004 385.63 333.126C386.366 333.298 386.906 333.594 387.251 334.015C387.598 334.436 387.799 334.932 387.853 335.503ZM393.758 339.76L394.784 335.364L395.926 335.631L394.191 343.068L393.048 342.801L393.342 341.542L393.264 341.524C393.002 341.861 392.656 342.119 392.226 342.298C391.797 342.473 391.302 342.495 390.74 342.364C390.276 342.256 389.886 342.058 389.572 341.77C389.259 341.479 389.047 341.103 388.937 340.642C388.828 340.177 388.847 339.629 388.994 338.996L390.097 334.271L391.24 334.537L390.155 339.185C390.028 339.727 390.079 340.195 390.307 340.589C390.539 340.983 390.892 341.236 391.366 341.346C391.65 341.413 391.956 341.408 392.283 341.331C392.614 341.255 392.915 341.09 393.185 340.837C393.458 340.584 393.649 340.225 393.758 339.76ZM399.74 333.907L397.426 343.823L396.284 343.556L398.598 333.641L399.74 333.907ZM404.488 337.629L404.262 338.598L400.409 337.698L400.635 336.73L404.488 337.629ZM402.174 335.21L403.316 335.477L401.662 342.565C401.587 342.888 401.577 343.141 401.633 343.324C401.693 343.505 401.791 343.64 401.926 343.729C402.066 343.816 402.22 343.879 402.388 343.919C402.514 343.948 402.618 343.966 402.702 343.972C402.786 343.974 402.854 343.976 402.905 343.978L402.898 345.059C402.813 345.07 402.698 345.073 402.553 345.07C402.407 345.07 402.227 345.045 402.014 344.995C401.691 344.92 401.391 344.777 401.113 344.566C400.839 344.355 400.634 344.084 400.497 343.753C400.363 343.422 400.346 343.041 400.447 342.608L402.174 335.21Z" fill="#CCCCFF"/>
<path d="M263.733 455.963L266.047 446.047L269.397 446.829C270.175 447.011 270.778 447.299 271.206 447.695C271.639 448.089 271.919 448.551 272.047 449.081C272.175 449.611 272.171 450.168 272.035 450.753C271.898 451.337 271.655 451.84 271.305 452.262C270.958 452.685 270.504 452.98 269.944 453.149C269.384 453.315 268.719 453.307 267.948 453.127L265.546 452.567L265.795 451.502L268.157 452.053C268.69 452.178 269.139 452.185 269.505 452.077C269.871 451.968 270.163 451.774 270.381 451.495C270.603 451.213 270.761 450.874 270.853 450.477C270.946 450.08 270.955 449.708 270.879 449.36C270.807 449.013 270.629 448.713 270.344 448.459C270.06 448.202 269.649 448.011 269.11 447.885L266.999 447.392L264.934 456.243L263.733 455.963ZM275.137 458.787C274.466 458.631 273.914 458.333 273.482 457.896C273.053 457.459 272.763 456.92 272.613 456.279C272.467 455.639 272.483 454.935 272.662 454.166C272.843 453.392 273.141 452.748 273.557 452.236C273.976 451.725 274.474 451.368 275.052 451.166C275.634 450.965 276.26 450.942 276.931 451.099C277.603 451.256 278.153 451.553 278.582 451.99C279.014 452.427 279.303 452.968 279.449 453.611C279.598 454.255 279.582 454.965 279.402 455.739C279.222 456.507 278.924 457.146 278.506 457.654C278.091 458.163 277.593 458.518 277.011 458.719C276.433 458.921 275.808 458.944 275.137 458.787ZM275.377 457.761C275.887 457.88 276.337 457.847 276.727 457.663C277.117 457.478 277.441 457.191 277.699 456.802C277.956 456.413 278.143 455.97 278.259 455.473C278.375 454.976 278.404 454.494 278.346 454.028C278.288 453.562 278.125 453.158 277.858 452.816C277.591 452.475 277.202 452.244 276.692 452.125C276.182 452.006 275.731 452.041 275.34 452.229C274.949 452.417 274.625 452.707 274.366 453.099C274.108 453.491 273.921 453.936 273.805 454.433C273.689 454.93 273.66 455.41 273.719 455.873C273.778 456.336 273.941 456.737 274.209 457.075C274.478 457.413 274.867 457.642 275.377 457.761ZM286.901 455.284L285.807 455.335C285.783 455.149 285.726 454.961 285.638 454.77C285.554 454.577 285.418 454.402 285.229 454.246C285.041 454.089 284.781 453.972 284.448 453.895C283.993 453.789 283.59 453.805 283.237 453.944C282.889 454.081 282.677 454.309 282.603 454.628C282.537 454.912 282.587 455.161 282.756 455.373C282.924 455.586 283.215 455.799 283.628 456.011L284.668 456.54C285.296 456.856 285.734 457.219 285.982 457.627C286.231 458.033 286.295 458.495 286.174 459.015C286.074 459.441 285.863 459.793 285.539 460.071C285.219 460.351 284.818 460.536 284.337 460.628C283.856 460.72 283.327 460.699 282.749 460.564C281.991 460.387 281.401 460.076 280.981 459.63C280.561 459.185 280.358 458.631 280.374 457.967L281.521 457.949C281.531 458.374 281.657 458.719 281.897 458.987C282.141 459.254 282.497 459.443 282.965 459.552C283.497 459.677 283.947 459.662 284.312 459.509C284.682 459.354 284.904 459.117 284.979 458.797C285.039 458.539 284.999 458.302 284.859 458.085C284.72 457.865 284.473 457.668 284.119 457.494L282.947 456.914C282.304 456.594 281.862 456.227 281.622 455.813C281.385 455.397 281.327 454.933 281.447 454.42C281.545 454 281.749 453.656 282.06 453.388C282.374 453.121 282.758 452.944 283.211 452.855C283.667 452.768 284.156 452.785 284.679 452.907C285.415 453.079 285.955 453.375 286.299 453.796C286.647 454.217 286.847 454.713 286.901 455.284ZM292.38 454.806L292.154 455.775L288.3 454.875L288.526 453.907L292.38 454.806ZM290.065 452.388L291.208 452.654L289.553 459.742C289.478 460.065 289.468 460.318 289.524 460.501C289.584 460.682 289.682 460.817 289.818 460.907C289.957 460.994 290.111 461.057 290.279 461.096C290.405 461.125 290.51 461.143 290.593 461.149C290.678 461.151 290.745 461.154 290.796 461.155L290.789 462.236C290.705 462.247 290.59 462.251 290.444 462.247C290.298 462.247 290.118 462.222 289.905 462.173C289.582 462.097 289.282 461.954 289.005 461.743C288.731 461.533 288.525 461.262 288.388 460.93C288.254 460.599 288.238 460.218 288.338 459.785L290.065 452.388ZM296.197 463.539L297.933 456.102L299.076 456.369L297.34 463.806L296.197 463.539ZM298.803 454.999C298.58 454.947 298.406 454.826 298.28 454.637C298.157 454.448 298.121 454.247 298.171 454.034C298.22 453.821 298.342 453.657 298.536 453.542C298.732 453.428 298.942 453.397 299.165 453.449C299.387 453.501 299.56 453.622 299.683 453.81C299.809 454 299.847 454.201 299.797 454.414C299.748 454.627 299.624 454.79 299.428 454.904C299.234 455.019 299.026 455.051 298.803 454.999ZM299.433 464.294L301.168 456.857L302.272 457.115L302.001 458.277L302.098 458.3C302.345 457.939 302.667 457.689 303.064 457.55C303.461 457.408 303.902 457.393 304.386 457.506C304.877 457.621 305.259 457.828 305.533 458.126C305.811 458.423 305.996 458.791 306.087 459.231L306.165 459.249C306.445 458.909 306.802 458.671 307.235 458.534C307.669 458.393 308.153 458.385 308.686 458.51C309.35 458.665 309.846 459 310.171 459.515C310.498 460.027 310.559 460.72 310.355 461.595L309.193 466.572L308.051 466.305L309.212 461.328C309.34 460.779 309.282 460.352 309.036 460.047C308.791 459.741 308.465 459.541 308.059 459.446C307.536 459.324 307.094 459.387 306.733 459.637C306.372 459.883 306.136 460.246 306.024 460.727L304.894 465.569L303.732 465.297L304.921 460.204C305.019 459.781 304.962 459.409 304.748 459.087C304.534 458.761 304.211 458.548 303.779 458.447C303.482 458.378 303.186 458.392 302.891 458.49C302.599 458.588 302.341 458.76 302.117 459.004C301.898 459.245 301.745 459.548 301.66 459.913L300.575 464.561L299.433 464.294ZM313.43 467.744C312.959 467.634 312.552 467.446 312.209 467.179C311.867 466.908 311.623 466.577 311.476 466.186C311.33 465.791 311.313 465.351 311.426 464.867C311.526 464.441 311.69 464.115 311.92 463.89C312.15 463.661 312.424 463.504 312.74 463.418C313.056 463.331 313.392 463.291 313.748 463.296C314.109 463.298 314.467 463.317 314.823 463.352C315.288 463.4 315.665 463.442 315.952 463.478C316.244 463.512 316.463 463.507 316.609 463.463C316.759 463.419 316.855 463.306 316.898 463.122L316.907 463.083C317.019 462.605 316.974 462.204 316.775 461.878C316.578 461.553 316.217 461.329 315.691 461.206C315.145 461.079 314.69 461.099 314.324 461.265C313.959 461.432 313.681 461.636 313.492 461.878L312.498 461.237C312.797 460.831 313.138 460.539 313.519 460.363C313.905 460.184 314.301 460.089 314.708 460.079C315.12 460.066 315.513 460.103 315.887 460.19C316.126 460.246 316.394 460.339 316.69 460.47C316.99 460.598 317.265 460.783 317.515 461.025C317.768 461.268 317.95 461.587 318.062 461.984C318.174 462.381 318.16 462.875 318.023 463.466L316.879 468.366L315.737 468.099L315.972 467.092L315.913 467.078C315.798 467.222 315.629 467.364 315.405 467.506C315.182 467.648 314.905 467.748 314.574 467.807C314.244 467.866 313.863 467.845 313.43 467.744ZM313.844 466.759C314.296 466.864 314.697 466.864 315.049 466.759C315.403 466.655 315.692 466.48 315.916 466.237C316.143 465.993 316.292 465.717 316.365 465.407L316.609 464.361C316.547 464.408 316.428 464.436 316.252 464.446C316.08 464.454 315.883 464.451 315.662 464.436C315.445 464.42 315.233 464.401 315.027 464.38C314.825 464.357 314.66 464.339 314.534 464.326C314.228 464.296 313.936 464.294 313.657 464.321C313.383 464.345 313.146 464.425 312.948 464.559C312.754 464.69 312.623 464.901 312.555 465.192C312.463 465.589 312.54 465.923 312.786 466.195C313.036 466.465 313.389 466.652 313.844 466.759ZM321.279 472.496C320.727 472.368 320.27 472.186 319.906 471.951C319.541 471.72 319.253 471.459 319.042 471.168C318.833 470.881 318.682 470.59 318.587 470.296L319.646 469.869C319.718 470.029 319.812 470.214 319.93 470.425C320.047 470.64 320.227 470.844 320.471 471.037C320.718 471.234 321.066 471.385 321.514 471.489C322.115 471.63 322.644 471.6 323.102 471.401C323.561 471.201 323.862 470.792 324.007 470.172L324.359 468.661L324.263 468.639C324.147 468.755 323.988 468.895 323.787 469.059C323.589 469.22 323.329 469.345 323.005 469.433C322.686 469.518 322.284 469.504 321.8 469.391C321.199 469.251 320.694 468.983 320.282 468.588C319.874 468.193 319.594 467.692 319.443 467.085C319.296 466.479 319.312 465.789 319.493 465.014C319.671 464.252 319.959 463.62 320.359 463.118C320.759 462.612 321.235 462.26 321.785 462.062C322.335 461.86 322.924 461.833 323.55 461.979C324.034 462.092 324.4 462.262 324.646 462.49C324.896 462.715 325.074 462.947 325.178 463.186C325.286 463.422 325.367 463.614 325.421 463.763L325.537 463.79L325.813 462.609L326.917 462.867L325.131 470.516C324.982 471.155 324.716 471.641 324.332 471.973C323.95 472.31 323.494 472.515 322.963 472.588C322.434 472.666 321.873 472.635 321.279 472.496ZM322.194 468.401C322.653 468.508 323.064 468.494 323.43 468.358C323.795 468.222 324.106 467.976 324.362 467.621C324.619 467.265 324.811 466.813 324.939 466.265C325.064 465.729 325.094 465.237 325.028 464.789C324.962 464.342 324.799 463.965 324.536 463.659C324.274 463.353 323.911 463.145 323.446 463.037C322.962 462.924 322.53 462.952 322.15 463.122C321.773 463.293 321.456 463.566 321.198 463.942C320.943 464.318 320.757 464.758 320.64 465.261C320.519 465.778 320.493 466.253 320.562 466.688C320.635 467.12 320.805 467.486 321.071 467.787C321.342 468.085 321.717 468.29 322.194 468.401ZM330.354 471.674C329.638 471.507 329.057 471.204 328.611 470.767C328.169 470.326 327.874 469.788 327.727 469.151C327.583 468.512 327.6 467.811 327.778 467.05C327.956 466.288 328.251 465.649 328.665 465.133C329.082 464.614 329.578 464.25 330.155 464.041C330.735 463.829 331.361 463.802 332.032 463.958C332.42 464.049 332.787 464.203 333.135 464.42C333.482 464.637 333.777 464.927 334.019 465.29C334.262 465.649 334.42 466.088 334.493 466.605C334.566 467.123 334.522 467.728 334.36 468.422L334.247 468.906L328.515 467.569L328.745 466.581L333.316 467.648C333.414 467.228 333.417 466.834 333.326 466.466C333.238 466.098 333.063 465.783 332.801 465.521C332.542 465.26 332.206 465.081 331.793 464.985C331.338 464.879 330.918 464.9 330.532 465.048C330.151 465.194 329.83 465.425 329.569 465.742C329.308 466.059 329.129 466.422 329.034 466.832L328.88 467.491C328.749 468.052 328.735 468.551 328.837 468.987C328.944 469.42 329.148 469.779 329.449 470.064C329.751 470.345 330.132 470.54 330.594 470.647C330.894 470.717 331.175 470.739 331.437 470.711C331.702 470.681 331.944 470.602 332.161 470.472C332.379 470.339 332.567 470.155 332.724 469.919L333.756 470.487C333.552 470.834 333.28 471.118 332.939 471.338C332.6 471.554 332.209 471.695 331.769 471.759C331.329 471.82 330.858 471.791 330.354 471.674ZM341.822 468.101L340.728 468.152C340.703 467.966 340.647 467.778 340.559 467.587C340.474 467.394 340.338 467.219 340.15 467.063C339.962 466.906 339.702 466.79 339.369 466.712C338.914 466.606 338.51 466.622 338.158 466.761C337.81 466.898 337.598 467.126 337.524 467.445C337.457 467.729 337.508 467.978 337.676 468.191C337.845 468.403 338.135 468.616 338.549 468.828L339.589 469.357C340.216 469.673 340.654 470.036 340.903 470.444C341.152 470.85 341.216 471.312 341.094 471.832C340.995 472.258 340.784 472.61 340.46 472.889C340.139 473.168 339.739 473.353 339.258 473.445C338.777 473.537 338.248 473.516 337.67 473.381C336.911 473.204 336.322 472.893 335.902 472.448C335.482 472.002 335.279 471.448 335.294 470.785L336.442 470.767C336.452 471.191 336.577 471.537 336.818 471.804C337.062 472.072 337.417 472.26 337.885 472.369C338.418 472.494 338.867 472.479 339.233 472.327C339.603 472.171 339.825 471.934 339.9 471.614C339.96 471.356 339.92 471.119 339.78 470.902C339.641 470.683 339.394 470.485 339.04 470.311L337.868 469.731C337.225 469.411 336.783 469.044 336.542 468.63C336.306 468.214 336.248 467.75 336.367 467.237C336.465 466.817 336.67 466.473 336.981 466.206C337.295 465.939 337.678 465.761 338.131 465.673C338.587 465.585 339.077 465.602 339.6 465.724C340.336 465.896 340.876 466.192 341.22 466.613C341.567 467.034 341.768 467.531 341.822 468.101ZM348.313 475.885C347.842 475.775 347.435 475.587 347.092 475.32C346.75 475.049 346.506 474.718 346.359 474.327C346.213 473.932 346.196 473.492 346.309 473.008C346.409 472.582 346.573 472.256 346.803 472.031C347.033 471.802 347.307 471.645 347.623 471.558C347.939 471.472 348.275 471.432 348.631 471.436C348.992 471.439 349.35 471.458 349.706 471.493C350.171 471.54 350.548 471.582 350.835 471.619C351.127 471.653 351.346 471.648 351.492 471.604C351.642 471.56 351.738 471.447 351.781 471.263L351.79 471.224C351.902 470.746 351.857 470.345 351.658 470.019C351.461 469.694 351.1 469.47 350.574 469.347C350.028 469.22 349.573 469.24 349.207 469.406C348.842 469.573 348.564 469.777 348.375 470.019L347.381 469.378C347.68 468.972 348.021 468.68 348.402 468.504C348.788 468.325 349.184 468.23 349.591 468.22C350.003 468.207 350.396 468.244 350.77 468.331C351.009 468.387 351.277 468.48 351.573 468.61C351.873 468.738 352.148 468.923 352.398 469.166C352.651 469.408 352.833 469.728 352.945 470.125C353.057 470.522 353.043 471.016 352.906 471.607L351.762 476.506L350.619 476.24L350.854 475.233L350.796 475.219C350.681 475.362 350.512 475.505 350.288 475.647C350.064 475.789 349.787 475.889 349.457 475.948C349.127 476.007 348.745 475.986 348.313 475.885ZM348.727 474.9C349.179 475.005 349.58 475.005 349.932 474.9C350.286 474.795 350.575 474.621 350.799 474.377C351.026 474.134 351.175 473.858 351.248 473.548L351.492 472.502C351.43 472.549 351.311 472.577 351.135 472.587C350.963 472.595 350.766 472.592 350.545 472.577C350.328 472.561 350.116 472.542 349.91 472.521C349.708 472.498 349.543 472.48 349.417 472.467C349.111 472.437 348.819 472.435 348.54 472.462C348.266 472.486 348.029 472.565 347.831 472.7C347.637 472.831 347.506 473.042 347.438 473.333C347.346 473.73 347.423 474.064 347.669 474.336C347.919 474.606 348.272 474.793 348.727 474.9ZM356.034 472.786L354.99 477.26L353.848 476.993L355.583 469.557L356.687 469.814L356.416 470.976L356.513 470.999C356.775 470.662 357.11 470.42 357.519 470.274C357.928 470.124 358.414 470.115 358.975 470.246C359.479 470.364 359.895 470.57 360.225 470.864C360.555 471.156 360.776 471.534 360.889 472C361.002 472.462 360.985 473.009 360.838 473.642L359.735 478.367L358.592 478.1L359.677 473.453C359.813 472.868 359.768 472.378 359.54 471.981C359.314 471.581 358.936 471.319 358.407 471.196C358.042 471.111 357.697 471.114 357.373 471.205C357.052 471.297 356.774 471.475 356.539 471.74C356.303 472.005 356.135 472.354 356.034 472.786ZM364.595 479.665C363.975 479.52 363.464 479.236 363.063 478.812C362.662 478.385 362.395 477.853 362.261 477.216C362.128 476.576 362.154 475.862 362.337 475.074C362.52 474.293 362.812 473.646 363.214 473.134C363.616 472.622 364.092 472.266 364.643 472.064C365.194 471.862 365.782 471.835 366.408 471.981C366.892 472.094 367.256 472.264 367.499 472.491C367.746 472.715 367.92 472.946 368.021 473.184C368.126 473.42 368.206 473.612 368.26 473.761L368.356 473.783L369.211 470.123L370.353 470.39L368.039 480.305L366.935 480.047L367.202 478.905L367.066 478.873C366.951 478.989 366.791 479.132 366.588 479.303C366.386 479.47 366.122 479.601 365.797 479.695C365.473 479.786 365.072 479.776 364.595 479.665ZM364.989 478.674C365.447 478.781 365.863 478.752 366.235 478.587C366.607 478.419 366.926 478.141 367.19 477.753C367.455 477.363 367.653 476.886 367.784 476.325C367.913 475.77 367.946 475.265 367.882 474.811C367.818 474.354 367.655 473.972 367.393 473.666C367.132 473.356 366.769 473.147 366.304 473.039C365.82 472.926 365.388 472.956 365.007 473.129C364.63 473.3 364.312 473.578 364.052 473.963C363.796 474.346 363.606 474.798 363.484 475.321C363.361 475.851 363.329 476.35 363.39 476.821C363.454 477.288 363.616 477.687 363.877 478.016C364.141 478.344 364.511 478.563 364.989 478.674ZM381.941 475.708L377.456 482.503L376.294 482.232L375.279 474.153L376.519 474.442L377.189 480.848L377.266 480.866L380.702 475.419L381.941 475.708ZM381.714 483.496L383.449 476.06L384.592 476.327L382.857 483.763L381.714 483.496ZM384.32 474.956C384.097 474.904 383.923 474.783 383.797 474.594C383.674 474.405 383.637 474.205 383.687 473.992C383.737 473.779 383.858 473.615 384.052 473.5C384.249 473.386 384.459 473.355 384.681 473.407C384.904 473.459 385.077 473.579 385.199 473.768C385.325 473.957 385.364 474.158 385.314 474.371C385.264 474.584 385.141 474.748 384.944 474.862C384.751 474.977 384.542 475.008 384.32 474.956ZM387.721 485.062C387.101 484.917 386.591 484.633 386.19 484.209C385.789 483.782 385.522 483.25 385.388 482.613C385.255 481.973 385.28 481.259 385.464 480.471C385.646 479.69 385.938 479.044 386.34 478.532C386.742 478.02 387.219 477.663 387.769 477.461C388.32 477.26 388.909 477.232 389.535 477.378C390.019 477.491 390.383 477.661 390.626 477.888C390.873 478.112 391.047 478.344 391.148 478.582C391.253 478.817 391.332 479.009 391.386 479.158L391.483 479.18L392.337 475.52L393.48 475.787L391.166 485.702L390.062 485.445L390.329 484.302L390.193 484.27C390.077 484.386 389.918 484.53 389.715 484.7C389.513 484.867 389.249 484.998 388.924 485.092C388.6 485.183 388.199 485.173 387.721 485.062ZM388.116 484.072C388.574 484.179 388.989 484.149 389.361 483.984C389.734 483.816 390.052 483.538 390.317 483.151C390.581 482.76 390.779 482.284 390.91 481.722C391.04 481.167 391.073 480.662 391.008 480.208C390.945 479.751 390.782 479.369 390.52 479.063C390.259 478.753 389.896 478.545 389.431 478.436C388.947 478.323 388.514 478.353 388.133 478.526C387.757 478.697 387.438 478.975 387.178 479.36C386.922 479.743 386.733 480.196 386.611 480.719C386.488 481.248 386.456 481.748 386.516 482.218C386.581 482.686 386.743 483.084 387.003 483.414C387.267 483.741 387.638 483.96 388.116 484.072ZM396.499 487.11C395.782 486.943 395.201 486.641 394.755 486.203C394.313 485.763 394.019 485.225 393.871 484.588C393.728 483.948 393.745 483.248 393.923 482.486C394.1 481.724 394.396 481.085 394.809 480.569C395.226 480.051 395.723 479.687 396.299 479.477C396.88 479.266 397.506 479.238 398.177 479.395C398.564 479.485 398.932 479.639 399.279 479.856C399.627 480.074 399.921 480.364 400.163 480.726C400.406 481.086 400.564 481.524 400.638 482.042C400.711 482.559 400.666 483.165 400.505 483.859L400.392 484.343L394.659 483.005L394.89 482.018L399.46 483.084C399.558 482.665 399.561 482.271 399.47 481.902C399.383 481.535 399.208 481.22 398.946 480.958C398.687 480.696 398.351 480.518 397.937 480.421C397.482 480.315 397.062 480.336 396.677 480.484C396.296 480.63 395.975 480.862 395.713 481.179C395.452 481.495 395.274 481.859 395.178 482.269L395.025 482.927C394.894 483.489 394.879 483.987 394.982 484.423C395.088 484.856 395.292 485.215 395.593 485.5C395.895 485.782 396.277 485.976 396.738 486.084C397.039 486.154 397.319 486.175 397.581 486.148C397.847 486.118 398.088 486.038 398.306 485.909C398.524 485.776 398.712 485.591 398.869 485.356L399.9 485.923C399.697 486.271 399.425 486.554 399.084 486.774C398.744 486.991 398.354 487.131 397.914 487.195C397.474 487.256 397.002 487.228 396.499 487.11ZM404.337 488.94C403.666 488.783 403.114 488.486 402.682 488.048C402.253 487.611 401.964 487.072 401.814 486.431C401.667 485.791 401.683 485.087 401.862 484.319C402.043 483.544 402.341 482.901 402.757 482.388C403.176 481.877 403.674 481.52 404.252 481.318C404.834 481.117 405.46 481.095 406.131 481.251C406.803 481.408 407.353 481.705 407.782 482.142C408.214 482.58 408.503 483.12 408.649 483.763C408.798 484.408 408.783 485.117 408.602 485.891C408.422 486.66 408.124 487.298 407.706 487.806C407.291 488.315 406.793 488.67 406.211 488.872C405.633 489.074 405.009 489.096 404.337 488.94ZM404.577 487.913C405.087 488.032 405.537 487.999 405.927 487.815C406.317 487.63 406.641 487.343 406.899 486.954C407.156 486.565 407.343 486.122 407.459 485.625C407.575 485.128 407.604 484.646 407.546 484.18C407.488 483.714 407.326 483.31 407.058 482.968C406.791 482.627 406.402 482.397 405.892 482.278C405.382 482.159 404.931 482.193 404.541 482.381C404.15 482.569 403.825 482.859 403.567 483.251C403.308 483.644 403.121 484.088 403.005 484.585C402.889 485.082 402.86 485.562 402.919 486.025C402.978 486.488 403.141 486.889 403.409 487.227C403.678 487.565 404.067 487.794 404.577 487.913Z" fill="#CCCCFF"/>
</g>
<defs>
<clipPath id="clip0_61_3979">
<rect x="357.924" y="155.548" width="197.72" height="428.13" rx="20" transform="rotate(13.1363 357.924 155.548)" fill="white"/>
</clipPath>
<clipPath id="clip1_61_3979">
<rect width="22.1824" height="24" fill="white" transform="translate(291.994 246.309) rotate(13.1363)"/>
</clipPath>
<clipPath id="clip2_61_3979">
<rect width="47.0769" height="24" fill="white" transform="translate(278.441 387.514) rotate(13.1363)"/>
</clipPath>
</defs>
</svg>
